<svg width="14" height="14" viewBox="0 0 14 14" fill="none" xmlns="http://www.w3.org/2000/svg">
<path d="M11.6873 4.8456L8.96988 5.11879L6.042 0.426566C5.95761 0.296928 5.84365 0.190328 5.70999 0.115999C5.57633 0.04167 5.42701 0.00185405 5.27495 0H4.33952C4.19441 0.00405118 4.05221 0.0426553 3.92418 0.112757C3.79614 0.182859 3.68579 0.282535 3.60184 0.403897C3.5179 0.52526 3.46267 0.664977 3.44052 0.811993C3.41838 0.95901 3.42993 1.10929 3.47426 1.25094L4.96626 5.52619L2.30965 5.79459C0.630565 4.06436 -0.14116 4.69702 0.022539 5.26737C0.658628 7.44334 0.658628 6.56145 0.022539 8.73742C-0.145838 9.31736 0.630565 9.93564 2.30498 8.21979L4.96158 8.48819L3.47426 12.7539C3.4309 12.8948 3.41995 13.0442 3.44226 13.1902C3.46457 13.3363 3.51954 13.475 3.60287 13.5957C3.6862 13.7164 3.79563 13.8157 3.92261 13.8858C4.04959 13.9559 4.19068 13.995 4.33485 14H5.27027C5.42233 13.9981 5.57166 13.9583 5.70532 13.884C5.83897 13.8097 5.95293 13.7031 6.03732 13.5734L8.96988 8.91955L11.6873 9.15919C11.9804 9.18754 12.276 9.15285 12.5552 9.05735C12.8344 8.96186 13.0911 8.80765 13.3088 8.60462C13.5266 8.40158 13.7005 8.15419 13.8195 7.87829C13.9385 7.60239 14 7.30405 14 7.0024C14 6.70074 13.9385 6.40241 13.8195 6.1265C13.7005 5.8506 13.5266 5.60321 13.3088 5.40018C13.0911 5.19714 12.8344 5.04294 12.5552 4.94744C12.276 4.85194 11.9804 4.81725 11.6873 4.8456Z" fill="#819FB2"/>
</svg>
