<svg width="20" height="20" viewBox="0 0 20 20" fill="none" xmlns="http://www.w3.org/2000/svg">
<path d="M16.0265 7.23006L12.5327 7.58131L8.76828 1.54844C8.65978 1.38176 8.51326 1.24471 8.34142 1.14914C8.16957 1.05358 7.97758 1.00238 7.78208 1H6.57939C6.39282 1.00521 6.20999 1.05484 6.04537 1.14497C5.88076 1.2351 5.73887 1.36326 5.63094 1.5193C5.52301 1.67533 5.452 1.85497 5.42353 2.04399C5.39506 2.23301 5.40991 2.42623 5.4669 2.60835L7.38519 8.1051L3.96955 8.45019C1.81073 6.22561 0.818508 7.03903 1.02898 7.77234C1.84681 10.57 1.84681 9.43615 1.02898 12.2338C0.812495 12.9795 1.81073 13.7744 3.96354 11.5683L7.37918 11.9134L5.4669 17.3978C5.41116 17.5791 5.39708 17.7711 5.42576 17.9589C5.45445 18.1466 5.52512 18.3251 5.63226 18.4802C5.73939 18.6353 5.88009 18.763 6.04335 18.8532C6.20662 18.9433 6.38801 18.9936 6.57337 19H7.77606C7.97157 18.9976 8.16356 18.9464 8.33541 18.8509C8.50725 18.7553 8.65377 18.6182 8.76227 18.4516L12.5327 12.468L16.0265 12.7761C16.4033 12.8125 16.7834 12.768 17.1424 12.6452C17.5014 12.5224 17.8314 12.3241 18.1114 12.0631C18.3913 11.802 18.6149 11.484 18.7679 11.1292C18.921 10.7745 19 10.3909 19 10.0031C19 9.61524 18.921 9.23167 18.7679 8.87693C18.6149 8.5222 18.3913 8.20413 18.1114 7.94308C17.8314 7.68204 17.5014 7.48378 17.1424 7.36099C16.7834 7.23821 16.4033 7.19361 16.0265 7.23006Z" fill="#819FB2"/>
</svg>
