<svg width="12" height="12" viewBox="0 0 12 12" fill="none" xmlns="http://www.w3.org/2000/svg">
<path d="M6 12C9.31371 12 12 9.31371 12 6C12 2.68629 9.31371 0 6 0C2.68629 0 0 2.68629 0 6C0 9.31371 2.68629 12 6 12ZM6 11.1001C3.18327 11.1001 0.899861 8.81673 0.899861 6C0.899861 3.18327 3.18327 0.89986 6 0.89986C8.81673 0.89986 11.1001 3.18327 11.1001 6C11.1001 8.81673 8.81673 11.1001 6 11.1001ZM5.99782 6.90044C6.2256 6.90059 6.41396 6.73145 6.44389 6.51185L6.44804 6.45081L6.4502 3.15036C6.45036 2.90187 6.24905 2.7003 6.00056 2.70013C5.77278 2.69999 5.58442 2.86913 5.55449 3.08872L5.55034 3.14977L5.54818 6.45022C5.54802 6.69871 5.74933 6.90028 5.99782 6.90044ZM6.00027 8.99877C6.33115 8.99877 6.59937 8.73055 6.59937 8.39967C6.59937 8.06879 6.33115 7.80056 6.00027 7.80056C5.66939 7.80056 5.40116 8.06879 5.40116 8.39967C5.40116 8.73055 5.66939 8.99877 6.00027 8.99877Z" fill="#F93131"/>
</svg>
