<svg width="20" height="20" viewBox="0 0 20 20" fill="none" xmlns="http://www.w3.org/2000/svg">
<g clip-path="url(#clip0_5274:12697)">
<path fill-rule="evenodd" clip-rule="evenodd" d="M10.2676 1.08413L0 6.21794L9.23077 6.98717L20 1.60255L11.3281 0.879895C10.9626 0.849433 10.5957 0.920088 10.2676 1.08413ZM9.2308 7.75639L20 2.37178V11.9049C20 12.6625 19.572 13.355 18.8945 13.6938L9.2308 18.5256V7.75639ZM10.7692 8.52564L11.5384 8.14102V15.8333L10.7692 16.2179V8.52564ZM13.8462 6.98717L13.077 7.37178V15.0641L13.8462 14.6795V6.98717ZM15.3846 6.21794L16.1539 5.83332V13.5256L15.3846 13.9102V6.21794ZM18.4616 4.67948L17.6924 5.0641V12.7564L18.4616 12.3718V4.67948ZM8.46154 7.75639L0 6.98716V15.93C0 16.9644 0.78877 17.8281 1.81893 17.9218L8.46154 18.5256V7.75639ZM4.6154 9.29486H3.84617V16.2179H4.6154V9.29486Z" fill="#819FB2"/>
</g>
<defs>
<clipPath id="clip0_5274:12697">
<rect width="20" height="20" fill="white"/>
</clipPath>
</defs>
</svg>
