<svg width="24" height="24" viewBox="0 0 24 24" fill="none" xmlns="http://www.w3.org/2000/svg">
<path d="M20.8 7.25C22.5673 7.25 24 8.66777 24 10.4167V18.3333C24 20.0822 22.5673 21.5 20.8 21.5H6.4C4.63269 21.5 3.2 20.0822 3.2 18.3333V16.75C1.43269 16.75 0 15.3322 0 13.5833V5.66667C0 3.91776 1.43269 2.5 3.2 2.5H17.6C19.3673 2.5 20.8 3.91776 20.8 5.66667V7.25ZM20.8 8.83333V13.5833C20.8 15.3322 19.3673 16.75 17.6 16.75H4.8V18.3333C4.8 19.2078 5.51634 19.9167 6.4 19.9167H20.8C21.6837 19.9167 22.4 19.2078 22.4 18.3333V10.4167C22.4 9.54222 21.6837 8.83333 20.8 8.83333ZM19.2 5.66667C19.2 4.79222 18.4837 4.08333 17.6 4.08333H3.2C2.31634 4.08333 1.6 4.79222 1.6 5.66667H19.2ZM19.2 10.4167H1.6V13.5833C1.6 14.4578 2.31634 15.1667 3.2 15.1667H17.6C18.4837 15.1667 19.2 14.4578 19.2 13.5833V10.4167ZM1.6 7.25V8.83333H19.2V7.25H1.6Z" fill="#E1ECF0"/>
</svg>
