<svg width="14" height="16" viewBox="0 0 14 16" fill="none" xmlns="http://www.w3.org/2000/svg">
<path d="M8.75 0C9.04532 0 9.28938 0.225723 9.32801 0.518583L9.33333 0.6V2.4H13.4167C13.7388 2.4 14 2.66863 14 3V15.4C14 15.7314 13.7388 16 13.4167 16H11.0833C10.7612 16 10.5 15.7314 10.5 15.4V13.2H8.94444V15.4C8.94444 15.7314 8.68328 16 8.36111 16H6.02778C5.70561 16 5.44444 15.7314 5.44444 15.4V3C5.44444 2.66863 5.70561 2.4 6.02778 2.4H8.16667V1.2H1.16667V15.4C1.16667 15.7314 0.905499 16 0.583333 16C0.288014 16 0.0439515 15.7743 0.00532519 15.4814L0 15.4V0.6C0 0.296243 0.219453 0.0452073 0.504178 0.00547733L0.583333 0H8.75ZM12.8333 3.6H6.61111V14.8H7.77778V12.6C7.77778 12.2686 8.03895 12 8.36111 12H11.0833C11.4055 12 11.6667 12.2686 11.6667 12.6V14.8H12.8333V3.6ZM3.88889 12V13.6H2.33333V12H3.88889ZM9.33333 9.6V11.2H7.77778V9.6H9.33333ZM11.6667 9.6V11.2H10.1111V9.6H11.6667ZM3.88889 9.6V11.2H2.33333V9.6H3.88889ZM9.33333 7.2V8.8H7.77778V7.2H9.33333ZM11.6667 7.2V8.8H10.1111V7.2H11.6667ZM3.88889 7.2V8.8H2.33333V7.2H3.88889ZM3.88889 4.8V6.4H2.33333V4.8H3.88889ZM9.33333 4.8V6.4H7.77778V4.8H9.33333ZM11.6667 4.8V6.4H10.1111V4.8H11.6667ZM3.88889 2.4V4H2.33333V2.4H3.88889Z" fill="#6D858F"/>
</svg>
