<svg width="24" height="24" viewBox="0 0 24 24" fill="none" xmlns="http://www.w3.org/2000/svg">
<path fill-rule="evenodd" clip-rule="evenodd" d="M19.7294 4.27056C20.0902 4.63131 20.0902 5.2162 19.7294 5.57694L13.3064 12L19.7294 18.4231C20.0902 18.7838 20.0902 19.3687 19.7294 19.7294C19.3687 20.0902 18.7838 20.0902 18.4231 19.7294L12 13.3064L5.57695 19.7294C5.2162 20.0902 4.63131 20.0902 4.27056 19.7294C3.90981 19.3687 3.90981 18.7838 4.27056 18.4231L10.6936 12L4.27056 5.57694C3.90981 5.2162 3.90981 4.63131 4.27056 4.27056C4.63131 3.90981 5.2162 3.90981 5.57695 4.27056L12 10.6936L18.4231 4.27056C18.7838 3.90981 19.3687 3.90981 19.7294 4.27056Z" fill="#6D858F"/>
</svg>
