<svg width="24" height="24" viewBox="0 0 24 24" fill="none" xmlns="http://www.w3.org/2000/svg">
<path d="M3.75 1H8.33333C9.06268 1 9.76215 1.28973 10.2779 1.80546C10.7936 2.32118 11.0833 3.02065 11.0833 3.75V8.33333C11.0833 9.06268 10.7936 9.76215 10.2779 10.2779C9.76215 10.7936 9.06268 11.0833 8.33333 11.0833H3.75C3.02065 11.0833 2.32118 10.7936 1.80546 10.2779C1.28973 9.76215 1 9.06268 1 8.33333V3.75C1 3.02065 1.28973 2.32118 1.80546 1.80546C2.32118 1.28973 3.02065 1 3.75 1ZM3.75 2.83333C3.50688 2.83333 3.27373 2.92991 3.10182 3.10182C2.92991 3.27373 2.83333 3.50688 2.83333 3.75V8.33333C2.83333 8.57645 2.92991 8.80961 3.10182 8.98151C3.27373 9.15342 3.50688 9.25 3.75 9.25H8.33333C8.57645 9.25 8.80961 9.15342 8.98151 8.98151C9.15342 8.80961 9.25 8.57645 9.25 8.33333V3.75C9.25 3.50688 9.15342 3.27373 8.98151 3.10182C8.80961 2.92991 8.57645 2.83333 8.33333 2.83333H3.75ZM15.6667 1H20.25C20.9793 1 21.6788 1.28973 22.1945 1.80546C22.7103 2.32118 23 3.02065 23 3.75V8.33333C23 9.06268 22.7103 9.76215 22.1945 10.2779C21.6788 10.7936 20.9793 11.0833 20.25 11.0833H15.6667C14.9373 11.0833 14.2378 10.7936 13.7221 10.2779C13.2064 9.76215 12.9167 9.06268 12.9167 8.33333V3.75C12.9167 3.02065 13.2064 2.32118 13.7221 1.80546C14.2378 1.28973 14.9373 1 15.6667 1ZM15.6667 2.83333C15.4236 2.83333 15.1904 2.92991 15.0185 3.10182C14.8466 3.27373 14.75 3.50688 14.75 3.75V8.33333C14.75 8.57645 14.8466 8.80961 15.0185 8.98151C15.1904 9.15342 15.4236 9.25 15.6667 9.25H20.25C20.4931 9.25 20.7263 9.15342 20.8982 8.98151C21.0701 8.80961 21.1667 8.57645 21.1667 8.33333V3.75C21.1667 3.50688 21.0701 3.27373 20.8982 3.10182C20.7263 2.92991 20.4931 2.83333 20.25 2.83333H15.6667ZM15.6667 12.9167H20.25C20.9793 12.9167 21.6788 13.2064 22.1945 13.7221C22.7103 14.2378 23 14.9373 23 15.6667V20.25C23 20.9793 22.7103 21.6788 22.1945 22.1945C21.6788 22.7103 20.9793 23 20.25 23H15.6667C14.9373 23 14.2378 22.7103 13.7221 22.1945C13.2064 21.6788 12.9167 20.9793 12.9167 20.25V15.6667C12.9167 14.9373 13.2064 14.2378 13.7221 13.7221C14.2378 13.2064 14.9373 12.9167 15.6667 12.9167ZM15.6667 14.75C15.4236 14.75 15.1904 14.8466 15.0185 15.0185C14.8466 15.1904 14.75 15.4236 14.75 15.6667V20.25C14.75 20.4931 14.8466 20.7263 15.0185 20.8982C15.1904 21.0701 15.4236 21.1667 15.6667 21.1667H20.25C20.4931 21.1667 20.7263 21.0701 20.8982 20.8982C21.0701 20.7263 21.1667 20.4931 21.1667 20.25V15.6667C21.1667 15.4236 21.0701 15.1904 20.8982 15.0185C20.7263 14.8466 20.4931 14.75 20.25 14.75H15.6667ZM3.75 12.9167H8.33333C9.06268 12.9167 9.76215 13.2064 10.2779 13.7221C10.7936 14.2378 11.0833 14.9373 11.0833 15.6667V20.25C11.0833 20.9793 10.7936 21.6788 10.2779 22.1945C9.76215 22.7103 9.06268 23 8.33333 23H3.75C3.02065 23 2.32118 22.7103 1.80546 22.1945C1.28973 21.6788 1 20.9793 1 20.25V15.6667C1 14.9373 1.28973 14.2378 1.80546 13.7221C2.32118 13.2064 3.02065 12.9167 3.75 12.9167ZM3.75 14.75C3.50688 14.75 3.27373 14.8466 3.10182 15.0185C2.92991 15.1904 2.83333 15.4236 2.83333 15.6667V20.25C2.83333 20.4931 2.92991 20.7263 3.10182 20.8982C3.27373 21.0701 3.50688 21.1667 3.75 21.1667H8.33333C8.57645 21.1667 8.80961 21.0701 8.98151 20.8982C9.15342 20.7263 9.25 20.4931 9.25 20.25V15.6667C9.25 15.4236 9.15342 15.1904 8.98151 15.0185C8.80961 14.8466 8.57645 14.75 8.33333 14.75H3.75Z" fill="#E1ECF0"/>
</svg>
