<svg width="14" height="16" viewBox="0 0 14 16" fill="none" xmlns="http://www.w3.org/2000/svg">
<path d="M6.45833 1.06667V4.26667C6.45833 5.15032 5.73079 5.86667 4.83333 5.86667H1.58333V13.8667C1.58333 14.4558 2.06836 14.9333 2.66667 14.9333H11.3333C11.9316 14.9333 12.4167 14.4558 12.4167 13.8667V2.13333C12.4167 1.54423 11.9316 1.06667 11.3333 1.06667H6.45833V1.06667ZM2.34925 4.8H4.83333C5.13249 4.8 5.375 4.56122 5.375 4.26667V1.8208L2.34925 4.8ZM5.69242 0H11.3333V0C12.53 -5.15011e-08 13.5 0.955125 13.5 2.13333V13.8667C13.5 15.0449 12.53 16 11.3333 16H2.66667H2.66667C1.47005 16 0.5 15.0449 0.5 13.8667V5.11253L5.69242 0L5.69242 0ZM4.83333 9.06667C4.53418 9.06667 4.29167 8.82789 4.29167 8.53333C4.29167 8.23878 4.53418 8 4.83333 8H9.16667C9.46582 8 9.70833 8.23878 9.70833 8.53333C9.70833 8.82789 9.46582 9.06667 9.16667 9.06667H4.83333ZM4.83333 10.6667C4.53418 10.6667 4.29167 10.4279 4.29167 10.1333C4.29167 9.83878 4.53418 9.6 4.83333 9.6H9.16667C9.46582 9.6 9.70833 9.83878 9.70833 10.1333C9.70833 10.4279 9.46582 10.6667 9.16667 10.6667H4.83333Z" fill="#6D858F"/>
</svg>
