<svg width="16" height="4" viewBox="0 0 16 4" fill="none" xmlns="http://www.w3.org/2000/svg">
<path d="M1.5 0.5C2.32843 0.5 3 1.17157 3 2C3 2.82843 2.32843 3.5 1.5 3.5C0.671573 3.5 0 2.82843 0 2C0 1.17157 0.671573 0.5 1.5 0.5ZM8 0.5C8.82843 0.5 9.5 1.17157 9.5 2C9.5 2.82843 8.82843 3.5 8 3.5C7.17157 3.5 6.5 2.82843 6.5 2C6.5 1.17157 7.17157 0.5 8 0.5ZM14.5 0.5C15.3284 0.5 16 1.17157 16 2C16 2.82843 15.3284 3.5 14.5 3.5C13.6716 3.5 13 2.82843 13 2C13 1.17157 13.6716 0.5 14.5 0.5Z" fill="#4A4A4A"/>
</svg>
