<svg width="14" height="14" viewBox="0 0 14 14" fill="none" xmlns="http://www.w3.org/2000/svg">
<path d="M7.10008 13.0667H7.10007C5.50362 11.704 5.34919 9.34488 6.75514 7.79753C7.83662 6.6073 9.57594 6.20925 11.0925 6.80493V1.86667C11.0925 1.3512 10.6613 0.933333 10.1295 0.933333H5.79624V3.73333C5.79624 4.50653 5.14955 5.13333 4.35181 5.13333H1.46295V12.1333C1.46295 12.6488 1.89408 13.0667 2.42591 13.0667H7.10008H7.10008ZM9.64805 14H2.4259C1.36226 14 0.5 13.1643 0.5 12.1333V4.47347L5.11543 0H10.1295V0C11.1932 -4.50634e-08 12.0554 0.835735 12.0554 1.86667V7.35233C13.716 8.641 13.9844 10.9905 12.6549 12.6C11.9239 13.4849 10.8176 14 9.64805 14ZM4.83329 1.5932L2.14376 4.2H4.35181C4.61772 4.2 4.83329 3.99107 4.83329 3.73333V1.5932ZM9.64805 13.0667C11.2435 13.0667 12.5369 11.8131 12.5369 10.2667C12.5369 8.72027 11.2435 7.46667 9.64805 7.46667C8.05258 7.46667 6.75919 8.72027 6.75919 10.2667C6.75919 11.8131 8.05258 13.0667 9.64805 13.0667ZM10.8036 9.56667C10.8654 9.56655 10.9258 9.58443 10.9769 9.618C11.1045 9.702 11.1305 9.8616 11.0347 9.97407L9.87916 11.3316C9.86247 11.3511 9.84302 11.3682 9.82138 11.3825C9.6925 11.4667 9.5191 11.4447 9.41694 11.3311L8.2614 9.97407C8.22429 9.93114 8.20385 9.87699 8.20362 9.821C8.20362 9.681 8.33314 9.56667 8.49251 9.56667H10.8036Z" fill="#4A4A4A"/>
</svg>
