<svg width="10" height="10" viewBox="0 0 10 10" fill="none" xmlns="http://www.w3.org/2000/svg">
<path d="M7.25 4.5C8.7688 4.5 10 5.7312 10 7.25C10 8.7688 8.7688 10 7.25 10C5.7312 10 4.5 8.7688 4.5 7.25C4.5 5.7312 5.7312 4.5 7.25 4.5ZM7.25 8.4375C7.0774 8.4375 6.9375 8.5774 6.9375 8.75C6.9375 8.9226 7.0774 9.0625 7.25 9.0625C7.4226 9.0625 7.5625 8.9226 7.5625 8.75C7.5625 8.5774 7.4226 8.4375 7.25 8.4375ZM7.375 0C8.27245 0 9 0.727535 9 1.625V4.5109C8.7684 4.36265 8.51675 4.2429 8.25 4.15675V2.75H0.75V7.375C0.75 7.85825 1.14175 8.25 1.625 8.25H4.15675C4.2429 8.51675 4.36265 8.7684 4.5109 9H1.625C0.727535 9 0 8.27245 0 7.375V1.625C0 0.727535 0.727535 0 1.625 0H7.375ZM7.25 5.5C7.11195 5.5 7 5.61195 7 5.75V7.75C7 7.88805 7.11195 8 7.25 8C7.38805 8 7.5 7.88805 7.5 7.75V5.75C7.5 5.61195 7.38805 5.5 7.25 5.5ZM7.375 0.75H1.625C1.14175 0.75 0.75 1.14175 0.75 1.625V2H8.25V1.625C8.25 1.14175 7.85825 0.75 7.375 0.75Z" fill="#F93131"/>
</svg>
