<svg width="50" height="40" viewBox="0 0 50 40" fill="none" xmlns="http://www.w3.org/2000/svg">
<path d="M35 6.25H8.125C5.82957 6.25 3.94702 8.01778 3.7645 10.2662L3.755 10.515L22.5 20.3812L37.5726 12.447C39.1553 14.0247 41.3387 15 43.75 15C44.1752 15 44.5934 14.9697 45.0024 14.911L45 31.875C45 36.2076 41.6089 39.7481 37.3361 39.9871L36.875 40H8.125C3.79242 40 0.251885 36.6089 0.0128621 32.3361L0 31.875V10.625C0 6.29242 3.39114 2.75188 7.66394 2.51286L8.125 2.49992H35.8421C35.3021 3.63651 35 4.90797 35 6.25ZM41.25 14.7475L23.3733 24.1592C22.9047 24.4058 22.3578 24.4411 21.8669 24.2649L21.6267 24.1592L3.75 14.75V31.875C3.75 34.1704 5.51778 36.053 7.76618 36.2355L8.125 36.25H36.875C39.1704 36.25 41.053 34.4822 41.2355 32.2338L41.25 31.875V14.7475ZM43.75 0C47.2018 0 50 2.79822 50 6.25C50 9.70178 47.2018 12.5 43.75 12.5C40.2982 12.5 37.5 9.70178 37.5 6.25C37.5 2.79822 40.2982 0 43.75 0Z" fill="#0171A1"/>
</svg>
