<svg width="24" height="24" viewBox="0 0 24 24" fill="none" xmlns="http://www.w3.org/2000/svg">
<g clip-path="url(#clip0)">
<path d="M16.8 5.71981L12.8 8.05551V12.2217L16.8 9.93365V5.71981ZM16.2934 4.16144L12.0534 1.711L7.71592 4.16686L12 6.66844L16.2934 4.16144ZM7.2 5.71981V9.93358L11.2 12.2209V8.05551L7.2 5.71981ZM18.4 21.8314L22.4 19.5434V14.9293L18.4 17.2667V21.8314ZM16.8 21.8314V17.2676L12.8 14.9803V19.5434L16.8 21.8314ZM1.6 14.9291V19.5434L5.6 21.8314V17.2648L1.6 14.9291ZM2.45768 13.5757L6.40412 15.8802L10.3882 13.6012L6.40006 11.3207L2.45768 13.5757ZM17.6 11.3207L13.6135 13.601L17.5992 15.8801L21.5425 13.5758L17.6 11.3207ZM7.2 21.8314L11.2 19.5434V14.9816L7.2 17.2696V21.8314ZM5.6 9.93365V4.03861C5.6 3.72111 5.77068 3.42818 6.04675 3.27187L11.6238 0.114155C11.895 -0.0394184 12.2272 -0.0379493 12.497 0.118017L17.96 3.27526C18.2323 3.43261 18.4 3.72342 18.4 4.03813V9.93365L23.5566 12.8833C23.8308 13.0401 24 13.332 24 13.6481V19.9616C24 20.2777 23.8308 20.5696 23.5566 20.7265L18.0366 23.8839C17.7661 24.0387 17.4339 24.0387 17.1634 23.8839L12 20.9304L6.8366 23.8839C6.56606 24.0387 6.23394 24.0387 5.9634 23.8839L0.443398 20.7265C0.169212 20.5696 0 20.2777 0 19.9616V13.6481C0 13.332 0.169212 13.0401 0.443398 12.8833L5.6 9.93365Z" fill="#E1ECF0"/>
</g>
<defs>
<clipPath id="clip0">
<rect width="24" height="24" fill="white"/>
</clipPath>
</defs>
</svg>
