<svg width="24" height="24" viewBox="0 0 24 24" fill="none" xmlns="http://www.w3.org/2000/svg">
<path d="M5.42857 9.63008L2.14286 7.98543V16.2828C2.14286 16.8878 2.4747 17.444 3.00684 17.7308L11.1786 22.1358V12.5082L7.07143 10.4524V15.7005C7.07143 16.1546 6.70366 16.5228 6.25 16.5228C5.79634 16.5228 5.42857 16.1546 5.42857 15.7005V9.63008ZM6.6353 8.39533L12.0242 5.51813C12.4245 5.30441 12.922 5.456 13.1355 5.85673C13.349 6.25746 13.1976 6.75557 12.7973 6.96929L8.43715 9.29724L12 11.0806L21.2576 6.44674C21.1763 6.37984 21.0879 6.32023 20.9932 6.26915L12.7789 1.84124C12.2926 1.57913 11.7074 1.57913 11.2211 1.84124L3.00684 6.26915C2.91209 6.32023 2.82369 6.37984 2.74239 6.44674L6.6353 8.39533ZM12.8214 22.1358L20.9932 17.7308C21.5253 17.444 21.8571 16.8878 21.8571 16.2828V7.98543L12.8214 12.5082V22.1358ZM2.22796 4.82108L10.4422 0.393167C11.4147 -0.131056 12.5853 -0.131056 13.5578 0.393167L21.772 4.82108C22.8363 5.39478 23.5 6.50714 23.5 7.71722V16.2828C23.5 17.4929 22.8363 18.6052 21.772 19.1789L13.5578 23.6068C12.5853 24.1311 11.4147 24.1311 10.4422 23.6068L2.22796 19.1789C1.16368 18.6052 0.5 17.4929 0.5 16.2828V7.71722C0.5 6.50714 1.16368 5.39478 2.22796 4.82108ZM15.6647 18.9793C15.2622 19.1888 14.7662 19.032 14.5569 18.6291C14.3476 18.2261 14.5042 17.7296 14.9067 17.5201L19.0139 15.3821C19.4164 15.1725 19.9123 15.3293 20.1216 15.7323C20.3309 16.1352 20.1743 16.6317 19.7718 16.8412L15.6647 18.9793Z" fill="#E1ECF0"/>
</svg>
