<svg width="12" height="12" viewBox="0 0 12 12" fill="none" xmlns="http://www.w3.org/2000/svg">
<path d="M4.14733 10.041L3.11127 11.3485C2.97253 11.5235 2.72069 11.5509 2.54878 11.4096C2.37687 11.2683 2.34999 11.0118 2.48873 10.8367L3.85891 9.10757L4.11638 9.18631C4.71148 9.36832 5.34714 9.46295 6 9.46295C8.89015 9.46295 11.2 7.61446 11.2 5.38888C11.2 3.1633 8.89015 1.31481 6 1.31481C3.10985 1.31481 0.8 3.1633 0.8 5.38888C0.8 6.4481 1.32223 7.45015 2.25165 8.20858C2.42405 8.34926 2.45184 8.60566 2.31371 8.78126C2.17558 8.95686 1.92384 8.98516 1.75144 8.84447C0.640931 7.93827 0 6.70846 0 5.38888C0 2.66436 2.70456 0.5 6 0.5C9.29544 0.5 12 2.66436 12 5.38888C12 8.1134 9.29544 10.2778 6 10.2778C5.36353 10.2778 4.74028 10.1972 4.14733 10.041ZM4 5.79629C3.66863 5.79629 3.4 5.52269 3.4 5.18518C3.4 4.84767 3.66863 4.57407 4 4.57407C4.33137 4.57407 4.6 4.84767 4.6 5.18518C4.6 5.52269 4.33137 5.79629 4 5.79629ZM6 5.79629C5.66863 5.79629 5.4 5.52269 5.4 5.18518C5.4 4.84767 5.66863 4.57407 6 4.57407C6.33137 4.57407 6.6 4.84767 6.6 5.18518C6.6 5.52269 6.33137 5.79629 6 5.79629ZM8 5.79629C7.66863 5.79629 7.4 5.52269 7.4 5.18518C7.4 4.84767 7.66863 4.57407 8 4.57407C8.33137 4.57407 8.6 4.84767 8.6 5.18518C8.6 5.52269 8.33137 5.79629 8 5.79629Z" fill="#039DDC"/>
</svg>
