<svg width="48" height="48" viewBox="0 0 48 48" fill="none" xmlns="http://www.w3.org/2000/svg">
<path d="M20.4 7.19995C27.6902 7.19995 33.6 13.1098 33.6 20.4C33.6 23.613 32.4521 26.5581 30.5438 28.847L40.4486 38.7513C40.9171 39.22 40.9171 39.9799 40.4486 40.4486C40.032 40.865 39.3854 40.9113 38.9177 40.5873L38.7514 40.4486L28.847 30.5438C26.5582 32.452 23.6131 33.5999 20.4 33.5999C13.1098 33.5999 7.2 27.6902 7.2 20.4C7.2 13.1098 13.1098 7.19995 20.4 7.19995ZM20.4 9.59995C14.4353 9.59995 9.6 14.4353 9.6 20.4C9.6 26.3647 14.4353 31.1999 20.4 31.1999C26.3647 31.1999 31.2 26.3647 31.2 20.4C31.2 14.4353 26.3647 9.59995 20.4 9.59995Z" fill="#819FB2"/>
<path d="M20.4 19.1999C21.0627 19.1999 21.6 19.7372 21.6 20.3999V25.1999C21.6 25.8625 21.0627 26.3999 20.4 26.3999C19.7373 26.3999 19.2 25.8625 19.2 25.1999V20.3999C19.2 19.7372 19.7373 19.1999 20.4 19.1999ZM21.6 15.5999C21.6 16.2626 21.0627 16.7999 20.4 16.7999C19.7373 16.7999 19.2 16.2626 19.2 15.5999C19.2 14.9372 19.7373 14.3999 20.4 14.3999C21.0627 14.3999 21.6 14.9372 21.6 15.5999Z" fill="#819FB2"/>
</svg>
