<svg width="22" height="24" viewBox="0 0 22 24" fill="none" xmlns="http://www.w3.org/2000/svg">
<path d="M10.9943 0C15.9552 0 20.0058 3.93093 20.1762 8.9195L20.1813 9.22827V14.2693L21.8717 18.1526C21.9563 18.3469 22 18.5567 22 18.7688C22 19.6182 21.3145 20.3069 20.4688 20.3069L14.6691 20.3087C14.6691 22.3473 13.0239 24 10.9943 24C9.03728 24 7.43754 22.4633 7.32577 20.5256L7.31898 20.3059L1.53156 20.3069C1.32168 20.3069 1.11404 20.2635 0.921537 20.1795C0.145906 19.8411 -0.209752 18.9352 0.127153 18.156L1.80733 14.2705V9.22814C1.80806 4.11593 5.91342 0 10.9943 0ZM12.8312 20.3059L9.15693 20.3087C9.15693 21.328 9.97957 22.1543 10.9943 22.1543C11.9494 22.1543 12.7343 21.4224 12.8233 20.4864L12.8312 20.3059ZM10.9943 1.84565C6.92736 1.84565 3.64532 5.13615 3.64473 9.22827V14.654L1.99845 18.4612H20.0007L18.3439 14.6552L18.3441 9.24409L18.3395 8.967C18.2034 4.98841 14.965 1.84565 10.9943 1.84565Z" fill="#819FB2"/>
</svg>
