<svg width="20" height="20" viewBox="0 0 20 20" fill="none" xmlns="http://www.w3.org/2000/svg">
<path d="M9.99575 1C13.7164 1 16.7543 3.9482 16.8822 7.68962L16.886 7.92121V11.702L18.1538 14.6145C18.2173 14.7602 18.25 14.9175 18.25 15.0766C18.25 15.7137 17.7359 16.2301 17.1016 16.2301L12.7519 16.2315C12.7519 17.7605 11.5179 19 9.99575 19C8.52796 19 7.32816 17.8475 7.24433 16.3942L7.23923 16.2294L2.89867 16.2301C2.74126 16.2301 2.58553 16.1976 2.44115 16.1346C1.85943 15.8808 1.59269 15.2014 1.84536 14.617L3.1055 11.7029V7.92111C3.10605 4.08695 6.18506 1 9.99575 1ZM11.3734 16.2294L8.6177 16.2315C8.6177 16.996 9.23467 17.6158 9.99575 17.6158C10.7121 17.6158 11.3007 17.0668 11.3675 16.3648L11.3734 16.2294ZM9.99575 2.38424C6.94552 2.38424 4.48399 4.85211 4.48355 7.92121V11.9905L3.24883 14.8459H16.7505L15.508 11.9914L15.5081 7.93307L15.5046 7.72525C15.4026 4.74131 12.9738 2.38424 9.99575 2.38424Z" fill="#F5F9FC"/>
</svg>
