<svg width="20" height="20" viewBox="0 0 20 20" fill="none" xmlns="http://www.w3.org/2000/svg">
<path fill-rule="evenodd" clip-rule="evenodd" d="M1.09091 5.08108C1.09091 4.56211 1.50125 4.13514 2 4.13514H18C18.4988 4.13514 18.9091 4.56211 18.9091 5.08108V7.02704H1.09091V5.08108ZM0 7.59461V5.08108C0 3.93519 0.898754 3 2 3H18C19.1012 3 20 3.93519 20 5.08108V7.59461V14.9189C20 16.0648 19.1012 17 18 17H2C0.898754 17 0 16.0648 0 14.9189V7.59461ZM18.9091 8.16217V14.9189C18.9091 15.4379 18.4988 15.8649 18 15.8649H2C1.50125 15.8649 1.09091 15.4379 1.09091 14.9189V8.16217H18.9091ZM2.90909 13.4054C2.90909 13.0919 3.1533 12.8378 3.45454 12.8378H4.90909C5.21033 12.8378 5.45454 13.0919 5.45454 13.4054C5.45454 13.7189 5.21033 13.973 4.90909 13.973H3.45454C3.1533 13.973 2.90909 13.7189 2.90909 13.4054ZM3.45454 10.5676C3.1533 10.5676 2.90909 10.8217 2.90909 11.1351C2.90909 11.4486 3.1533 11.7027 3.45454 11.7027H7.09091C7.39215 11.7027 7.63636 11.4486 7.63636 11.1351C7.63636 10.8217 7.39215 10.5676 7.09091 10.5676H3.45454Z" fill="#F5F9FC"/>
</svg>
