<svg width="24" height="24" viewBox="0 0 24 24" fill="none" xmlns="http://www.w3.org/2000/svg">
<path d="M3.32758 7.31482H20.6716C21.1576 7.31471 21.6377 7.42361 22.0782 7.63387C22.5187 7.84413 22.9089 8.15064 23.2213 8.53184C23.5338 8.91305 23.7609 9.3597 23.8866 9.8404C24.0124 10.3211 24.0338 10.8242 23.9494 11.3143L22.3338 20.6846C22.1979 21.4735 21.7949 22.188 21.1956 22.7029C20.5963 23.2177 19.8391 23.5 19.0568 23.5H4.94235C4.15993 23.5002 3.40248 23.218 2.80304 22.7032C2.20359 22.1883 1.8005 21.4736 1.66455 20.6846L0.0506152 11.3143C-0.0338172 10.8242 -0.0124164 10.3212 0.113314 9.84061C0.239044 9.35997 0.466052 8.91336 0.778383 8.53217C1.09071 8.15098 1.48079 7.84445 1.92119 7.63414C2.36159 7.42383 2.84163 7.31484 3.32758 7.31482ZM3.32758 9.01852C3.08453 9.01846 2.84442 9.07292 2.62413 9.17807C2.40384 9.28322 2.20873 9.43652 2.05251 9.62717C1.89629 9.81782 1.78276 10.0412 1.71991 10.2816C1.65705 10.522 1.64639 10.7736 1.68868 11.0187L3.30345 20.389C3.37151 20.7834 3.5731 21.1407 3.87281 21.398C4.17252 21.6554 4.5512 21.7964 4.94235 21.7963H19.0568C19.448 21.7964 19.8266 21.6554 20.1264 21.398C20.4261 21.1407 20.6277 20.7834 20.6957 20.389L22.3097 11.0187C22.3519 10.7737 22.3413 10.5223 22.2785 10.282C22.2158 10.0417 22.1024 9.81845 21.9464 9.62782C21.7903 9.4372 21.5954 9.28387 21.3753 9.17861C21.1553 9.07335 20.9153 9.0187 20.6724 9.01852H3.32758ZM8.99549 15.6561C8.90663 15.5894 8.8316 15.5052 8.77477 15.4085C8.71795 15.3118 8.68045 15.2045 8.66446 15.0929C8.64847 14.9812 8.65431 14.8674 8.68163 14.7581C8.70896 14.6488 8.75723 14.5461 8.82364 14.456C8.89005 14.3659 8.97328 14.2903 9.06849 14.2334C9.1637 14.1766 9.26899 14.1397 9.37825 14.1248C9.48751 14.11 9.59855 14.1176 9.70494 14.147C9.81133 14.1765 9.91093 14.2274 9.99797 14.2966C10.5703 14.7396 11.2658 14.9815 11.9996 14.9815C12.7367 14.9815 13.4347 14.7361 14.0087 14.2906C14.1844 14.1539 14.406 14.0943 14.6247 14.1249C14.8433 14.1555 15.0411 14.2738 15.1746 14.4538C15.3081 14.6337 15.3663 14.8606 15.3365 15.0845C15.3066 15.3084 15.1911 15.5109 15.0153 15.6476C14.1482 16.3223 13.0887 16.6868 11.9996 16.6852C10.9157 16.6865 9.86113 16.3251 8.99633 15.6561H8.99549ZM3.68031 5.61111C3.68031 5.83704 3.59266 6.05371 3.43665 6.21346C3.28063 6.37321 3.06903 6.46296 2.84839 6.46296C2.62775 6.46296 2.41614 6.37321 2.26012 6.21346C2.10411 6.05371 2.01646 5.83704 2.01646 5.61111C2.01646 5.15926 2.19176 4.72592 2.50379 4.40641C2.81582 4.0869 3.23903 3.90741 3.68031 3.90741H19.9029C20.3442 3.90741 20.7674 4.0869 21.0794 4.40641C21.3914 4.72592 21.5667 5.15926 21.5667 5.61111C21.5667 5.83704 21.4791 6.05371 21.3231 6.21346C21.1671 6.37321 20.9555 6.46296 20.7348 6.46296C20.5142 6.46296 20.3026 6.37321 20.1466 6.21346C19.9905 6.05371 19.9029 5.83704 19.9029 5.61111H3.68031ZM5.34417 2.2037C5.34417 2.42963 5.25652 2.6463 5.1005 2.80605C4.94448 2.96581 4.73288 3.05556 4.51224 3.05556C4.2916 3.05556 4.08 2.96581 3.92398 2.80605C3.76796 2.6463 3.68031 2.42963 3.68031 2.2037C3.68031 1.75185 3.85561 1.31851 4.16764 0.999003C4.47968 0.679497 4.90289 0.5 5.34417 0.5H18.239C18.6803 0.5 19.1035 0.679497 19.4156 0.999003C19.7276 1.31851 19.9029 1.75185 19.9029 2.2037C19.9029 2.42963 19.8152 2.6463 19.6592 2.80605C19.5032 2.96581 19.2916 3.05556 19.071 3.05556C18.8503 3.05556 18.6387 2.96581 18.4827 2.80605C18.3267 2.6463 18.239 2.42963 18.239 2.2037H5.34417Z" fill="#E1ECF0"/>
</svg>
