<svg width="24" height="24" viewBox="0 0 24 24" fill="none" xmlns="http://www.w3.org/2000/svg">
<path d="M5.71429 3.2C5.71429 2.35131 6.04541 1.53737 6.63481 0.937258C7.22421 0.337142 8.02361 0 8.85714 0L19.8571 0C20.6907 0 21.4901 0.337142 22.0795 0.937258C22.6689 1.53737 23 2.35131 23 3.2V17.6C23 18.4487 22.6689 19.2626 22.0795 19.8627C21.4901 20.4629 20.6907 20.8 19.8571 20.8H18.2857C18.2857 21.6487 17.9546 22.4626 17.3652 23.0627C16.7758 23.6629 15.9764 24 15.1429 24H4.14286C3.30932 24 2.50992 23.6629 1.92052 23.0627C1.33112 22.4626 1 21.6487 1 20.8V6.4C1 5.55131 1.33112 4.73737 1.92052 4.13726C2.50992 3.53714 3.30932 3.2 4.14286 3.2H5.71429ZM7.28571 3.2H15.1429C15.9764 3.2 16.7758 3.53714 17.3652 4.13726C17.9546 4.73737 18.2857 5.55131 18.2857 6.4V19.2H19.8571C20.2739 19.2 20.6736 19.0314 20.9683 18.7314C21.263 18.4313 21.4286 18.0243 21.4286 17.6V3.2C21.4286 2.77565 21.263 2.36869 20.9683 2.06863C20.6736 1.76857 20.2739 1.6 19.8571 1.6H8.85714C8.44037 1.6 8.04068 1.76857 7.74598 2.06863C7.45128 2.36869 7.28571 2.77565 7.28571 3.2ZM4.14286 4.8C3.72609 4.8 3.32639 4.96857 3.03169 5.26863C2.73699 5.56869 2.57143 5.97565 2.57143 6.4V20.8C2.57143 21.2243 2.73699 21.6313 3.03169 21.9314C3.32639 22.2314 3.72609 22.4 4.14286 22.4H15.1429C15.5596 22.4 15.9593 22.2314 16.254 21.9314C16.5487 21.6313 16.7143 21.2243 16.7143 20.8V6.4C16.7143 5.97565 16.5487 5.56869 16.254 5.26863C15.9593 4.96857 15.5596 4.8 15.1429 4.8H4.14286ZM5.71429 9.6C5.5059 9.6 5.30605 9.51571 5.1587 9.36569C5.01135 9.21566 4.92857 9.01217 4.92857 8.8C4.92857 8.58783 5.01135 8.38434 5.1587 8.23431C5.30605 8.08429 5.5059 8 5.71429 8H13.5714C13.7798 8 13.9797 8.08429 14.127 8.23431C14.2744 8.38434 14.3571 8.58783 14.3571 8.8C14.3571 9.01217 14.2744 9.21566 14.127 9.36569C13.9797 9.51571 13.7798 9.6 13.5714 9.6H5.71429ZM5.71429 12.8C5.5059 12.8 5.30605 12.7157 5.1587 12.5657C5.01135 12.4157 4.92857 12.2122 4.92857 12C4.92857 11.7878 5.01135 11.5843 5.1587 11.4343C5.30605 11.2843 5.5059 11.2 5.71429 11.2H13.5714C13.7798 11.2 13.9797 11.2843 14.127 11.4343C14.2744 11.5843 14.3571 11.7878 14.3571 12C14.3571 12.2122 14.2744 12.4157 14.127 12.5657C13.9797 12.7157 13.7798 12.8 13.5714 12.8H5.71429ZM5.71429 16C5.5059 16 5.30605 15.9157 5.1587 15.7657C5.01135 15.6157 4.92857 15.4122 4.92857 15.2C4.92857 14.9878 5.01135 14.7843 5.1587 14.6343C5.30605 14.4843 5.5059 14.4 5.71429 14.4H13.5714C13.7798 14.4 13.9797 14.4843 14.127 14.6343C14.2744 14.7843 14.3571 14.9878 14.3571 15.2C14.3571 15.4122 14.2744 15.6157 14.127 15.7657C13.9797 15.9157 13.7798 16 13.5714 16H5.71429ZM5.71429 19.2C5.5059 19.2 5.30605 19.1157 5.1587 18.9657C5.01135 18.8157 4.92857 18.6122 4.92857 18.4C4.92857 18.1878 5.01135 17.9843 5.1587 17.8343C5.30605 17.6843 5.5059 17.6 5.71429 17.6H13.5714C13.7798 17.6 13.9797 17.6843 14.127 17.8343C14.2744 17.9843 14.3571 18.1878 14.3571 18.4C14.3571 18.6122 14.2744 18.8157 14.127 18.9657C13.9797 19.1157 13.7798 19.2 13.5714 19.2H5.71429Z" fill="#E1ECF0"/>
</svg>
