<svg width="48" height="48" viewBox="0 0 48 48" fill="none" xmlns="http://www.w3.org/2000/svg">
<rect width="48" height="48" rx="24" fill="#E1ECF0"/>
<path fill-rule="evenodd" clip-rule="evenodd" d="M25.2958 18.2944C25.2933 18.3974 25.3048 18.5 25.3299 18.5995H24.5054C24.2014 18.6066 23.9119 18.7317 23.6977 18.9487C23.4836 19.1656 23.3613 19.4575 23.3566 19.763V22.912C23.355 23.015 23.3672 23.1175 23.393 23.2168H19.6806V19.7446C19.6875 19.4752 19.5988 19.2121 19.4305 19.0023C19.2621 18.7926 19.025 18.6498 18.7616 18.5995L16.9235 17.676H16.7581C16.4501 17.6856 16.1579 17.8154 15.9434 18.0377C15.729 18.2601 15.6091 18.5576 15.6093 18.8673V23.2168H14.8552C14.6056 23.2139 14.3588 23.2691 14.134 23.378C13.9091 23.4869 13.7125 23.6467 13.5593 23.8447C13.4158 24.0098 13.3101 24.2045 13.2498 24.4152C13.1894 24.6258 13.1759 24.8472 13.2101 25.0637C13.5166 27.2759 14.4305 29.3542 15.8436 31.0679C15.8123 31.1058 15.7818 31.1443 15.7521 31.1835C15.7343 31.1587 15.716 31.1341 15.6975 31.1097C15.2369 30.5037 14.5933 30.064 13.8631 29.8564C13.7744 29.8329 13.6819 29.8275 13.591 29.8405C13.5002 29.8534 13.4128 29.8844 13.3341 29.9317C13.2553 29.9791 13.1868 30.0417 13.1324 30.116C13.0781 30.1902 13.039 30.2747 13.0176 30.3643C12.9763 30.5455 13.0083 30.7358 13.1065 30.8933C13.2047 31.0509 13.3612 31.1628 13.5414 31.2046C13.9804 31.3281 14.3679 31.5908 14.6462 31.9536C14.8692 32.2444 15.0125 32.587 15.0641 32.9474C15.0554 33.0371 15.0503 33.1273 15.0486 33.2177C15.0374 33.316 15.0469 33.4156 15.0766 33.51C15.1063 33.6043 15.1556 33.6912 15.2211 33.7651C15.2866 33.839 15.3669 33.8981 15.4568 33.9385C15.5467 33.979 15.644 33.9999 15.7425 33.9999C15.841 33.9999 15.9383 33.979 16.0282 33.9385C16.118 33.8981 16.1984 33.839 16.2639 33.7651C16.3294 33.6912 16.3787 33.6043 16.4084 33.51C16.4381 33.4156 16.4476 33.316 16.4364 33.2177C16.4371 32.9242 16.4998 32.6342 16.6202 32.3668C16.7359 32.1098 16.9024 31.8792 17.1096 31.6891L17.1436 31.6664C17.6614 31.3212 18.2682 31.135 18.8897 31.1308C18.9391 31.1299 18.9884 31.1306 19.0376 31.1329C19.4449 31.1518 19.8415 31.2757 20.1888 31.4938C20.2467 31.5302 20.3029 31.569 20.3572 31.61C20.6766 31.8518 20.9306 32.1713 21.0946 32.5395C21.1679 32.7591 21.2146 32.9869 21.2337 33.2177C21.2325 33.3095 21.2494 33.4005 21.2835 33.4856C21.3176 33.5707 21.3682 33.6482 21.4323 33.7135C21.4964 33.7788 21.5728 33.8306 21.657 33.866C21.7413 33.9014 21.8317 33.9196 21.923 33.9196C21.9407 33.9196 21.9584 33.9189 21.976 33.9176C21.9899 33.9251 22.0042 33.9321 22.0187 33.9386C22.1085 33.9791 22.2059 34 22.3044 34C22.4028 34 22.5002 33.9791 22.5901 33.9386C22.6799 33.8981 22.7602 33.839 22.8258 33.7652C22.8913 33.6913 22.9405 33.6044 22.9703 33.51C23 33.4157 23.0095 33.3161 22.9982 33.2178C23.0114 32.9944 23.0547 32.7739 23.1269 32.5622C23.3783 32.1024 23.7545 31.7237 24.2117 31.4703C24.6688 31.217 25.1882 31.0992 25.7094 31.1308L25.7274 31.1297C26.2439 31.1002 26.7583 31.2173 27.2119 31.4678C27.6683 31.7198 28.0442 32.0966 28.2963 32.5544C28.3704 32.7683 28.4153 32.9913 28.4297 33.2174L28.4297 33.2178C28.4296 33.3331 28.4579 33.4456 28.5106 33.5458C28.5422 33.6059 28.5826 33.6616 28.631 33.7108L28.631 33.7108C28.6674 33.7479 28.7075 33.7805 28.7504 33.8082C28.8596 33.8788 28.9871 33.9179 29.119 33.9196C29.301 33.9148 29.474 33.8388 29.601 33.7077C29.728 33.5766 29.7991 33.4008 29.799 33.2178C29.7953 33.1317 29.7887 33.0458 29.7793 32.9602C29.7813 32.947 29.7834 32.9337 29.7857 32.9205L29.9456 32.5991C30.0591 32.3041 30.242 32.0411 30.4786 31.8326L30.5751 31.6911C31.044 31.3792 31.5844 31.1894 32.1473 31.1407C32.7908 31.085 33.4367 31.2162 34.0082 31.5186C34.172 31.5962 34.3594 31.6068 34.5308 31.5483C34.7023 31.4897 34.8444 31.3665 34.9272 31.2046C34.9679 31.1235 34.9921 31.0351 34.9984 30.9445C35.0046 30.8539 34.9929 30.763 34.9638 30.677C34.9347 30.591 34.8889 30.5118 34.8289 30.4438C34.769 30.3758 34.6962 30.3205 34.6147 30.2812C33.8175 29.8663 32.9195 29.6868 32.0249 29.7636C31.9757 29.7678 31.9267 29.7728 31.8778 29.7786L34.7246 25.5993L34.7797 25.5162C34.8877 25.2844 34.9351 25.0288 34.9174 24.7735C34.8997 24.5182 34.8175 24.2716 34.6786 24.0571C34.5276 23.8067 34.3163 23.5984 34.0641 23.4516C33.812 23.3047 33.5271 23.224 33.2357 23.2168H33.0069C33.0326 23.1175 33.0448 23.015 33.0432 22.912V19.763C33.0469 19.61 33.0198 19.4577 32.9635 19.3155C32.9072 19.1732 32.8229 19.0439 32.7156 18.9352C32.6083 18.8265 32.4802 18.7407 32.3391 18.6831C32.198 18.6254 32.0467 18.5969 31.8944 18.5995H30.6818C30.7075 18.5001 30.7198 18.3975 30.7181 18.2944V15.1639C30.7219 15.0101 30.6945 14.8571 30.6377 14.7142C30.5808 14.5713 30.4956 14.4415 30.3874 14.3327C30.2791 14.2239 30.1499 14.1383 30.0077 14.0812C29.8655 14.024 29.7132 13.9965 29.5601 14.0003H26.509C26.2345 14.0017 25.968 14.0924 25.7492 14.2589C25.5305 14.4254 25.3714 14.6587 25.2958 14.9238V18.2944ZM16.7124 24.6389H14.8552C14.7754 24.6405 14.6994 24.6737 14.6438 24.7312C14.6341 24.7498 14.6291 24.7703 14.6291 24.7913C14.6291 24.8122 14.6341 24.8328 14.6438 24.8513C14.8987 26.8207 15.7087 28.6759 16.9781 30.1981C17.5719 29.9099 18.2212 29.7555 18.8805 29.7456C19.5262 29.7408 20.1624 29.9021 20.7286 30.214C21.2949 30.526 21.7723 30.9783 22.1155 31.5279C22.2971 31.2779 22.5043 31.0493 22.7331 30.8455C22.9444 30.6481 23.1769 30.4727 23.4272 30.3229C24.1183 29.9092 24.915 29.7085 25.7186 29.7456C26.5093 29.7146 27.2922 29.9133 27.9735 30.3178C28.1183 30.4038 28.2572 30.4983 28.3896 30.6007C28.6389 30.7825 28.869 30.9907 29.0759 31.2222C29.2182 31.0369 29.3804 30.8668 29.5601 30.7152C29.5941 30.6893 29.6285 30.6638 29.6632 30.6388L33.6033 24.9252C33.5955 24.871 33.5733 24.82 33.539 24.7774C33.511 24.7388 33.4753 24.7066 33.4341 24.6827C33.393 24.6588 33.3473 24.6439 33.3001 24.6389H16.7667C16.7486 24.6393 16.7305 24.6393 16.7124 24.6389ZM26.656 18.0635H29.3304V15.3763H26.6744L26.656 18.0635ZM28.9811 22.6811H31.6554V19.9939H28.9811V22.6811ZM27.4187 22.6811H24.7352V19.9939H27.4187V22.6811ZM18.3664 23.2168H16.9878V19.2736L18.3664 19.9754V23.2168Z" fill="#0171A1"/>
</svg>
