<svg width="24" height="24" viewBox="0 0 24 24" fill="none" xmlns="http://www.w3.org/2000/svg">
<path d="M9.66667 0C15.0054 0 19.3333 4.32791 19.3333 9.66667C19.3333 11.9758 18.5237 14.0959 17.1727 15.7584L23.7071 22.2929C24.0976 22.6834 24.0976 23.3166 23.7071 23.7071C23.3521 24.0621 22.7965 24.0944 22.4051 23.8039L22.2929 23.7071L15.7584 17.1727C14.0959 18.5237 11.9758 19.3333 9.66667 19.3333C4.32791 19.3333 0 15.0054 0 9.66667C0 4.32791 4.32791 0 9.66667 0ZM9.66667 2C5.43248 2 2 5.43248 2 9.66667C2 13.9009 5.43248 17.3333 9.66667 17.3333C13.9009 17.3333 17.3333 13.9009 17.3333 9.66667C17.3333 5.43248 13.9009 2 9.66667 2Z" fill="#819FB2"/>
</svg>
