<svg width="20" height="20" viewBox="0 0 20 20" fill="none" xmlns="http://www.w3.org/2000/svg">
<path d="M10.009 1.66669C10.6297 1.67392 11.2479 1.7464 11.8537 1.88296C12.1182 1.94257 12.316 2.16542 12.346 2.4376L12.4899 3.7426C12.5551 4.34179 13.0556 4.79562 13.6523 4.79625C13.8127 4.79651 13.9714 4.76274 14.1196 4.69647L15.304 4.17059C15.5503 4.06122 15.8381 4.12085 16.022 4.31936C16.878 5.24331 17.5154 6.35144 17.8864 7.56036C17.9664 7.82104 17.8744 8.10434 17.657 8.26628L16.6072 9.04841C16.3077 9.2708 16.1308 9.62398 16.1308 9.99958C16.1308 10.3752 16.3077 10.7284 16.6078 10.9512L17.6586 11.7336C17.876 11.8955 17.9681 12.1789 17.8881 12.4396C17.5173 13.6483 16.8802 14.7564 16.0247 15.6805C15.841 15.879 15.5534 15.9387 15.3071 15.8297L14.1179 15.3031C13.7777 15.1526 13.3869 15.1746 13.0654 15.3624C12.7439 15.5502 12.5299 15.8814 12.489 16.2545L12.346 17.5594C12.3166 17.8285 12.123 18.0498 11.8625 18.1124C10.6376 18.407 9.36149 18.407 8.13664 18.1124C7.87608 18.0498 7.68255 17.8285 7.65307 17.5594L7.51031 16.2565C7.46838 15.8841 7.25407 15.5539 6.9328 15.3667C6.61153 15.1795 6.22144 15.1576 5.88234 15.3072L4.69286 15.8339C4.44648 15.943 4.15881 15.8832 3.9751 15.6846C3.11919 14.7594 2.48206 13.6501 2.11169 12.44C2.03191 12.1794 2.12408 11.8963 2.3414 11.7345L3.39279 10.9516C3.69226 10.7292 3.86913 10.376 3.86913 10.0004C3.86913 9.62483 3.69226 9.27166 3.3924 9.04897L2.34166 8.26743C2.12403 8.10555 2.03177 7.82207 2.11183 7.56122C2.48285 6.3523 3.1203 5.24417 3.97623 4.32021C4.16013 4.1217 4.44793 4.06207 4.69427 4.17145L5.87847 4.69723C6.21921 4.84837 6.61093 4.82554 6.93394 4.63481C7.25555 4.44626 7.46966 4.11475 7.51099 3.7416L7.65481 2.4376C7.68485 2.16528 7.88281 1.94236 8.14744 1.88288C8.75399 1.74653 9.37288 1.67408 10.009 1.66669ZM10.0091 2.94865C9.62519 2.95322 9.24232 2.98671 8.86371 3.04876L8.77159 3.88394C8.68548 4.66129 8.23981 5.35133 7.57209 5.74279C6.90028 6.1395 6.0812 6.18723 5.36852 5.87112L4.6089 5.53384C4.12526 6.12715 3.74031 6.79606 3.46919 7.51429L4.14383 8.0161C4.76859 8.48005 5.13757 9.21685 5.13757 10.0004C5.13757 10.784 4.76859 11.5208 4.14449 11.9843L3.46879 12.4874C3.73968 13.2069 4.12468 13.8771 4.60866 14.4715L5.37406 14.1326C6.08278 13.8198 6.89628 13.8656 7.56626 14.256C8.23624 14.6463 8.68317 15.3349 8.77083 16.1134L8.86297 16.9543C9.61528 17.0836 10.3838 17.0836 11.1361 16.9543L11.2283 16.1134C11.3135 15.3351 11.7599 14.6442 12.4307 14.2524C13.1015 13.8606 13.9166 13.8146 14.6266 14.1286L15.3914 14.4673C15.875 13.8738 16.2598 13.2047 16.5309 12.4864L15.8561 11.9839C15.2314 11.52 14.8624 10.7832 14.8624 9.99958C14.8624 9.216 15.2314 8.4792 15.8553 8.01583L16.5292 7.51379C16.2581 6.79543 15.8731 6.12639 15.3894 5.53299L14.6313 5.86958C14.3223 6.00773 13.9882 6.07884 13.6507 6.07831C12.4079 6.07699 11.3648 5.13127 11.2292 3.88364L11.1371 3.04848C10.7603 2.98652 10.3814 2.95312 10.0091 2.94865ZM9.99843 6.79486C11.7498 6.79486 13.1695 8.22985 13.1695 10C13.1695 11.7701 11.7498 13.2051 9.99843 13.2051C8.24708 13.2051 6.82733 11.7701 6.82733 10C6.82733 8.22985 8.24708 6.79486 9.99843 6.79486ZM9.99843 8.07692C8.94762 8.07692 8.09577 8.93791 8.09577 10C8.09577 11.0621 8.94762 11.9231 9.99843 11.9231C11.0492 11.9231 11.9011 11.0621 11.9011 10C11.9011 8.93791 11.0492 8.07692 9.99843 8.07692Z" fill="white"/>
</svg>
