<svg width="18" height="18" viewBox="0 0 18 18" fill="none" xmlns="http://www.w3.org/2000/svg">
<path d="M12.8562 15.2402H12.2547L12.1277 14.9216C11.9443 14.5756 11.6697 14.2909 11.3359 14.1008C11.0021 13.9107 10.623 13.823 10.2428 13.8481C9.8638 13.8244 9.48607 13.9127 9.15358 14.1027C8.82109 14.2928 8.54751 14.5767 8.36467 14.9216L8.23099 15.2402H7.0279L6.89423 14.9216C6.75819 14.5977 6.53257 14.3229 6.24587 14.1318C5.95917 13.9407 5.62425 13.842 5.28342 13.8481C4.83144 13.8513 4.39014 13.9909 4.01349 14.2498L3.65256 14.4991L3.35847 14.1459C2.16534 12.7993 1.39602 11.1083 1.15281 9.29775C1.12792 9.13539 1.13777 8.96935 1.18166 8.81137C1.22555 8.65339 1.30241 8.50733 1.40679 8.38353C1.51817 8.23501 1.6612 8.11521 1.82469 8.0335C1.98819 7.9518 2.16771 7.91041 2.34921 7.91257H15.7169C15.9288 7.91797 16.136 7.97852 16.3193 8.08866C16.5027 8.1988 16.6564 8.35499 16.7663 8.54283C16.8673 8.70371 16.927 8.88863 16.9399 9.0801C16.9528 9.27158 16.9183 9.46329 16.8398 9.63712L16.7997 9.69946L13.7117 14.3744C13.5396 14.5308 13.4066 14.728 13.3241 14.9493L13.1837 15.2402H12.8562ZM5.27674 12.8092C5.74635 12.8056 6.20904 12.9266 6.62083 13.1605C7.03262 13.3945 7.37983 13.7337 7.62945 14.1459C7.92831 13.7217 8.32256 13.3795 8.77798 13.149C9.2334 12.9184 9.73623 12.8066 10.2428 12.823C10.7092 12.8107 11.1725 12.9049 11.5999 13.0988C12.0273 13.2926 12.4082 13.5816 12.7159 13.945C12.8132 13.8161 12.9229 13.6977 13.0434 13.5918L15.9842 9.19386C15.9785 9.15324 15.9624 9.11496 15.9375 9.08305C15.9171 9.05411 15.8911 9.02992 15.8612 9.01202C15.8313 8.99413 15.798 8.98294 15.7637 8.97916H2.34921C2.29117 8.98038 2.23594 9.00527 2.19549 9.04842C2.18846 9.06231 2.18479 9.07776 2.18479 9.09344C2.18479 9.10912 2.18846 9.12457 2.19549 9.13846C2.38089 10.6155 2.96993 12.0069 3.89318 13.1486C4.32504 12.9325 4.79721 12.8166 5.27674 12.8092Z" fill="#6D858F"/>
<path d="M3.01794 15.9397C2.88438 15.9379 2.75689 15.8816 2.66306 15.7831C2.56924 15.6846 2.51664 15.5518 2.51665 15.4133C2.51162 15.0699 2.39956 14.7373 2.1972 14.4652C1.99484 14.1931 1.71302 13.9961 1.39377 13.9035C1.26266 13.8722 1.14891 13.7882 1.07748 13.67C1.00605 13.5519 0.982788 13.4092 1.01279 13.2732C1.02839 13.206 1.05678 13.1427 1.09631 13.087C1.13583 13.0313 1.18569 12.9843 1.24297 12.9488C1.30024 12.9133 1.36377 12.8901 1.42983 12.8804C1.4959 12.8707 1.56317 12.8747 1.6277 12.8923C2.15876 13.048 2.62684 13.3778 2.96182 13.8323C3.2968 14.2868 3.48065 14.8415 3.48581 15.4133C3.48621 15.546 3.43823 15.674 3.35148 15.7716C3.26472 15.8692 3.1456 15.9292 3.01794 15.9397Z" fill="#6D858F"/>
<path d="M7.48943 15.9397C7.42303 15.9397 7.35729 15.926 7.29604 15.8995C7.23478 15.873 7.17922 15.8341 7.13258 15.7851C7.08594 15.7361 7.04916 15.678 7.02436 15.6142C6.99957 15.5504 6.98725 15.4821 6.98814 15.4133C6.97372 15.2339 6.9378 15.0571 6.8812 14.8869C6.7399 14.5712 6.51302 14.3048 6.22819 14.1204C5.94336 13.9359 5.6129 13.8413 5.27708 13.8481C4.82509 13.8513 4.3838 13.9908 4.00715 14.2498C3.84797 14.3955 3.72041 14.5746 3.63285 14.7751C3.54529 14.9757 3.49974 15.1932 3.49917 15.4133C3.50738 15.487 3.50044 15.5617 3.47882 15.6325C3.45721 15.7032 3.4214 15.7684 3.37374 15.8238C3.32609 15.8792 3.26767 15.9236 3.20232 15.9539C3.13697 15.9843 3.06616 16 2.99454 16C2.92293 16 2.85212 15.9843 2.78677 15.9539C2.72142 15.9236 2.663 15.8792 2.61534 15.8238C2.56769 15.7684 2.53188 15.7032 2.51026 15.6325C2.48865 15.5617 2.48171 15.487 2.48991 15.4133C2.49654 15.0374 2.58185 14.6675 2.73994 14.3291C2.89804 13.9906 3.12516 13.6918 3.4056 13.4533C3.95654 13.0607 4.60846 12.8484 5.27708 12.8438C5.8164 12.8359 6.34582 12.9943 6.79806 13.2989C7.2503 13.6035 7.60495 14.0406 7.81694 14.5545C7.91845 14.8414 7.97705 15.1427 7.99071 15.4479C7.98386 15.5809 7.92804 15.706 7.83476 15.7975C7.74149 15.889 7.61787 15.9399 7.48943 15.9397Z" fill="#6D858F"/>
<path d="M12.7228 15.9397C12.5893 15.9379 12.4618 15.8816 12.368 15.7831C12.2741 15.6846 12.2215 15.5518 12.2215 15.4134C12.2105 15.2335 12.1745 15.0562 12.1146 14.887C11.9278 14.5497 11.6533 14.2735 11.3224 14.0898C10.9916 13.9062 10.6176 13.8224 10.2431 13.8481C9.8641 13.8244 9.48636 13.9127 9.15387 14.1028C8.82138 14.2928 8.54781 14.5768 8.36496 14.9216C8.31246 15.0804 8.28098 15.2458 8.27139 15.4134C8.27959 15.4871 8.27266 15.5618 8.25104 15.6325C8.22942 15.7033 8.19361 15.7685 8.14596 15.8239C8.09831 15.8793 8.03989 15.9236 7.97454 15.954C7.90918 15.9843 7.83838 16 7.76676 16C7.69514 16 7.62434 15.9843 7.55898 15.954C7.49363 15.9236 7.43521 15.8793 7.38756 15.8239C7.33991 15.7685 7.3041 15.7033 7.28248 15.6325C7.26086 15.5618 7.25393 15.4871 7.26213 15.4134C7.27471 15.1205 7.32876 14.8311 7.42254 14.5545C7.67714 14.0087 8.08077 13.5524 8.58336 13.2421C9.08596 12.9319 9.6654 12.7813 10.2498 12.8092C10.8249 12.786 11.3943 12.935 11.8898 13.2384C12.3853 13.5418 12.7859 13.9867 13.0437 14.5199C13.1458 14.8066 13.2044 15.108 13.2174 15.4134C13.2175 15.5506 13.1658 15.6824 13.0734 15.7807C12.981 15.8791 12.8552 15.9361 12.7228 15.9397Z" fill="#6D858F"/>
<path d="M12.7228 15.9397C12.5893 15.9379 12.4618 15.8816 12.368 15.7831C12.2741 15.6846 12.2215 15.5518 12.2216 15.4133C12.2313 15.1207 12.2831 14.8313 12.3753 14.5545V14.4853C12.5206 14.1175 12.75 13.7919 13.0437 13.5364C13.5641 13.1278 14.1857 12.8803 14.8363 12.8227C15.4869 12.7651 16.14 12.8997 16.7198 13.2109C16.779 13.2404 16.832 13.2819 16.8756 13.3329C16.9192 13.3838 16.9525 13.4433 16.9737 13.5078C16.9948 13.5723 17.0034 13.6405 16.9988 13.7084C16.9942 13.7764 16.9766 13.8427 16.947 13.9035C16.8868 14.0249 16.7835 14.1173 16.6588 14.1612C16.5341 14.2051 16.3978 14.1972 16.2786 14.139C15.863 13.9122 15.3933 13.8138 14.9253 13.8555C14.4572 13.8973 14.0106 14.0774 13.6385 14.3745C13.4734 14.5316 13.3454 14.7259 13.2642 14.9424C13.2199 15.0932 13.193 15.249 13.184 15.4064C13.1863 15.5392 13.14 15.6679 13.0544 15.7668C12.9689 15.8658 12.8505 15.9275 12.7228 15.9397Z" fill="#6D858F"/>
<path d="M14.7414 8.54975H12.4555C12.345 8.5526 12.2351 8.53216 12.1325 8.48966C12.0299 8.44716 11.9367 8.38349 11.8586 8.30253C11.7804 8.22156 11.719 8.12498 11.678 8.01866C11.637 7.91233 11.6173 7.79848 11.62 7.68401V5.32227C11.634 5.09675 11.7263 4.88411 11.8799 4.72368C12.0335 4.56324 12.238 4.46589 12.4555 4.44961H14.7414C14.8521 4.44771 14.9622 4.46903 15.0648 4.5123C15.1674 4.55558 15.2606 4.6199 15.3386 4.70141C15.4166 4.78292 15.478 4.87994 15.5189 4.98663C15.5599 5.09332 15.5796 5.20749 15.5768 5.32227V7.68401C15.5786 7.79822 15.5583 7.91163 15.5169 8.01752C15.4756 8.1234 15.4141 8.21958 15.3362 8.30035C15.2582 8.38112 15.1654 8.44482 15.0632 8.48766C14.961 8.53051 14.8516 8.55162 14.7414 8.54975ZM12.6226 7.51086H14.5676V5.49542H12.6226V7.51086Z" fill="#6D858F"/>
<path d="M11.6534 8.54975H9.36757C9.25736 8.55162 9.1479 8.53051 9.04572 8.48766C8.94354 8.44482 8.85072 8.38112 8.77277 8.30035C8.69483 8.21958 8.63336 8.1234 8.59201 8.01752C8.55066 7.91164 8.53029 7.79822 8.53209 7.68401V5.32228C8.53549 5.09312 8.6244 4.87423 8.78017 4.71153C8.93594 4.54882 9.14646 4.45495 9.36757 4.44961H11.6534C11.7642 4.44771 11.8743 4.46903 11.9769 4.5123C12.0795 4.55558 12.1727 4.6199 12.2507 4.70141C12.3287 4.78292 12.3901 4.87994 12.431 4.98663C12.4719 5.09332 12.4916 5.20749 12.4889 5.32228V7.68401C12.4907 7.79822 12.4704 7.91164 12.429 8.01752C12.3877 8.1234 12.3262 8.21958 12.2482 8.30035C12.1703 8.38112 12.0775 8.44482 11.9753 8.48766C11.8731 8.53051 11.7637 8.55162 11.6534 8.54975ZM9.53467 7.51086H11.4864V5.49542H9.53467V7.51086Z" fill="#6D858F"/>
<path d="M13.0437 5.08655H10.7779C10.6674 5.0894 10.5575 5.06895 10.4549 5.02646C10.3523 4.98396 10.2591 4.92029 10.181 4.83933C10.1028 4.75836 10.0414 4.66178 10.0004 4.55546C9.95937 4.44913 9.93964 4.33528 9.94239 4.22081V1.69285C9.99734 1.49404 10.113 1.31906 10.2721 1.19418C10.4312 1.0693 10.6251 1.00126 10.8247 1.00026H13.0437C13.155 0.99741 13.2658 1.01803 13.3692 1.06088C13.4726 1.10373 13.5666 1.1679 13.6453 1.24951C13.7241 1.33112 13.786 1.42846 13.8274 1.53563C13.8687 1.64279 13.8886 1.75755 13.8859 1.87292V4.22081C13.8877 4.33561 13.8671 4.44961 13.8254 4.55596C13.7836 4.66232 13.7215 4.75882 13.6429 4.83969C13.5642 4.92055 13.4706 4.9841 13.3676 5.02652C13.2646 5.06895 13.1545 5.08936 13.0437 5.08655ZM10.9316 4.04766H12.8766V2.03222H10.945L10.9316 4.04766Z" fill="#6D858F"/>
<path d="M5.07663 8.97915H3.73986C3.62909 8.98197 3.51891 8.96155 3.41595 8.91913C3.31298 8.87671 3.21936 8.81316 3.14069 8.73229C3.06203 8.65143 2.99996 8.55492 2.9582 8.44857C2.91644 8.34222 2.89586 8.22822 2.8977 8.11342V4.65046C2.89759 4.41823 2.98475 4.19508 3.14071 4.0283C3.29667 3.86152 3.50917 3.76422 3.73318 3.75702H3.85348L5.19025 4.44961C5.38187 4.48734 5.5543 4.59443 5.67674 4.75175C5.79918 4.90907 5.86365 5.10638 5.85864 5.30842V8.07879C5.86494 8.19125 5.84966 8.3039 5.81367 8.4102C5.77769 8.51651 5.72171 8.61436 5.64898 8.6981C5.57625 8.78183 5.48822 8.84979 5.38997 8.89803C5.29173 8.94628 5.18523 8.97385 5.07663 8.97915ZM3.90027 7.91256H4.90285V5.48157L3.90027 4.9552V7.91256Z" fill="#6D858F"/>
</svg>
