<svg width="16" height="10" viewBox="0 0 16 10" fill="none" xmlns="http://www.w3.org/2000/svg">
<path fill-rule="evenodd" clip-rule="evenodd" d="M6.9487 0H2.69054C2.4144 0 2.19054 0.223858 2.19054 0.5V1.2647C2.19054 1.54084 2.4144 1.7647 2.69054 1.7647H6.9487C7.22484 1.7647 7.4487 1.54084 7.4487 1.2647V0.5C7.4487 0.223858 7.22484 0 6.9487 0ZM8.58572 3.44116C8.58572 3.16502 8.36187 2.94116 8.08572 2.94116H1.52198C1.24583 2.94116 1.02198 3.16502 1.02198 3.44116V4.20586C1.02198 4.482 1.24583 4.70586 1.52198 4.70586H8.08572C8.36187 4.70586 8.58572 4.482 8.58572 4.20586V3.44116ZM11.7717 3.69238L10.0774 5.85398H0.500265C0.172905 5.85398 -0.0661467 6.16334 0.016434 6.48011L0.836584 9.62613C0.89399 9.84634 1.09285 10 1.32041 10H13.5824C13.793 10 13.9811 9.86799 14.0526 9.66988L15.9699 4.36225C16.0877 4.03633 15.8462 3.69238 15.4997 3.69238H11.7717ZM3.35902 7.64713C3.35902 7.972 3.09745 8.23536 2.77478 8.23536C2.45211 8.23536 2.19054 7.972 2.19054 7.64713C2.19054 7.32226 2.45211 7.0589 2.77478 7.0589C3.09745 7.0589 3.35902 7.32226 3.35902 7.64713ZM6.28036 8.23536C6.60303 8.23536 6.8646 7.972 6.8646 7.64713C6.8646 7.32226 6.60303 7.0589 6.28036 7.0589C5.95769 7.0589 5.69612 7.32226 5.69612 7.64713C5.69612 7.972 5.95769 8.23536 6.28036 8.23536ZM10.3699 7.64713C10.3699 7.972 10.1084 8.23536 9.78569 8.23536C9.46303 8.23536 9.20145 7.972 9.20145 7.64713C9.20145 7.32226 9.46303 7.0589 9.78569 7.0589C10.1084 7.0589 10.3699 7.32226 10.3699 7.64713Z" fill="#819FB2"/>
</svg>
