<svg width="24" height="24" viewBox="0 0 24 24" fill="none" xmlns="http://www.w3.org/2000/svg">
<g clip-path="url(#clip0)">
<path d="M17.7843 21.8856H16.882L16.6915 21.4183C16.4165 20.9109 16.0045 20.4934 15.5038 20.2145C15.0031 19.9357 14.4344 19.8071 13.8642 19.8438C13.2957 19.8091 12.7291 19.9386 12.2304 20.2173C11.7316 20.4961 11.3213 20.9126 11.047 21.4183L10.8465 21.8856H9.04184L8.84133 21.4183C8.63727 20.9433 8.29885 20.5402 7.86879 20.26C7.43874 19.9797 6.93637 19.8349 6.42512 19.8438C5.74715 19.8485 5.08521 20.0533 4.52023 20.433L3.97884 20.7987L3.53771 20.2806C1.748 18.3057 0.594024 15.8256 0.229211 13.17C0.191884 12.9319 0.20666 12.6884 0.272494 12.4567C0.338328 12.225 0.453612 12.0107 0.61019 11.8292C0.777248 11.6113 0.991794 11.4356 1.23704 11.3158C1.48228 11.196 1.75157 11.1353 2.02382 11.1384H22.0753C22.3932 11.1463 22.7039 11.2352 22.979 11.3967C23.2541 11.5582 23.4846 11.7873 23.6494 12.0628C23.8009 12.2988 23.8905 12.57 23.9098 12.8508C23.9291 13.1316 23.8774 13.4128 23.7596 13.6678L23.6995 13.7592L19.0676 20.6159C18.8094 20.8452 18.6099 21.1345 18.4861 21.459L18.2756 21.8856H17.7843ZM6.4151 18.3201C7.11952 18.3149 7.81355 18.4923 8.43124 18.8354C9.04892 19.1786 9.56973 19.6761 9.94416 20.2806C10.3924 19.6585 10.9838 19.1566 11.6669 18.8185C12.3501 18.4804 13.1043 18.3163 13.8642 18.3405C14.5638 18.3224 15.2588 18.4605 15.8998 18.7448C16.5409 19.0292 17.1123 19.453 17.5738 19.9861C17.7197 19.7969 17.8843 19.6233 18.065 19.468L22.4763 13.0177C22.4678 12.9581 22.4435 12.9019 22.4062 12.8551C22.3756 12.8127 22.3367 12.7772 22.2918 12.751C22.2469 12.7247 22.197 12.7083 22.1455 12.7028H2.02382C1.93676 12.7046 1.8539 12.7411 1.79323 12.8043C1.78269 12.8247 1.77718 12.8474 1.77718 12.8704C1.77718 12.8934 1.78269 12.916 1.79323 12.9364C2.07134 15.1028 2.9549 17.1434 4.33977 18.8179C4.98755 18.5009 5.69581 18.3311 6.4151 18.3201Z" fill="white"/>
<path d="M3.02691 22.9115C2.82657 22.9089 2.63533 22.8264 2.49459 22.6819C2.35386 22.5374 2.27496 22.3425 2.27498 22.1395C2.26743 21.6358 2.09934 21.148 1.7958 20.7489C1.49226 20.3498 1.06953 20.0608 0.590652 19.9251C0.393987 19.8791 0.22336 19.756 0.11622 19.5827C0.00908064 19.4094 -0.0258178 19.2001 0.0191846 19.0007C0.0425827 18.9021 0.0851741 18.8092 0.144462 18.7275C0.203749 18.6458 0.278539 18.5769 0.364448 18.5249C0.450356 18.4729 0.545653 18.4387 0.644752 18.4245C0.743851 18.4103 0.844756 18.4162 0.941554 18.442C1.73814 18.6703 2.44026 19.154 2.94273 19.8206C3.4452 20.4872 3.72096 21.3008 3.72871 22.1395C3.72931 22.3342 3.65734 22.5218 3.52721 22.665C3.39708 22.8081 3.21839 22.8962 3.02691 22.9115Z" fill="white"/>
<path d="M9.73413 22.9115C9.63454 22.9115 9.53593 22.8915 9.44405 22.8526C9.35216 22.8137 9.26882 22.7566 9.19886 22.6848C9.1289 22.613 9.07373 22.5278 9.03653 22.4342C8.99934 22.3406 8.98087 22.2404 8.9822 22.1395C8.96057 21.8764 8.90668 21.6171 8.82179 21.3675C8.60985 20.9044 8.26952 20.5138 7.84228 20.2432C7.41503 19.9727 6.91934 19.8339 6.41561 19.8438C5.73763 19.8485 5.07569 20.0532 4.51072 20.433C4.27196 20.6468 4.08061 20.9094 3.94927 21.2035C3.81794 21.4977 3.7496 21.8167 3.74876 22.1395C3.76106 22.2476 3.75066 22.3572 3.71823 22.461C3.68581 22.5647 3.63209 22.6604 3.56061 22.7416C3.48914 22.8229 3.40151 22.8879 3.30348 22.9324C3.20545 22.9769 3.09924 22.9999 2.99182 22.9999C2.88439 22.9999 2.77818 22.9769 2.68015 22.9324C2.58212 22.8879 2.4945 22.8229 2.42302 22.7416C2.35154 22.6604 2.29782 22.5647 2.2654 22.461C2.23297 22.3572 2.22257 22.2476 2.23487 22.1395C2.24481 21.5882 2.37277 21.0456 2.60991 20.5493C2.84706 20.0529 3.18773 19.6147 3.6084 19.2648C4.43481 18.689 5.41268 18.3776 6.41561 18.3709C7.2246 18.3593 8.01873 18.5917 8.69708 19.0384C9.37544 19.4852 9.90741 20.1261 10.2254 20.8799C10.3777 21.3007 10.4656 21.7426 10.4861 22.1903C10.4758 22.3852 10.3921 22.5687 10.2521 22.7029C10.1122 22.8371 9.9268 22.9118 9.73413 22.9115Z" fill="white"/>
<path d="M17.5842 22.9116C17.3839 22.9089 17.1927 22.8264 17.0519 22.6819C16.9112 22.5374 16.8323 22.3426 16.8323 22.1396C16.8157 21.8758 16.7617 21.6158 16.6719 21.3676C16.3916 20.8729 15.9799 20.4678 15.4837 20.1984C14.9874 19.929 14.4265 19.8062 13.8647 19.8439C13.2961 19.8091 12.7295 19.9386 12.2308 20.2174C11.7321 20.4961 11.3217 20.9126 11.0474 21.4184C10.9687 21.6512 10.9215 21.8939 10.9071 22.1396C10.9194 22.2477 10.909 22.3573 10.8766 22.461C10.8441 22.5648 10.7904 22.6604 10.7189 22.7417C10.6475 22.8229 10.5598 22.8879 10.4618 22.9325C10.3638 22.977 10.2576 23 10.1501 23C10.0427 23 9.9365 22.977 9.83848 22.9325C9.74045 22.8879 9.65282 22.8229 9.58134 22.7417C9.50986 22.6604 9.45615 22.5648 9.42372 22.461C9.3913 22.3573 9.38089 22.2477 9.3932 22.1396C9.41206 21.71 9.49314 21.2856 9.63381 20.88C10.0157 20.0795 10.6212 19.4102 11.375 18.9551C12.1289 18.5001 12.9981 18.2793 13.8747 18.3202C14.7373 18.2861 15.5914 18.5046 16.3346 18.9496C17.0779 19.3946 17.6788 20.0472 18.0655 20.8292C18.2187 21.2497 18.3066 21.6918 18.3261 22.1396C18.3262 22.3409 18.2487 22.5342 18.1101 22.6784C17.9715 22.8226 17.7828 22.9063 17.5842 22.9116Z" fill="white"/>
<path d="M17.5842 22.9115C17.3839 22.9089 17.1926 22.8264 17.0519 22.6819C16.9112 22.5374 16.8323 22.3425 16.8323 22.1395C16.8469 21.7104 16.9246 21.2859 17.0629 20.8799V20.7784C17.2808 20.239 17.6249 19.7614 18.0654 19.3867C18.8461 18.7874 19.7785 18.4245 20.7544 18.34C21.7303 18.2555 22.7099 18.4529 23.5796 18.9093C23.6684 18.9526 23.7479 19.0134 23.8133 19.0882C23.8787 19.1629 23.9287 19.2501 23.9604 19.3447C23.9922 19.4393 24.005 19.5393 23.9981 19.639C23.9913 19.7386 23.9649 19.8359 23.9205 19.9251C23.8302 20.1031 23.6751 20.2386 23.4881 20.3031C23.301 20.3675 23.0966 20.3558 22.9179 20.2705C22.2945 19.9378 21.5898 19.7935 20.8878 19.8547C20.1858 19.916 19.5159 20.1801 18.9577 20.6158C18.7101 20.8463 18.518 21.1312 18.3963 21.4488C18.3298 21.67 18.2894 21.8985 18.276 22.1294C18.2793 22.3241 18.2099 22.513 18.0816 22.658C17.9533 22.8031 17.7756 22.8936 17.5842 22.9115Z" fill="white"/>
<path d="M20.6121 12.0729H17.1833C17.0176 12.0771 16.8528 12.0471 16.6989 11.9848C16.5449 11.9225 16.4051 11.8291 16.2879 11.7104C16.1707 11.5916 16.0786 11.45 16.0171 11.294C15.9555 11.1381 15.9259 10.9711 15.9301 10.8032V7.33932C15.951 7.00855 16.0895 6.69667 16.3199 6.46137C16.5503 6.22607 16.857 6.08328 17.1833 6.05941H20.6121C20.7783 6.05662 20.9433 6.08789 21.0973 6.15136C21.2512 6.21482 21.3909 6.30916 21.508 6.42871C21.625 6.54826 21.717 6.69055 21.7784 6.84704C21.8398 7.00352 21.8694 7.17097 21.8653 7.33932V10.8032C21.868 10.9707 21.8375 11.137 21.7754 11.2923C21.7134 11.4476 21.6212 11.5887 21.5043 11.7072C21.3874 11.8256 21.2481 11.9191 21.0949 11.9819C20.9416 12.0447 20.7774 12.0757 20.6121 12.0729ZM17.4339 10.5492H20.3514V7.59327H17.4339V10.5492Z" fill="white"/>
<path d="M15.9802 12.073H12.5514C12.386 12.0757 12.2219 12.0447 12.0686 11.9819C11.9153 11.9191 11.7761 11.8256 11.6592 11.7072C11.5422 11.5887 11.45 11.4476 11.388 11.2923C11.326 11.137 11.2954 10.9707 11.2981 10.8032V7.33932C11.3032 7.00322 11.4366 6.68218 11.6702 6.44355C11.9039 6.20492 12.2197 6.06724 12.5514 6.05941H15.9802C16.1463 6.05662 16.3114 6.08789 16.4653 6.15136C16.6193 6.21482 16.759 6.30916 16.876 6.42871C16.9931 6.54826 17.0851 6.69055 17.1465 6.84704C17.2079 7.00352 17.2375 7.17097 17.2334 7.33932V10.8032C17.2361 10.9707 17.2055 11.137 17.1435 11.2923C17.0815 11.4476 16.9893 11.5887 16.8724 11.7072C16.7554 11.8256 16.6162 11.9191 16.4629 11.9819C16.3097 12.0447 16.1455 12.0757 15.9802 12.073ZM12.802 10.5492H15.7295V7.59327H12.802V10.5492Z" fill="white"/>
<path d="M18.0655 6.99358H14.6668C14.5011 6.99776 14.3363 6.96778 14.1824 6.90545C14.0285 6.84311 13.8887 6.74974 13.7715 6.63099C13.6543 6.51224 13.5621 6.37059 13.5006 6.21464C13.4391 6.0587 13.4095 5.89171 13.4136 5.72383V2.01615C13.496 1.72456 13.6696 1.46793 13.9082 1.28477C14.1468 1.10161 14.4376 1.00181 14.737 1.00035H18.0655C18.2326 0.99617 18.3987 1.02642 18.5538 1.08926C18.7089 1.1521 18.8498 1.24623 18.968 1.36592C19.0861 1.48561 19.179 1.62838 19.241 1.78556C19.3031 1.94273 19.3329 2.11104 19.3288 2.28026V5.72383C19.3315 5.8922 19.3007 6.05941 19.238 6.21539C19.1754 6.37137 19.0823 6.51292 18.9643 6.63152C18.8463 6.75012 18.7059 6.84333 18.5514 6.90555C18.397 6.96777 18.2317 6.99771 18.0655 6.99358ZM14.8974 5.46988H17.8149V2.51389H14.9174L14.8974 5.46988Z" fill="white"/>
<path d="M6.11488 12.7028H4.10973C3.94357 12.7069 3.7783 12.6769 3.62386 12.6147C3.46941 12.5525 3.32897 12.4593 3.21098 12.3407C3.09299 12.2221 2.99988 12.0805 2.93724 11.9246C2.8746 11.7686 2.84373 11.6014 2.84648 11.433V6.35399C2.84632 6.01338 2.97706 5.6861 3.211 5.44149C3.44494 5.19688 3.76369 5.05417 4.0997 5.04361H4.28016L6.28531 6.05941C6.57274 6.11474 6.83138 6.27181 7.01504 6.50255C7.1987 6.73329 7.29541 7.02268 7.28789 7.319V11.3822C7.29735 11.5472 7.27443 11.7124 7.22045 11.8683C7.16647 12.0242 7.0825 12.1677 6.9734 12.2905C6.86431 12.4133 6.73226 12.513 6.58489 12.5838C6.43753 12.6545 6.27777 12.695 6.11488 12.7028ZM4.35035 11.1384H5.85421V7.57295L4.35035 6.80095V11.1384Z" fill="white"/>
</g>
<defs>
<clipPath id="clip0">
<rect width="24" height="24" fill="white"/>
</clipPath>
</defs>
</svg>
