<svg width="72" height="20" viewBox="0 0 72 20" fill="none" xmlns="http://www.w3.org/2000/svg">
<g clip-path="url(#clip0_5274:13944)">
<path fill-rule="evenodd" clip-rule="evenodd" d="M10.2676 1.08415L0 6.21795L9.23077 6.98718L20 1.60257L11.3281 0.87991C10.9626 0.849448 10.5957 0.920103 10.2676 1.08415ZM9.2308 7.75641L20 2.37179V11.905C20 12.6625 19.572 13.355 18.8945 13.6938L9.2308 18.5256V7.75641ZM10.7692 8.52565L11.5384 8.14104V15.8333L10.7692 16.218V8.52565ZM13.8462 6.98718L13.077 7.3718V15.0641L13.8462 14.6795V6.98718ZM15.3846 6.21795L16.1539 5.83334V13.5256L15.3846 13.9103V6.21795ZM18.4616 4.67949L17.6924 5.06411V12.7564L18.4616 12.3718V4.67949ZM8.46154 7.75641L0 6.98718V15.93C0 16.9644 0.78877 17.8281 1.81893 17.9218L8.46154 18.5256V7.75641ZM4.6154 9.29488H3.84617V16.218H4.6154V9.29488Z" fill="#819FB2"/>
<path opacity="0.7" fill-rule="evenodd" clip-rule="evenodd" d="M10.2676 1.08415L5.38464 3.52564L14.6154 4.29488L20 1.60257L11.3282 0.87991C10.9626 0.849448 10.5957 0.920103 10.2676 1.08415ZM20.0001 2.37179L14.6154 5.0641V15.8333L18.8945 13.6938C19.572 13.355 20.0001 12.6625 20.0001 11.905V2.37179ZM16.1539 5.83334L15.3846 6.21795V13.9103L16.1539 13.5256V5.83334ZM17.6924 5.06411L18.4616 4.67949V12.3718L17.6924 12.7564V5.06411Z" fill="white"/>
</g>
<defs>
<clipPath id="clip0_5274:13944">
<rect width="20" height="20" fill="white"/>
</clipPath>
</defs>
</svg>
