<svg width="24" height="24" viewBox="0 0 24 24" fill="none" xmlns="http://www.w3.org/2000/svg">
<path fill-rule="evenodd" clip-rule="evenodd" d="M22.3201 16.5517C23.2479 16.5517 24 17.2928 24 18.2069V22.3448C24 23.259 23.2479 24 22.3201 24H15.6007C14.9789 24 14.4361 23.6671 14.1456 23.1724H3.3601C3.2116 23.1724 3.06326 23.1627 2.91606 23.1434C1.07683 22.9017 -0.215372 21.2368 0.0298601 19.4246L0.338619 17.1429C0.475155 16.1339 1.22292 15.3093 2.22516 15.0624L6.15782 14.0937C6.60785 13.9828 7.06388 14.2524 7.17638 14.6958C7.28889 15.1392 7.01527 15.5886 6.56525 15.6994L2.63258 16.6681C2.2985 16.7504 2.04925 17.0253 2.00374 17.3616L1.69498 19.6433C1.57236 20.5494 2.21846 21.3819 3.13808 21.5027C3.21168 21.5124 3.28585 21.5172 3.3601 21.5172H13.9209V18.2069C13.9209 17.2928 14.673 16.5517 15.6007 16.5517C15.6007 14.7235 17.1049 13.2414 18.9604 13.2414C20.816 13.2414 22.3201 14.7235 22.3201 16.5517ZM20.6403 16.5517C20.6403 15.6376 19.8882 14.8966 18.9604 14.8966C18.0327 14.8966 17.2806 15.6376 17.2806 16.5517H20.6403ZM14.6252 3.65732L14.1343 3.41547C14.0044 3.35149 13.8501 3.35817 13.7264 3.43316C12.9513 3.90301 12.1762 4.13793 11.4011 4.13793C10.626 4.13793 9.85089 3.90301 9.07578 3.43315C8.95207 3.35816 8.79782 3.35148 8.66791 3.41548L8.17762 3.65702C7.88782 4.25305 7.76487 4.93616 7.86014 5.64017L8.42992 9.8507C8.62847 11.318 9.89875 12.4138 11.4011 12.4138C12.9034 12.4138 14.1737 11.318 14.3723 9.8507L14.9421 5.64017C14.9629 5.48596 14.9734 5.33055 14.9734 5.17498C14.9734 4.63153 14.8484 4.11685 14.6252 3.65732ZM11.4011 0C14.3018 0 16.6532 2.31692 16.6532 5.17498C16.6532 5.40371 16.6379 5.63219 16.6072 5.85892L16.0374 10.0695C15.7276 12.359 13.7454 14.069 11.4011 14.069C9.05681 14.069 7.07463 12.359 6.7648 10.0695L6.19502 5.85892C5.81166 3.02593 7.83172 0.423127 10.707 0.0453954C10.9371 0.0151651 11.169 0 11.4011 0ZM15.6007 18.2069V22.3448H22.3201V18.2069H15.6007Z" fill="#E1ECF0"/>
</svg>
