<svg width="12" height="12" viewBox="0 0 12 12" fill="none" xmlns="http://www.w3.org/2000/svg">
<path d="M1.6 0.5H10.4C11.2837 0.5 12 1.23506 12 2.14179V7.88807C12 8.79481 11.2837 9.52987 10.4 9.52987H8.00738C7.87941 9.52987 7.75916 9.5927 7.68389 9.6989L6.64699 11.1619C6.38712 11.5285 5.88679 11.6096 5.52946 11.3429C5.46178 11.2924 5.40224 11.2313 5.35301 11.1619L4.31611 9.6989C4.24084 9.5927 4.12059 9.52987 3.99262 9.52987H1.6C0.716344 9.52987 0 8.79481 0 7.88807V2.14179C0 1.23506 0.716344 0.5 1.6 0.5ZM1.6 1.3209C1.15817 1.3209 0.8 1.68842 0.8 2.14179V7.88807C0.8 8.34144 1.15817 8.70897 1.6 8.70897H3.99262C4.37654 8.70897 4.73729 8.89747 4.9631 9.21607L6 10.679L7.0369 9.21607C7.26271 8.89747 7.62346 8.70897 8.00738 8.70897H10.4C10.8418 8.70897 11.2 8.34144 11.2 7.88807V2.14179C11.2 1.68842 10.8418 1.3209 10.4 1.3209H1.6ZM4 5.83583C3.66863 5.83583 3.4 5.56018 3.4 5.22016C3.4 4.88013 3.66863 4.60448 4 4.60448C4.33137 4.60448 4.6 4.88013 4.6 5.22016C4.6 5.56018 4.33137 5.83583 4 5.83583ZM6 5.83583C5.66863 5.83583 5.4 5.56018 5.4 5.22016C5.4 4.88013 5.66863 4.60448 6 4.60448C6.33137 4.60448 6.6 4.88013 6.6 5.22016C6.6 5.56018 6.33137 5.83583 6 5.83583ZM8 5.83583C7.66863 5.83583 7.4 5.56018 7.4 5.22016C7.4 4.88013 7.66863 4.60448 8 4.60448C8.33137 4.60448 8.6 4.88013 8.6 5.22016C8.6 5.56018 8.33137 5.83583 8 5.83583Z" fill="#F99E18"/>
</svg>
