<svg width="20" height="20" viewBox="0 0 20 20" fill="none" xmlns="http://www.w3.org/2000/svg">
<path fill-rule="evenodd" clip-rule="evenodd" d="M1.66669 10.0001C1.66669 5.39771 5.39765 1.66675 10 1.66675C14.6024 1.66675 18.3334 5.39771 18.3334 10.0001C18.3334 14.6025 14.6024 18.3334 10 18.3334C5.39765 18.3334 1.66669 14.6025 1.66669 10.0001ZM10 2.82954C6.03984 2.82954 2.82948 6.0399 2.82948 10.0001C2.82948 11.8221 3.50903 13.4854 4.62852 14.7503C4.92733 12.8825 6.18039 11.3337 7.87189 10.6189C7.09526 9.99902 6.59759 9.04425 6.59759 7.97326C6.59759 6.10481 8.11222 4.59083 9.98002 4.59083C11.8483 4.59083 13.363 6.10474 13.363 7.97326C13.363 9.04427 12.8653 9.99903 12.0886 10.6189C13.7915 11.3385 15.0499 12.9034 15.3377 14.7883C16.4773 13.5187 17.1706 11.8404 17.1706 10.0001C17.1706 6.0399 13.9602 2.82954 10 2.82954ZM14.3304 15.7158C14.2732 15.6305 14.2379 15.5288 14.233 15.4186C14.1316 13.1579 12.2663 11.3564 9.98018 11.3564C7.67442 11.3564 5.79649 13.1894 5.72511 15.4774C5.72247 15.5622 5.70179 15.6422 5.66688 15.7138C6.87054 16.628 8.37192 17.1706 10 17.1706C11.6269 17.1706 13.1272 16.6288 14.3304 15.7158ZM9.98002 5.75362C8.75428 5.75362 7.76038 6.74714 7.76038 7.97326C7.76038 9.19952 8.75442 10.1934 9.98002 10.1934C11.2062 10.1934 12.2002 9.19945 12.2002 7.97326C12.2002 6.74721 11.2064 5.75362 9.98002 5.75362Z" fill="#F5F9FC"/>
</svg>
