<svg width="16" height="16" viewBox="0 0 16 16" fill="none" xmlns="http://www.w3.org/2000/svg">
<path fill-rule="evenodd" clip-rule="evenodd" d="M14.8801 11.0345C15.4986 11.0345 16 11.5285 16 12.1379V14.8966C16 15.506 15.4986 16 14.8801 16H10.4005C9.98596 16 9.62404 15.7781 9.43041 15.4483H2.24006C2.14106 15.4483 2.04217 15.4418 1.94404 15.4289C0.717884 15.2678 -0.143581 14.1579 0.0199067 12.9497L0.225746 11.4286C0.31677 10.7559 0.81528 10.2062 1.48344 10.0416L4.10521 9.39578C4.40523 9.32188 4.70925 9.50161 4.78426 9.79722C4.85926 10.0928 4.67685 10.3924 4.37683 10.4663L1.75506 11.1121C1.53234 11.167 1.36617 11.3502 1.33582 11.5744L1.12999 13.0955C1.04824 13.6996 1.47897 14.2546 2.09205 14.3351C2.14112 14.3416 2.19056 14.3448 2.24006 14.3448H9.28058V12.1379C9.28058 11.5285 9.78198 11.0345 10.4005 11.0345C10.4005 9.81565 11.4033 8.82759 12.6403 8.82759C13.8773 8.82759 14.8801 9.81565 14.8801 11.0345ZM13.7602 11.0345C13.7602 10.4251 13.2588 9.93103 12.6403 9.93103C12.0218 9.93103 11.5204 10.4251 11.5204 11.0345H13.7602ZM9.75012 2.43821L9.42284 2.27698C9.33624 2.23433 9.23341 2.23878 9.15094 2.28877C8.6342 2.602 8.11747 2.75862 7.60073 2.75862C7.08399 2.75862 6.56726 2.602 6.05052 2.28877C5.96805 2.23877 5.86521 2.23432 5.7786 2.27699L5.45175 2.43801C5.25855 2.83537 5.17658 3.29077 5.24009 3.76011L5.61994 6.56713C5.75231 7.54532 6.59917 8.27586 7.60073 8.27586C8.60229 8.27586 9.44915 7.54532 9.58152 6.56713L9.96137 3.76011C9.97528 3.65731 9.98226 3.5537 9.98226 3.44999C9.98226 3.08769 9.89893 2.74457 9.75012 2.43821ZM7.60073 0C9.53452 0 11.1022 1.54461 11.1022 3.44999C11.1022 3.60247 11.0919 3.7548 11.0714 3.90595L10.6916 6.71297C10.485 8.23936 9.16359 9.37931 7.60073 9.37931C6.03787 9.37931 4.71642 8.23936 4.50986 6.71297L4.13001 3.90595C3.87444 2.01729 5.22115 0.282085 7.13797 0.0302636C7.29137 0.01011 7.44597 0 7.60073 0ZM10.4005 12.1379V14.8966H14.8801V12.1379H10.4005Z" fill="#819FB2"/>
</svg>
