<svg width="24" height="24" viewBox="0 0 24 24" fill="none" xmlns="http://www.w3.org/2000/svg">
<path d="M12.0002 22.8C17.9649 22.8 22.8002 17.9647 22.8002 12C22.8002 6.03534 17.9649 1.20001 12.0002 1.20001C6.03552 1.20001 1.2002 6.03534 1.2002 12C1.2002 17.9647 6.03552 22.8 12.0002 22.8ZM12.0002 21.1803C6.93008 21.1803 2.81994 17.0701 2.81994 12C2.81994 6.9299 6.93008 2.81976 12.0002 2.81976C17.0703 2.81976 21.1804 6.9299 21.1804 12C21.1804 17.0701 17.0703 21.1803 12.0002 21.1803ZM11.9963 13.6208C12.4063 13.6211 12.7453 13.3166 12.7992 12.9214L12.8067 12.8115L12.8106 6.87066C12.8108 6.42338 12.4485 6.06055 12.0012 6.06026C11.5912 6.05999 11.2522 6.36444 11.1983 6.75971L11.1908 6.8696L11.1869 12.8104C11.1866 13.2577 11.549 13.6205 11.9963 13.6208ZM12.0007 17.3978C12.5963 17.3978 13.0791 16.915 13.0791 16.3194C13.0791 15.7238 12.5963 15.241 12.0007 15.241C11.4051 15.241 10.9223 15.7238 10.9223 16.3194C10.9223 16.915 11.4051 17.3978 12.0007 17.3978Z" fill="#819FB2"/>
</svg>
