<svg width="24" height="24" viewBox="0 0 24 24" fill="none" xmlns="http://www.w3.org/2000/svg">
<path d="M16.86 10.92C20.1405 10.92 22.7999 13.5794 22.7999 16.86C22.7999 20.1405 20.1405 22.7999 16.86 22.7999C13.5794 22.7999 10.92 20.1405 10.92 16.86C10.92 13.5794 13.5794 10.92 16.86 10.92ZM17.1299 1.19995C19.0685 1.19995 20.6399 2.77143 20.6399 4.70995L20.6413 10.9444C20.1408 10.6238 19.5969 10.365 19.0204 10.1787L19.02 7.13995H2.81995V17.1299C2.81995 18.1738 3.66613 19.02 4.70995 19.02L10.1787 19.0204C10.365 19.5969 10.6238 20.1408 10.9444 20.6413L4.70995 20.6399C2.77143 20.6399 1.19995 19.0685 1.19995 17.1299V4.70995C1.19995 2.77143 2.77143 1.19995 4.70995 1.19995H17.1299ZM19.7181 14.3181L15.2984 18.7378L14.052 17.0759C13.873 16.8373 13.5345 16.789 13.296 16.9679C13.0574 17.1469 13.009 17.4853 13.188 17.7239L14.808 19.8839C15.0051 20.1468 15.3894 20.1741 15.6218 19.9418L20.4818 15.0818C20.6927 14.8709 20.6927 14.529 20.4818 14.3181C20.2709 14.1072 19.929 14.1072 19.7181 14.3181ZM17.1299 2.81995H4.70995C3.66613 2.81995 2.81995 3.66613 2.81995 4.70995V5.51995H19.02V4.70995C19.02 3.66613 18.1738 2.81995 17.1299 2.81995Z" fill="#0171A1"/>
</svg>
