<svg width="26" height="24" viewBox="0 0 26 24" fill="none" xmlns="http://www.w3.org/2000/svg">
<path fill-rule="evenodd" clip-rule="evenodd" d="M11.6678 4.5H4.8158C4.53966 4.5 4.3158 4.72386 4.3158 5V6.64705C4.3158 6.92319 4.53966 7.14705 4.8158 7.14705H11.6678C11.9439 7.14705 12.1678 6.92319 12.1678 6.64705V5C12.1678 4.72386 11.9439 4.5 11.6678 4.5ZM13.8657 9.41174C13.8657 9.1356 13.6419 8.91175 13.3657 8.91175H3.0708C2.79465 8.91175 2.5708 9.1356 2.5708 9.41175V11.0588C2.5708 11.3349 2.79465 11.5588 3.0708 11.5588H13.3657C13.6419 11.5588 13.8657 11.3349 13.8657 11.0588V9.41174ZM18.6225 10.0386L16.0925 13.281H1.47103C1.14389 13.281 0.904881 13.5899 0.987059 13.9066L2.34155 19.1256C2.39877 19.3461 2.59775 19.5 2.82552 19.5H21.499C21.7099 19.5 21.8982 19.3677 21.9695 19.1692L25.0124 10.7078C25.1296 10.382 24.8882 10.0386 24.5419 10.0386H18.6225ZM6.06068 15.9707C6.06068 16.458 5.67007 16.853 5.18823 16.853C4.7064 16.853 4.31579 16.458 4.31579 15.9707C4.31579 15.4834 4.7064 15.0883 5.18823 15.0883C5.67007 15.0883 6.06068 15.4834 6.06068 15.9707ZM10.4231 16.853C10.905 16.853 11.2956 16.458 11.2956 15.9707C11.2956 15.4834 10.905 15.0883 10.4231 15.0883C9.94131 15.0883 9.5507 15.4834 9.5507 15.9707C9.5507 16.458 9.94131 16.853 10.4231 16.853ZM16.5301 15.9707C16.5301 16.458 16.1395 16.853 15.6576 16.853C15.1758 16.853 14.7852 16.458 14.7852 15.9707C14.7852 15.4834 15.1758 15.0883 15.6576 15.0883C16.1395 15.0883 16.5301 15.4834 16.5301 15.9707Z" fill="#0171A1"/>
</svg>
