<svg width="26" height="24" viewBox="0 0 26 24" fill="none" xmlns="http://www.w3.org/2000/svg">
<path fill-rule="evenodd" clip-rule="evenodd" d="M11.6677 4.5H4.81574C4.5396 4.5 4.31574 4.72386 4.31574 5V6.64705C4.31574 6.92319 4.5396 7.14705 4.81574 7.14705H11.6677C11.9439 7.14705 12.1677 6.92319 12.1677 6.64705V5C12.1677 4.72386 11.9439 4.5 11.6677 4.5ZM13.8657 9.41174C13.8657 9.1356 13.6418 8.91175 13.3657 8.91175H3.07073C2.79459 8.91175 2.57073 9.1356 2.57073 9.41175V11.0588C2.57073 11.3349 2.79459 11.5588 3.07073 11.5588H13.3657C13.6418 11.5588 13.8657 11.3349 13.8657 11.0588V9.41174ZM18.6225 10.0386L16.0924 13.281H1.47096C1.14383 13.281 0.90482 13.5899 0.986998 13.9066L2.34149 19.1256C2.39871 19.3461 2.59769 19.5 2.82546 19.5H21.499C21.7099 19.5 21.8981 19.3677 21.9695 19.1692L25.0124 10.7078C25.1295 10.382 24.8881 10.0386 24.5419 10.0386H18.6225ZM6.06062 15.9707C6.06062 16.458 5.67001 16.853 5.18817 16.853C4.70634 16.853 4.31573 16.458 4.31573 15.9707C4.31573 15.4834 4.70634 15.0883 5.18817 15.0883C5.67001 15.0883 6.06062 15.4834 6.06062 15.9707ZM10.4231 16.853C10.9049 16.853 11.2955 16.458 11.2955 15.9707C11.2955 15.4834 10.9049 15.0883 10.4231 15.0883C9.94125 15.0883 9.55064 15.4834 9.55064 15.9707C9.55064 16.458 9.94125 16.853 10.4231 16.853ZM16.53 15.9707C16.53 16.458 16.1394 16.853 15.6576 16.853C15.1757 16.853 14.7851 16.458 14.7851 15.9707C14.7851 15.4834 15.1757 15.0883 15.6576 15.0883C16.1394 15.0883 16.53 15.4834 16.53 15.9707Z" fill="#819FB2"/>
</svg>
