<svg width="24" height="24" viewBox="0 0 24 24" fill="none" xmlns="http://www.w3.org/2000/svg">
<path d="M22.2 20.775C21.15 19.95 19.5 19.95 18.45 20.775H18.375L19.425 18.15L11.925 15L4.50003 18.15L5.55003 20.775H5.47503C4.42503 19.95 2.77503 19.95 1.72503 20.775C1.42503 21 1.35003 21.525 1.65003 21.825C1.87503 22.125 2.40003 22.2 2.70003 21.9C3.22503 21.525 4.05003 21.525 4.57503 21.9C5.10003 22.35 5.77503 22.5 6.45003 22.5C7.12503 22.5 7.80003 22.275 8.32503 21.9C8.85003 21.525 9.67503 21.525 10.2 21.9C11.25 22.725 12.9 22.725 13.95 21.9C14.475 21.525 15.3 21.525 15.825 21.9C16.875 22.725 18.525 22.725 19.575 21.9C20.1 21.525 20.925 21.525 21.45 21.9C21.75 22.125 22.275 22.125 22.5 21.825C22.575 21.525 22.575 21.075 22.2 20.775Z" fill="#0171A1"/>
<path d="M3.97499 16.8L11.7 13.575C11.775 13.575 11.85 13.5 12 13.5C12.075 13.5 12.225 13.5 12.3 13.575L20.025 16.8L20.925 14.55C21 14.325 21 14.175 20.925 13.95C20.85 13.8 20.7 13.65 20.475 13.575L18 12.6V8.24998C18 6.97498 17.025 5.99998 15.75 5.99998H14.25V2.99998C14.25 2.77498 14.175 2.62498 14.025 2.47498C12.9 1.34998 11.1 1.34998 9.97499 2.47498C9.82499 2.62498 9.74999 2.77498 9.74999 2.99998V5.99998H8.24999C6.97499 5.99998 5.99999 6.97498 5.99999 8.24998V12.6L3.52499 13.5C3.29999 13.575 3.14999 13.725 3.07499 13.875C2.99999 14.025 2.99999 14.25 3.07499 14.475L3.97499 16.8ZM8.99999 8.24998H15C15.45 8.24998 15.75 8.54998 15.75 8.99998C15.75 9.44998 15.45 9.74998 15 9.74998H8.99999C8.54999 9.74998 8.24999 9.44998 8.24999 8.99998C8.24999 8.54998 8.54999 8.24998 8.99999 8.24998Z" fill="#0171A1"/>
</svg>
