<svg width="24" height="24" viewBox="0 0 24 24" fill="none" xmlns="http://www.w3.org/2000/svg">
<path d="M19.6093 1.19995C21.3716 1.19995 22.8002 2.62857 22.8002 4.39086V19.609C22.8002 21.3713 21.3716 22.7999 19.6093 22.7999H4.3911C2.62881 22.7999 1.2002 21.3713 1.2002 19.609V4.39086C1.2002 2.62857 2.62881 1.19995 4.3911 1.19995H19.6093ZM21.3275 7.58471H2.67292V19.609C2.67292 20.558 3.44218 21.3272 4.3911 21.3272H19.6093C20.5582 21.3272 21.3275 20.558 21.3275 19.609V7.58471ZM6.84445 15.4377C7.52225 15.4377 8.07172 15.9872 8.07172 16.665C8.07172 17.3428 7.52225 17.8922 6.84445 17.8922C6.16665 17.8922 5.61718 17.3428 5.61718 16.665C5.61718 15.9872 6.16665 15.4377 6.84445 15.4377ZM12.0034 15.4377C12.6812 15.4377 13.2307 15.9872 13.2307 16.665C13.2307 17.3428 12.6812 17.8922 12.0034 17.8922C11.3256 17.8922 10.7761 17.3428 10.7761 16.665C10.7761 15.9872 11.3256 15.4377 12.0034 15.4377ZM6.84445 10.5286C7.52225 10.5286 8.07172 11.0781 8.07172 11.7559C8.07172 12.4337 7.52225 12.9832 6.84445 12.9832C6.16665 12.9832 5.61718 12.4337 5.61718 11.7559C5.61718 11.0781 6.16665 10.5286 6.84445 10.5286ZM12.0034 10.5286C12.6812 10.5286 13.2307 11.0781 13.2307 11.7559C13.2307 12.4337 12.6812 12.9832 12.0034 12.9832C11.3256 12.9832 10.7761 12.4337 10.7761 11.7559C10.7761 11.0781 11.3256 10.5286 12.0034 10.5286ZM17.1623 10.5286C17.8401 10.5286 18.3896 11.0781 18.3896 11.7559C18.3896 12.4337 17.8401 12.9832 17.1623 12.9832C16.4845 12.9832 15.9351 12.4337 15.9351 11.7559C15.9351 11.0781 16.4845 10.5286 17.1623 10.5286ZM19.6093 2.67268H4.3911C3.44218 2.67268 2.67292 3.44193 2.67292 4.39086V6.11199H21.3275V4.39086C21.3275 3.44193 20.5582 2.67268 19.6093 2.67268Z" fill="#819FB2"/>
</svg>
