<svg width="24" height="24" viewBox="0 0 24 24" fill="none" xmlns="http://www.w3.org/2000/svg">
<path d="M19.609 1.19995C21.3713 1.19995 22.7999 2.62857 22.7999 4.39086V19.609C22.7999 21.3713 21.3713 22.7999 19.609 22.7999H4.39086C2.62857 22.7999 1.19995 21.3713 1.19995 19.609V4.39086C1.19995 2.62857 2.62857 1.19995 4.39086 1.19995H19.609ZM21.3272 7.58471H2.67268V19.609C2.67268 20.558 3.44193 21.3272 4.39086 21.3272H19.609C20.558 21.3272 21.3272 20.558 21.3272 19.609V7.58471ZM6.8442 15.4377C7.52201 15.4377 8.07148 15.9872 8.07148 16.665C8.07148 17.3428 7.52201 17.8922 6.8442 17.8922C6.1664 17.8922 5.61693 17.3428 5.61693 16.665C5.61693 15.9872 6.1664 15.4377 6.8442 15.4377ZM12.0031 15.4377C12.681 15.4377 13.2304 15.9872 13.2304 16.665C13.2304 17.3428 12.681 17.8922 12.0031 17.8922C11.3253 17.8922 10.7759 17.3428 10.7759 16.665C10.7759 15.9872 11.3253 15.4377 12.0031 15.4377ZM6.8442 10.5286C7.52201 10.5286 8.07148 11.0781 8.07148 11.7559C8.07148 12.4337 7.52201 12.9832 6.8442 12.9832C6.1664 12.9832 5.61693 12.4337 5.61693 11.7559C5.61693 11.0781 6.1664 10.5286 6.8442 10.5286ZM12.0031 10.5286C12.681 10.5286 13.2304 11.0781 13.2304 11.7559C13.2304 12.4337 12.681 12.9832 12.0031 12.9832C11.3253 12.9832 10.7759 12.4337 10.7759 11.7559C10.7759 11.0781 11.3253 10.5286 12.0031 10.5286ZM17.1621 10.5286C17.8399 10.5286 18.3894 11.0781 18.3894 11.7559C18.3894 12.4337 17.8399 12.9832 17.1621 12.9832C16.4843 12.9832 15.9348 12.4337 15.9348 11.7559C15.9348 11.0781 16.4843 10.5286 17.1621 10.5286ZM19.609 2.67268H4.39086C3.44193 2.67268 2.67268 3.44193 2.67268 4.39086V6.11199H21.3272V4.39086C21.3272 3.44193 20.558 2.67268 19.609 2.67268Z" fill="#0171A1"/>
</svg>
