<svg width="24" height="24" viewBox="0 0 24 24" fill="none" xmlns="http://www.w3.org/2000/svg">
<path d="M12 1C18.0751 1 23 5.92487 23 12C23 18.0751 18.0751 23 12 23C5.92487 23 1 18.0751 1 12C1 5.92487 5.92487 1 12 1ZM15.5416 8.66664L10.625 13.5833L8.45836 11.4166C8.13618 11.0945 7.61382 11.0945 7.29164 11.4166C6.96945 11.7388 6.96945 12.2612 7.29164 12.5834L10.0416 15.3334C10.3638 15.6555 10.8862 15.6555 11.2084 15.3334L16.7084 9.83336C17.0305 9.51118 17.0305 8.98882 16.7084 8.66664C16.3862 8.34445 15.8638 8.34445 15.5416 8.66664Z" fill="#0171A1"/>
</svg>
