<svg width="24" height="24" viewBox="0 0 24 24" fill="none" xmlns="http://www.w3.org/2000/svg">
<path fill-rule="evenodd" clip-rule="evenodd" d="M12 0C11.3787 0 10.875 0.488417 10.875 1.09091H9.18751C8.87685 1.09091 8.62501 1.33512 8.62501 1.63636V2.72727C8.62501 3.02852 8.87685 3.27273 9.18751 3.27273H14.8125C15.1232 3.27273 15.375 3.02852 15.375 2.72727V1.63636C15.375 1.33512 15.1232 1.09091 14.8125 1.09091H13.125C13.125 0.488417 12.6213 0 12 0ZM7.5 2.18182V2.72727C7.5 3.63101 8.25552 4.36364 9.1875 4.36364H14.8125C15.7445 4.36364 16.5 3.63101 16.5 2.72727V2.18182H18.75C19.9926 2.18182 21 3.15865 21 4.36364V21.8182C21 23.0232 19.9926 24 18.75 24H5.25C4.00736 24 3 23.0232 3 21.8182V4.36364C3 3.15865 4.00736 2.18182 5.25 2.18182H7.5ZM10.7344 16.0909C10.4649 16.0909 10.1953 15.9864 9.9797 15.7773L7.82345 13.6864C7.3922 13.2682 7.3922 12.6409 7.82345 12.2227C8.2547 11.8045 8.95548 11.8045 9.33282 12.2227L10.7344 13.5818L14.2922 10.1318C14.7234 9.71362 15.3703 9.71362 15.8016 10.1318C16.2328 10.55 16.2328 11.1773 15.8016 11.5954L11.4891 15.7773C11.2734 15.9864 11.0039 16.0909 10.7344 16.0909Z" fill="#819FB2"/>
</svg>
