<svg width="24" height="24" viewBox="0 0 24 24" fill="none" xmlns="http://www.w3.org/2000/svg">
<path fill-rule="evenodd" clip-rule="evenodd" d="M12 1C11.4477 1 11 1.44772 11 2H9.5C9.22386 2 9 2.22386 9 2.5V3.5C9 3.77614 9.22386 4 9.5 4H14.5C14.7761 4 15 3.77614 15 3.5V2.5C15 2.22386 14.7761 2 14.5 2H13C13 1.44772 12.5523 1 12 1ZM8 3.5V3H6C4.89543 3 4 3.89543 4 5V21C4 22.1046 4.89543 23 6 23H18C19.1046 23 20 22.1046 20 21V5C20 3.89543 19.1046 3 18 3H16V3.5C16 4.32843 15.3284 5 14.5 5H9.5C8.67157 5 8 4.32843 8 3.5ZM11 9H16C16.5523 9 17 9.44772 17 10C17 10.5523 16.5523 11 16 11H11C10.4477 11 10 10.5523 10 10C10 9.44772 10.4477 9 11 9ZM9 10C9 9.44772 8.55228 9 8 9C7.44772 9 7 9.44772 7 10C7 10.5523 7.44772 11 8 11C8.55228 11 9 10.5523 9 10ZM8 13C8.55228 13 9 13.4477 9 14C9 14.5523 8.55228 15 8 15C7.44772 15 7 14.5523 7 14C7 13.4477 7.44772 13 8 13ZM16 13H11C10.4477 13 10 13.4477 10 14C10 14.5523 10.4477 15 11 15H16C16.5523 15 17 14.5523 17 14C17 13.4477 16.5523 13 16 13ZM8 17C8.55228 17 9 17.4477 9 18C9 18.5523 8.55228 19 8 19C7.44772 19 7 18.5523 7 18C7 17.4477 7.44772 17 8 17ZM16 17H11C10.4477 17 10 17.4477 10 18C10 18.5523 10.4477 19 11 19H16C16.5523 19 17 18.5523 17 18C17 17.4477 16.5523 17 16 17Z" fill="#819FB2"/>
</svg>
