<svg width="24" height="24" viewBox="0 0 24 24" fill="none" xmlns="http://www.w3.org/2000/svg">
<path d="M17.0025 3.09792L17.1172 3.32677L17.9818 5.62624C18.0498 5.80732 18.1927 5.95021 18.3737 6.01815L20.5939 6.85106C21.5681 7.21657 22.0916 8.25762 21.832 9.2426L21.7696 9.43863L20.7367 11.7229C20.6567 11.899 20.6567 12.101 20.7367 12.2771L21.7176 14.4359C22.1481 15.3833 21.7821 16.4896 20.9021 17.0025L20.6732 17.1172L18.3737 17.9818C18.1927 18.0498 18.0498 18.1927 17.9818 18.3737L17.1489 20.5939C16.7834 21.5681 15.7424 22.0916 14.7574 21.832L14.5613 21.7696L12.2771 20.7367C12.101 20.6567 11.899 20.6567 11.7229 20.7367L9.56406 21.7176C8.6167 22.1481 7.51037 21.7821 6.99746 20.9021L6.88283 20.6732L6.01815 18.3737C5.95021 18.1927 5.80732 18.0498 5.62624 17.9818L3.40613 17.1489C2.43188 16.7834 1.90834 15.7424 2.16795 14.7574L2.23041 14.5613L3.26326 12.2771C3.34327 12.101 3.34327 11.899 3.26326 11.7229L2.28237 9.56406C1.85192 8.6167 2.21786 7.51037 3.09792 6.99746L3.32677 6.88283L5.62624 6.01815C5.80732 5.95021 5.95021 5.80732 6.01815 5.62624L6.85106 3.40613C7.21657 2.43188 8.25762 1.90834 9.2426 2.16795L9.43863 2.23041L11.7229 3.26326C11.899 3.34327 12.101 3.34327 12.2771 3.26326L14.4359 2.28237C15.3833 1.85192 16.4896 2.21786 17.0025 3.09792ZM15.2458 8.55886L10.4674 14.02L8.72368 12.2763C8.46207 12.0147 8.03791 12.0147 7.7763 12.2763C7.51468 12.5379 7.51468 12.9621 7.7763 13.2237L10.0263 15.4737C10.3003 15.7477 10.749 15.7328 11.0041 15.4411L16.2541 9.44113C16.4978 9.16269 16.4696 8.73947 16.1911 8.49584C15.9127 8.25221 15.4895 8.28042 15.2458 8.55886Z" fill="#819FB2"/>
</svg>
