<svg width="56" height="56" viewBox="0 0 56 56" fill="none" xmlns="http://www.w3.org/2000/svg">
<rect width="56" height="56" fill="#E1ECF0"/>
<path d="M21.3333 25.5807L18 23.9018V32.372C18 32.9896 18.3366 33.5574 18.8765 33.8502L27.1667 38.347V28.5188L23 26.4202V31.7776C23 32.2412 22.6269 32.617 22.1667 32.617C21.7064 32.617 21.3333 32.2412 21.3333 31.7776V25.5807ZM22.5575 24.3202L28.0245 21.3831C28.4306 21.1649 28.9354 21.3197 29.152 21.7287C29.3685 22.1378 29.2149 22.6463 28.8088 22.8645L24.3855 25.2409L28 27.0615L37.3918 22.331C37.3093 22.2627 37.2196 22.2019 37.1235 22.1498L28.7902 17.6296C28.2969 17.362 27.7031 17.362 27.2098 17.6296L18.8765 22.1498C18.7804 22.2019 18.6907 22.2627 18.6082 22.331L22.5575 24.3202ZM28.8333 38.347L37.1235 33.8502C37.6633 33.5574 38 32.9896 38 32.372V23.9018L28.8333 28.5188V38.347ZM18.0863 20.6715L26.4197 16.1514C27.4062 15.6162 28.5937 15.6162 29.5803 16.1514L37.9137 20.6715C38.9934 21.2572 39.6667 22.3927 39.6667 23.628V32.372C39.6667 33.6073 38.9934 34.7428 37.9137 35.3285L29.5803 39.8486C28.5937 40.3838 27.4062 40.3838 26.4197 39.8486L18.0863 35.3285C17.0066 34.7428 16.3333 33.6073 16.3333 32.372V23.628C16.3333 22.3927 17.0066 21.2572 18.0863 20.6715ZM31.7178 35.1247C31.3095 35.3386 30.8063 35.1785 30.594 34.7672C30.3816 34.3558 30.5405 33.849 30.9489 33.6351L35.1155 31.4525C35.5239 31.2386 36.027 31.3987 36.2393 31.81C36.4517 32.2213 36.2928 32.7282 35.8845 32.9421L31.7178 35.1247Z" fill="#0171A1"/>
</svg>
