<svg width="16" height="16" viewBox="0 0 16 16" fill="none" xmlns="http://www.w3.org/2000/svg">
<path d="M9.1 3.81818C9.1 3.21569 8.60751 2.72727 8 2.72727C7.39249 2.72727 6.9 3.21569 6.9 3.81818H6.16667C6.16667 2.81403 6.98748 2 8 2C9.01252 2 9.83333 2.81403 9.83333 3.81818H13.1333C13.3358 3.81818 13.5 3.98099 13.5 4.18182C13.5 4.38265 13.3358 4.54545 13.1333 4.54545H12.7271L11.7766 12.7122C11.6912 13.4461 11.0646 14 10.3196 14H5.68038C4.9354 14 4.30877 13.4461 4.22338 12.7122L3.2722 4.54545H2.86667C2.68666 4.54545 2.53695 4.41682 2.50591 4.24718L2.5 4.18182C2.5 3.98099 2.66416 3.81818 2.86667 3.81818H9.1ZM11.9879 4.54545H4.0114L4.95188 12.6288C4.99457 12.9958 5.30789 13.2727 5.68038 13.2727H10.3196C10.6921 13.2727 11.0054 12.9958 11.0481 12.6288L11.9879 4.54545ZM6.9 6.36364C7.08 6.36364 7.22971 6.47619 7.26076 6.62462L7.26667 6.68182V11.1364C7.26667 11.3121 7.1025 11.4545 6.9 11.4545C6.72 11.4545 6.57029 11.342 6.53924 11.1936L6.53333 11.1364V6.68182C6.53333 6.50609 6.6975 6.36364 6.9 6.36364ZM9.1 6.36364C9.28 6.36364 9.42971 6.47619 9.46076 6.62462L9.46667 6.68182V11.1364C9.46667 11.3121 9.3025 11.4545 9.1 11.4545C8.92 11.4545 8.77029 11.342 8.73924 11.1936L8.73333 11.1364V6.68182C8.73333 6.50609 8.8975 6.36364 9.1 6.36364Z" fill="#0171A1"/>
</svg>
