<svg width="24" height="24" viewBox="0 0 24 24" fill="none" xmlns="http://www.w3.org/2000/svg">
<g clip-path="url(#clip0)">
<path fill-rule="evenodd" clip-rule="evenodd" d="M3.83133 10H1C0.447716 10 0 10.4477 0 11V23C0 23.5523 0.447716 24 1 24H23C23.5523 24 24 23.5523 24 23V11C24 10.4477 23.5523 10 23 10H20.1687L13.2276 6.214C13.4665 5.92994 13.5982 5.57114 13.6 5.2C13.5995 4.84537 13.4814 4.50092 13.2643 4.22054C13.0472 3.94015 12.7432 3.73965 12.4 3.6504V3.0472L13.7788 2.358C13.8453 2.32477 13.9012 2.27368 13.9403 2.21044C13.9794 2.1472 14 2.07433 14 2V0.4C14 0.293913 13.9579 0.192172 13.8828 0.117157C13.8078 0.0421424 13.7061 0 13.6 0H10.4C10.2939 0 10.1922 0.0421424 10.1172 0.117157C10.0421 0.192172 10 0.293913 10 0.4V2C9.99959 2.07467 10.0201 2.14797 10.0592 2.21159C10.0983 2.27521 10.1544 2.32662 10.2212 2.36L11.6 3.0472V4C11.6 4.10609 11.6421 4.20783 11.7172 4.28284C11.7922 4.35786 11.8939 4.4 12 4.4C12.1653 4.39922 12.3268 4.4499 12.462 4.54502C12.5972 4.64013 12.6994 4.77496 12.7546 4.9308C12.8097 5.08665 12.815 5.25579 12.7696 5.41476C12.7243 5.57373 12.6306 5.71466 12.5016 5.818L12.1916 5.6488C12.1328 5.61673 12.0669 5.59993 12 5.59993C11.933 5.59993 11.8672 5.61673 11.8084 5.6488L11.4984 5.818C11.4056 5.74387 11.3306 5.64986 11.279 5.5429C11.2273 5.43595 11.2003 5.31877 11.2 5.2C11.2 5.09391 11.1579 4.99217 11.0828 4.91716C11.0078 4.84214 10.9061 4.8 10.8 4.8C10.6939 4.8 10.5922 4.84214 10.5172 4.91716C10.4421 4.99217 10.4 5.09391 10.4 5.2C10.4018 5.57114 10.5335 5.92994 10.7724 6.214L3.83133 10ZM18.4974 10L12.48 6.72C12.1693 6.82897 11.8307 6.82897 11.52 6.72L5.50262 10H18.4974ZM10.8 0.799999H13.2V1.7528L12 2.3528L10.8 1.7528V0.799999ZM22.5 22.5V11.5H1.5V22.5H22.5ZM20.5 13H19V21H20.5V13ZM12.5 13H14V21H12.5V13ZM8 13H6.5V21H8V13ZM15.5 13H17V21H15.5V13ZM11 13H9.5V21H11V13ZM3.5 13H5V21H3.5V13Z" fill="#819FB2"/>
</g>
<defs>
<clipPath id="clip0">
<rect width="24" height="24" fill="white" transform="matrix(-1 0 0 1 24 0)"/>
</clipPath>
</defs>
</svg>
