<svg width="16" height="16" viewBox="0 0 16 16" fill="none" xmlns="http://www.w3.org/2000/svg">
<path d="M12.9251 13.8495C13.298 13.8495 13.6002 14.1517 13.6002 14.5245C13.6002 14.8663 13.3462 15.1488 13.0167 15.1935L12.9251 15.1996H3.0751C2.70226 15.1996 2.40002 14.8974 2.40002 14.5245C2.40002 14.1829 2.65399 13.9004 2.98349 13.8557L3.0751 13.8495H12.9251ZM8.03489 0.800049C8.37666 0.800049 8.65912 1.05401 8.70385 1.38352L8.70997 1.47513L8.70943 10.6499L11.3793 7.97606C11.6188 7.73617 11.9938 7.71404 12.2583 7.90988L12.3341 7.97517C12.5739 8.21461 12.5961 8.58968 12.4002 8.85413L12.335 8.92992L8.516 12.7559L8.45236 12.8122L8.37045 12.8649L8.33769 12.884L8.2556 12.9181L8.14714 12.9452L8.08485 12.9523L8.03078 12.954C7.98567 12.954 7.93987 12.9491 7.89512 12.9396L7.82232 12.9188C7.7359 12.8909 7.65749 12.8456 7.59075 12.7873L3.72969 8.93064C3.46586 8.66718 3.46556 8.23981 3.729 7.97596C3.9685 7.73612 4.34352 7.71406 4.60795 7.90996L4.68371 7.97527L7.3593 10.6462L7.35986 1.47513C7.35986 1.10229 7.66211 0.800049 8.03489 0.800049Z" fill="#0171A1"/>
</svg>
