<svg width="12" height="12" viewBox="0 0 12 12" fill="none" xmlns="http://www.w3.org/2000/svg">
<path d="M11.4165 0.58353C12.1945 1.36157 12.1945 2.62302 11.4165 3.40106L4.05846 10.7591C3.7393 11.0782 3.33939 11.3047 2.9015 11.4141L0.619328 11.9847C0.254548 12.0759 -0.0758704 11.7455 0.0153246 11.3807L0.585868 9.0985C0.69534 8.66061 0.921762 8.2607 1.24093 7.94154L8.59894 0.58353C9.37698 -0.19451 10.6384 -0.19451 11.4165 0.58353ZM7.89448 2.69657L1.94531 8.64592C1.75381 8.83742 1.61796 9.07736 1.55227 9.3401L1.18307 10.8169L2.6599 10.4477C2.92264 10.382 3.16258 10.2462 3.35407 10.0547L9.30303 4.10513L7.89448 2.69657ZM9.30332 1.28791L8.59875 1.9923L10.0073 3.40085L10.7121 2.69668C11.1011 2.30766 11.1011 1.67693 10.7121 1.28791C10.3231 0.898893 9.69234 0.898893 9.30332 1.28791Z" fill="#0171A1"/>
</svg>
