<svg width="16" height="16" viewBox="0 0 16 16" fill="none" xmlns="http://www.w3.org/2000/svg">
<path d="M12.4001 2.8C13.5047 2.8 14.4001 3.69543 14.4001 4.8V11.2C14.4001 12.3046 13.5047 13.2 12.4001 13.2H3.6001C2.49553 13.2 1.6001 12.3046 1.6001 11.2V4.8C1.6001 3.69543 2.49553 2.8 3.6001 2.8H12.4001ZM13.6001 5.9688L8.20291 9.14478C8.09859 9.20614 7.97339 9.21637 7.86211 9.17546L7.79729 9.14478L2.4001 5.9704V11.2C2.4001 11.8627 2.93736 12.4 3.6001 12.4H12.4001C13.0628 12.4 13.6001 11.8627 13.6001 11.2V5.9688ZM12.4001 3.6H3.6001C2.93736 3.6 2.4001 4.13726 2.4001 4.8V5.0416L8.0001 8.33593L13.6001 5.0408V4.8C13.6001 4.13726 13.0628 3.6 12.4001 3.6Z" fill="#6D858F"/>
</svg>
