<svg width="40" height="40" viewBox="0 0 40 40" fill="none" xmlns="http://www.w3.org/2000/svg">
<path d="M5.54596 11.8519H34.4526C35.2627 11.8517 36.0629 12.0411 36.7971 12.4067C37.5312 12.7724 38.1815 13.3055 38.7022 13.9684C39.2229 14.6314 39.6014 15.4082 39.8111 16.2442C40.0207 17.0802 40.0564 17.9551 39.9156 18.8074L37.223 35.1037C36.9964 36.4756 36.3248 37.7183 35.326 38.6137C34.3272 39.5091 33.0652 39.9999 31.7614 40H8.23724C6.93322 40.0003 5.6708 39.5096 4.67173 38.6142C3.67266 37.7188 3.00083 36.4758 2.77426 35.1037L0.0843587 18.8074C-0.0563621 17.9552 -0.020694 17.0804 0.188856 16.2445C0.398406 15.4086 0.776753 14.6319 1.2973 13.969C1.81786 13.306 2.46798 12.773 3.20198 12.4072C3.93599 12.0414 4.73606 11.8519 5.54596 11.8519ZM5.54596 14.8148C5.14088 14.8147 4.74069 14.9094 4.37355 15.0923C4.00641 15.2752 3.68122 15.5418 3.42085 15.8733C3.16049 16.2049 2.97127 16.5934 2.86651 17.0115C2.76175 17.4296 2.74398 17.8671 2.81447 18.2933L5.50575 34.5896C5.61918 35.2756 5.95516 35.8968 6.45468 36.3444C6.9542 36.792 7.58533 37.0372 8.23724 37.037H31.7614C32.4133 37.0372 33.0444 36.792 33.5439 36.3444C34.0434 35.8968 34.3794 35.2756 34.4929 34.5896L37.1828 18.2933C37.2532 17.8674 37.2355 17.4301 37.1309 17.0122C37.0263 16.5943 36.8373 16.206 36.5773 15.8745C36.3172 15.543 35.9924 15.2763 35.6256 15.0932C35.2588 14.9102 34.8589 14.8151 34.454 14.8148H5.54596ZM14.9925 26.3585C14.8444 26.2424 14.7193 26.096 14.6246 25.9279C14.5299 25.7597 14.4674 25.5731 14.4408 25.3789C14.4141 25.1847 14.4238 24.9868 14.4694 24.7967C14.5149 24.6065 14.5954 24.428 14.7061 24.2713C14.8168 24.1147 14.9555 23.9831 15.1141 23.8842C15.2728 23.7854 15.4483 23.7212 15.6304 23.6954C15.8125 23.6696 15.9976 23.6827 16.1749 23.734C16.3522 23.7853 16.5182 23.8737 16.6633 23.9941C17.6172 24.7644 18.7764 25.1852 19.9993 25.1852C21.2278 25.1852 22.3911 24.7585 23.3478 23.9837C23.6407 23.746 24.01 23.6423 24.3744 23.6955C24.7389 23.7487 25.0686 23.9545 25.2911 24.2674C25.5135 24.5804 25.6105 24.9749 25.5607 25.3643C25.511 25.7537 25.3184 26.106 25.0255 26.3437C23.5803 27.5171 21.8144 28.151 19.9993 28.1481C18.1929 28.1504 16.4352 27.522 14.9939 26.3585H14.9925ZM6.13385 8.88889C6.13385 9.2818 5.98777 9.65862 5.72774 9.93645C5.46772 10.2143 5.11504 10.3704 4.74731 10.3704C4.37957 10.3704 4.0269 10.2143 3.76687 9.93645C3.50685 9.65862 3.36076 9.2818 3.36076 8.88889C3.36076 8.10306 3.65293 7.34942 4.17298 6.79376C4.69304 6.23809 5.39839 5.92593 6.13385 5.92593H33.1715C33.907 5.92593 34.6123 6.23809 35.1324 6.79376C35.6524 7.34942 35.9446 8.10306 35.9446 8.88889C35.9446 9.2818 35.7985 9.65862 35.5385 9.93645C35.2784 10.2143 34.9258 10.3704 34.558 10.3704C34.1903 10.3704 33.8376 10.2143 33.5776 9.93645C33.3176 9.65862 33.1715 9.2818 33.1715 8.88889H6.13385ZM8.90694 2.96296C8.90694 3.35588 8.76086 3.7327 8.50083 4.01053C8.24081 4.28836 7.88813 4.44444 7.5204 4.44444C7.15266 4.44444 6.79999 4.28836 6.53996 4.01053C6.27994 3.7327 6.13385 3.35588 6.13385 2.96296C6.13385 2.17714 6.42602 1.42349 6.94607 0.867832C7.46613 0.312168 8.17148 0 8.90694 0H30.3984C31.1339 0 31.8392 0.312168 32.3593 0.867832C32.8793 1.42349 33.1715 2.17714 33.1715 2.96296C33.1715 3.35588 33.0254 3.7327 32.7654 4.01053C32.5053 4.28836 32.1527 4.44444 31.7849 4.44444C31.4172 4.44444 31.0645 4.28836 30.8045 4.01053C30.5445 3.7327 30.3984 3.35588 30.3984 2.96296H8.90694Z" fill="#0171A1"/>
</svg>
