<svg width="40" height="40" viewBox="0 0 40 40" fill="none" xmlns="http://www.w3.org/2000/svg">
<path d="M28 9.53302L21.3333 13.4258V20.3695L28 16.5561V9.53302ZM27.1556 6.93574L20.0889 2.85167L12.8599 6.94477L20 11.1141L27.1556 6.93574ZM12 9.53302V16.556L18.6667 20.3681V13.4258L12 9.53302ZM30.6667 36.3857L37.3333 32.5723V24.8822L30.6667 28.7779V36.3857ZM28 36.3857V28.7794L21.3333 24.9672V32.5723L28 36.3857ZM2.66667 24.8819V32.5723L9.33333 36.3857V28.7747L2.66667 24.8819ZM4.09614 22.6262L10.6735 26.4669L17.3137 22.6687L10.6668 18.8678L4.09614 22.6262ZM29.3333 18.8679L22.6892 22.6683L29.332 26.4669L35.9041 22.6264L29.3333 18.8679ZM12 36.3857L18.6667 32.5723V24.9693L12 28.7826V36.3857ZM9.33333 16.5561V6.73101C9.33333 6.20185 9.6178 5.71363 10.0779 5.45311L19.373 0.190258C19.825 -0.0656973 20.3786 -0.0632488 20.8284 0.196695L29.9333 5.45876C30.3871 5.72102 30.6667 6.2057 30.6667 6.73022V16.5561L39.261 21.4721C39.718 21.7335 40 22.22 40 22.7468V33.2694C40 33.7962 39.718 34.2827 39.261 34.5441L30.061 39.8066C29.6101 40.0645 29.0566 40.0645 28.6057 39.8066L20 34.8841L11.3943 39.8066C10.9434 40.0645 10.3899 40.0645 9.939 39.8066L0.738996 34.5441C0.28202 34.2827 0 33.7962 0 33.2694V22.7468C0 22.22 0.28202 21.7335 0.738996 21.4721L9.33333 16.5561Z" fill="#0171A1"/>
</svg>
