<svg width="39" height="42" viewBox="0 0 39 42" fill="none" xmlns="http://www.w3.org/2000/svg">
<path fill-rule="evenodd" clip-rule="evenodd" d="M36.2702 28.9655C37.7778 28.9655 39 30.2623 39 31.8621V39.1034C39 40.7032 37.7778 42 36.2702 42H25.3512C24.3408 42 23.4586 41.4175 22.9866 40.5517H5.46016C5.21884 40.5517 4.9778 40.5347 4.73861 40.5009C1.74984 40.0781 -0.349979 37.1644 0.0485227 33.993L0.550256 30.0001C0.772127 28.2344 1.98724 26.7912 3.61588 26.3592L10.0065 24.6639C10.7378 24.4699 11.4788 24.9417 11.6616 25.7177C11.8444 26.4937 11.3998 27.28 10.6685 27.474L4.27795 29.1693C3.73507 29.3133 3.33003 29.7943 3.25607 30.3829L2.75434 34.3758C2.55509 35.9615 3.605 37.4183 5.09938 37.6298C5.21898 37.6467 5.3395 37.6552 5.46016 37.6552H22.6214V31.8621C22.6214 30.2623 23.8436 28.9655 25.3512 28.9655C25.3512 25.7661 27.7955 23.1724 30.8107 23.1724C33.8259 23.1724 36.2702 25.7661 36.2702 28.9655ZM33.5405 28.9655C33.5405 27.3658 32.3183 26.069 30.8107 26.069C29.3031 26.069 28.0809 27.3658 28.0809 28.9655H33.5405ZM23.7659 6.40031L22.9682 5.97708C22.7571 5.86511 22.5064 5.8768 22.3054 6.00803C21.0459 6.83026 19.7863 7.24138 18.5268 7.24138C17.2672 7.24138 16.0077 6.83026 14.7481 6.00802C14.5471 5.87678 14.2965 5.86509 14.0853 5.97709L13.2886 6.39979C12.8177 7.44284 12.6179 8.63828 12.7727 9.87029L13.6986 17.2387C14.0213 19.8065 16.0855 21.7241 18.5268 21.7241C20.9681 21.7241 23.0323 19.8065 23.3549 17.2387L24.2808 9.87029C24.3147 9.60043 24.3318 9.32847 24.3318 9.05621C24.3318 8.10518 24.1286 7.20449 23.7659 6.40031ZM18.5268 0C23.2404 0 27.0615 4.0546 27.0615 9.05621C27.0615 9.4565 27.0365 9.85634 26.9867 10.2531L26.0608 17.6215C25.5573 21.6283 22.3363 24.6207 18.5268 24.6207C14.7173 24.6207 11.4963 21.6283 10.9928 17.6215L10.0669 10.2531C9.44394 5.29538 12.7265 0.740473 17.3988 0.079442C17.7727 0.0265389 18.1495 0 18.5268 0ZM25.3512 31.8621V39.1034H36.2702V31.8621H25.3512Z" fill="#0171A1"/>
</svg>
