<svg width="24" height="24" viewBox="0 0 24 24" fill="none" xmlns="http://www.w3.org/2000/svg">
<path fill-rule="evenodd" clip-rule="evenodd" d="M11 4C11 3.44771 11.4477 3 12 3H23C23.5523 3 24 3.44772 24 4V13C24 13.5523 23.5523 14 23 14H12C11.4477 14 11 13.5523 11 13V4ZM12.5 4.5H22.5V12.5H12.5V4.5ZM2.49933 18.7829H1.1141C0.967706 18.7832 0.822687 18.7539 0.687371 18.6968C0.552056 18.6396 0.429109 18.5556 0.325591 18.4497C0.222072 18.3438 0.14002 18.2179 0.0841467 18.0795C0.028273 17.941 -0.000322228 17.7926 2.73895e-06 17.6428V12.5403C0.000381779 12.159 0.106355 11.7855 0.305641 11.4633L3.57893 6.19435C3.68791 6.01866 3.83872 5.87419 4.01721 5.77448C4.1957 5.67478 4.39602 5.62311 4.59937 5.62432H9.5512C9.75712 5.62432 9.9546 5.70803 10.1002 5.85702C10.2458 6.00602 10.3276 6.20811 10.3276 6.41883V14.0789C10.3276 14.22 10.3824 14.3554 10.4799 14.4552C10.5775 14.555 10.8477 14.6111 10.8477 14.6111H24V17.6428C24.0003 17.7926 23.9717 17.941 23.9159 18.0795C23.86 18.2179 23.7779 18.3438 23.6744 18.4497C23.5709 18.5556 23.4479 18.6396 23.3126 18.6968C23.1773 18.7539 23.0323 18.7832 22.8859 18.7829H21.2912C21.1131 19.425 20.7341 19.9896 20.2123 20.3901C19.6905 20.7906 19.0546 21.0048 18.4024 20.9999C17.7494 21.0018 17.1135 20.7866 16.5903 20.3868C16.0671 19.9869 15.685 19.4241 15.5013 18.7829H8.27442C8.09639 19.425 7.71739 19.9896 7.19556 20.3901C6.67374 20.7906 6.03791 21.0048 5.38564 20.9999C4.73519 20.9985 4.10264 20.7818 3.58244 20.3822C3.06223 19.9826 2.68229 19.4216 2.49933 18.7829ZM19.4594 16.8379C19.1787 16.5502 18.7996 16.3857 18.4024 16.3792C18.1051 16.3792 17.8145 16.4693 17.5673 16.6383C17.3201 16.8072 17.1274 17.0474 17.0135 17.3284C16.8997 17.6094 16.8697 17.9186 16.9276 18.217C16.9854 18.5153 17.1283 18.7895 17.3383 19.0048C17.5484 19.22 17.8161 19.3668 18.1075 19.4264C18.399 19.4861 18.7013 19.456 18.9761 19.3399C19.2508 19.2238 19.4858 19.027 19.6513 18.7743C19.8168 18.5217 19.9054 18.2244 19.9059 17.9203C19.9002 17.5138 19.74 17.1256 19.4594 16.8379ZM4.3295 19.001C4.61011 19.2881 4.98886 19.4523 5.38564 19.4588C5.78401 19.4575 6.16569 19.295 6.44737 19.0067C6.72906 18.7185 6.88789 18.3279 6.88919 17.9203C6.88347 17.5138 6.7233 17.1256 6.44263 16.8379C6.16196 16.5502 5.78285 16.3857 5.38564 16.3792C4.98685 16.3805 4.60481 16.5434 4.32305 16.8322C4.04129 17.121 3.88275 17.5122 3.8821 17.9203C3.88845 18.3263 4.0489 18.7139 4.3295 19.001ZM4.74232 7.62194L2.42785 11.3448H2.42293C2.3965 11.3874 2.38172 11.4365 2.38011 11.4869C2.37851 11.5373 2.39013 11.5873 2.41378 11.6316C2.43743 11.6759 2.47225 11.7129 2.5146 11.7387C2.55695 11.7646 2.6053 11.7783 2.65462 11.7786H7.06419C7.10086 11.7786 7.13717 11.7711 7.17098 11.7566C7.2048 11.7421 7.23546 11.7208 7.26116 11.6941C7.28686 11.6673 7.30709 11.6356 7.32067 11.6007C7.33425 11.5659 7.34091 11.5286 7.34025 11.4911V7.77327C7.34025 7.69835 7.31116 7.6265 7.25939 7.57352C7.20762 7.52054 7.13741 7.49078 7.06419 7.49078H4.97402C4.92775 7.49102 4.88229 7.50316 4.8418 7.52608C4.80132 7.54899 4.76711 7.58196 4.74232 7.62194Z" fill="#819FB2"/>
</svg>
