<svg width="24" height="24" viewBox="0 0 24 24" fill="none" xmlns="http://www.w3.org/2000/svg">
<path fill-rule="evenodd" clip-rule="evenodd" d="M13 4C13 3.44771 12.5523 3 12 3H1C0.447716 3 0 3.44772 0 4V13C0 13.5523 0.447716 14 1 14H12C12.5523 14 13 13.5523 13 13V4ZM11.5 4.5H1.5V12.5H11.5V4.5ZM21.5007 18.7829H22.8859C23.0323 18.7832 23.1773 18.7539 23.3126 18.6968C23.4479 18.6396 23.5709 18.5556 23.6744 18.4497C23.7779 18.3438 23.86 18.2179 23.9159 18.0795C23.9717 17.941 24.0003 17.7926 24 17.6428V12.5403C23.9996 12.159 23.8936 11.7855 23.6944 11.4633L20.4211 6.19435C20.3121 6.01866 20.1613 5.87419 19.9828 5.77448C19.8043 5.67478 19.604 5.62311 19.4006 5.62432H14.4488C14.2429 5.62432 14.0454 5.70803 13.8998 5.85702C13.7542 6.00602 13.6724 6.20811 13.6724 6.41883V14.0789C13.6724 14.22 13.6176 14.3554 13.5201 14.4552C13.4225 14.555 13.1523 14.6111 13.1523 14.6111H1.90735e-06V17.6428C-0.000322342 17.7926 0.0282707 17.941 0.0841446 18.0795C0.140018 18.2179 0.222071 18.3438 0.32559 18.4497C0.42911 18.5556 0.552055 18.6396 0.68737 18.6968C0.822685 18.7539 0.967705 18.7832 1.1141 18.7829H2.70884C2.88687 19.425 3.26587 19.9896 3.7877 20.3901C4.30953 20.7906 4.94535 21.0048 5.59762 20.9999C6.2506 21.0018 6.88651 20.7866 7.4097 20.3868C7.93288 19.9869 8.31505 19.4241 8.49872 18.7829H15.7256C15.9036 19.425 16.2826 19.9896 16.8044 20.3901C17.3263 20.7906 17.9621 21.0048 18.6144 20.9999C19.2648 20.9985 19.8974 20.7818 20.4176 20.3822C20.9378 19.9826 21.3177 19.4216 21.5007 18.7829ZM4.54063 16.8379C4.8213 16.5502 5.20041 16.3857 5.59762 16.3792C5.89489 16.3792 6.18548 16.4693 6.43269 16.6383C6.67989 16.8072 6.8726 17.0474 6.98647 17.3284C7.10035 17.6094 7.13026 17.9186 7.07245 18.217C7.01463 18.5153 6.87168 18.7895 6.66165 19.0048C6.45162 19.22 6.18395 19.3668 5.89245 19.4264C5.60096 19.4861 5.29872 19.456 5.02394 19.3399C4.74916 19.2238 4.51417 19.027 4.34867 18.7743C4.18316 18.5217 4.09456 18.2244 4.09407 17.9203C4.09979 17.5138 4.25996 17.1256 4.54063 16.8379ZM19.6705 19.001C19.3899 19.2881 19.0111 19.4523 18.6144 19.4588C18.216 19.4575 17.8343 19.295 17.5526 19.0067C17.2709 18.7185 17.1121 18.3279 17.1108 17.9203C17.1165 17.5138 17.2767 17.1256 17.5574 16.8379C17.838 16.5502 18.2172 16.3857 18.6144 16.3792C19.0131 16.3805 19.3952 16.5434 19.677 16.8322C19.9587 17.121 20.1172 17.5122 20.1179 17.9203C20.1115 18.3263 19.9511 18.7139 19.6705 19.001ZM19.2577 7.62194L21.5721 11.3448H21.5771C21.6035 11.3874 21.6183 11.4365 21.6199 11.4869C21.6215 11.5373 21.6099 11.5873 21.5862 11.6316C21.5626 11.6759 21.5278 11.7129 21.4854 11.7387C21.443 11.7646 21.3947 11.7783 21.3454 11.7786H16.9358C16.8991 11.7786 16.8628 11.7711 16.829 11.7566C16.7952 11.7421 16.7645 11.7208 16.7388 11.6941C16.7131 11.6673 16.6929 11.6356 16.6793 11.6007C16.6658 11.5659 16.6591 11.5286 16.6597 11.4911V7.77327C16.6597 7.69835 16.6888 7.6265 16.7406 7.57352C16.7924 7.52054 16.8626 7.49078 16.9358 7.49078H19.026C19.0722 7.49102 19.1177 7.50316 19.1582 7.52608C19.1987 7.54899 19.2329 7.58196 19.2577 7.62194Z" fill="#0171A1"/>
</svg>
