<svg width="40" height="42" viewBox="0 0 40 42" fill="none" xmlns="http://www.w3.org/2000/svg">
<path d="M8.57143 16.8526L2.85714 13.9745V28.4949C2.85714 29.5537 3.43426 30.527 4.35971 31.029L18.5714 38.7377V21.8894L11.4286 18.2917V27.4758C11.4286 28.2706 10.789 28.9149 10 28.9149C9.21102 28.9149 8.57143 28.2706 8.57143 27.4758V16.8526ZM10.6701 14.6918L20.042 9.65672C20.7382 9.28271 21.6035 9.54801 21.9748 10.2493C22.3461 10.9506 22.0827 11.8222 21.3866 12.1963L13.8037 16.2702L20 19.3911L36.1002 11.2818C35.9588 11.1647 35.8051 11.0604 35.6403 10.971L21.3546 3.22217C20.5089 2.76347 19.4911 2.76347 18.6454 3.22217L4.35971 10.971C4.19494 11.0604 4.04121 11.1647 3.89981 11.2818L10.6701 14.6918ZM21.4286 38.7377L35.6403 31.029C36.5657 30.527 37.1429 29.5537 37.1429 28.4949V13.9745L21.4286 21.8894V38.7377ZM3.00514 8.43689L17.2909 0.688043C18.9822 -0.229348 21.0178 -0.229348 22.7091 0.688043L36.9949 8.43689C38.8458 9.44087 40 11.3875 40 13.5051V28.4949C40 30.6125 38.8458 32.5591 36.9949 33.5631L22.7091 41.312C21.0178 42.2293 18.9822 42.2293 17.2909 41.312L3.00514 33.5631C1.15423 32.5591 0 30.6125 0 28.4949V13.5051C0 11.3875 1.15423 9.44087 3.00514 8.43689ZM26.3734 33.2137C25.6734 33.5804 24.8108 33.306 24.4468 32.6009C24.0828 31.8957 24.3552 31.0269 25.0552 30.6602L32.1981 26.9186C32.8981 26.5519 33.7606 26.8263 34.1246 27.5314C34.4886 28.2366 34.2162 29.1055 33.5162 29.4721L26.3734 33.2137Z" fill="#0171A1"/>
</svg>
