<svg width="48" height="48" viewBox="0 0 48 48" fill="none" xmlns="http://www.w3.org/2000/svg">
<path d="M21.2542 3.9452C22.8585 2.68493 25.1415 2.68493 26.7458 3.9452L41.8583 15.8172C42.8961 16.6325 43.5 17.8649 43.5 19.1677V40.7043C43.5 43.0767 41.5356 45 39.1125 45H33.2625C30.8394 45 28.875 43.0767 28.875 40.7043V29.2491C28.875 28.4583 28.2202 27.8172 27.4125 27.8172H20.5875C19.7798 27.8172 19.125 28.4583 19.125 29.2491V40.7043C19.125 43.0767 17.1606 45 14.7375 45H8.8875C6.46435 45 4.5 43.0767 4.5 40.7043V19.1677C4.5 17.8649 5.10386 16.6325 6.14172 15.8172L21.2542 3.9452ZM24.9153 6.17887C24.3804 5.75879 23.6195 5.75879 23.0847 6.17887L7.97225 18.0509C7.62628 18.3227 7.425 18.7334 7.425 19.1677V40.7043C7.425 41.4951 8.07979 42.1362 8.8875 42.1362H14.7375C15.5452 42.1362 16.2 41.4951 16.2 40.7043V29.2491C16.2 26.8767 18.1644 24.9534 20.5875 24.9534H27.4125C29.8356 24.9534 31.8 26.8767 31.8 29.2491V40.7043C31.8 41.4951 32.4548 42.1362 33.2625 42.1362H39.1125C39.9202 42.1362 40.575 41.4951 40.575 40.7043V19.1677C40.575 18.7334 40.3737 18.3227 40.0278 18.0509L24.9153 6.17887Z" fill="#0171A1"/>
</svg>
