<svg width="24" height="24" viewBox="0 0 24 24" fill="none" xmlns="http://www.w3.org/2000/svg">
<path d="M20.0667 2C21.6867 2 23 3.33647 23 4.98508V15.4329C23 17.0814 21.6867 18.4179 20.0667 18.4179H15.6802C15.4456 18.4179 15.2251 18.5322 15.0872 18.7253L13.1861 21.3852C12.7097 22.0519 11.7924 22.1993 11.1374 21.7144C11.0133 21.6226 10.9041 21.5115 10.8139 21.3852L8.91288 18.7253C8.77488 18.5322 8.55443 18.4179 8.3198 18.4179H3.93333C2.3133 18.4179 1 17.0814 1 15.4329V4.98508C1 3.33647 2.3133 2 3.93333 2H20.0667ZM8.33333 9.46271C7.72583 9.46271 7.23333 9.96387 7.23333 10.5821C7.23333 11.2003 7.72583 11.7015 8.33333 11.7015C8.94085 11.7015 9.43333 11.2003 9.43333 10.5821C9.43333 9.96387 8.94085 9.46271 8.33333 9.46271ZM12 9.46271C11.3925 9.46271 10.9 9.96387 10.9 10.5821C10.9 11.2003 11.3925 11.7015 12 11.7015C12.6075 11.7015 13.1 11.2003 13.1 10.5821C13.1 9.96387 12.6075 9.46271 12 9.46271ZM15.6667 9.46271C15.0591 9.46271 14.5667 9.96387 14.5667 10.5821C14.5667 11.2003 15.0591 11.7015 15.6667 11.7015C16.2742 11.7015 16.7667 11.2003 16.7667 10.5821C16.7667 9.96387 16.2742 9.46271 15.6667 9.46271Z" fill="#EB9B26"/>
</svg>
