<svg width="24" height="24" viewBox="0 0 24 24" fill="none" xmlns="http://www.w3.org/2000/svg">
<path fill-rule="evenodd" clip-rule="evenodd" d="M18.4166 8.33343H20.25C21.7683 8.33343 23 9.56515 23 11.0834H22.9992C22.9992 12.6017 21.7683 13.8315 20.25 13.8334V15.6666H18.4166V13.8334C16.8983 13.8334 15.6666 12.6017 15.6666 11.0834H17.5C17.5 11.59 17.91 12 18.4166 12H20.2481C20.7549 12 21.1649 11.59 21.1649 11.0834H21.1666C21.1666 10.5766 20.7568 10.1666 20.25 10.1666H18.4166C16.8983 10.1666 15.6666 8.93485 15.6666 7.41657C15.6666 5.89775 16.8983 4.66658 18.4166 4.66658V2.83343H20.25V4.66658C21.7683 4.66658 23 5.8983 23 7.41657H21.1666C21.1666 6.91003 20.7568 6.5 20.25 6.5H18.4166C17.91 6.5 17.5 6.91003 17.5 7.41657C17.5 7.9234 17.91 8.33343 18.4166 8.33343ZM1 19.3334V1H13.8334V15.6666H8.33343V19.3334C8.33343 21.3582 6.6914 23 4.66658 23C2.64175 23 1 21.3582 1 19.3334ZM8.33343 2.83343H2.83343V4.66658H8.33343V2.83343ZM2.83343 15.6666H6.5V13.8334H2.83343V15.6666ZM2.83343 12H10.1666V10.1666H2.83343V12ZM2.83343 8.33343H12V6.5H2.83343V8.33343ZM10.1666 19.3334V17.5H20.25V19.3334C20.25 21.3582 18.6082 23 16.5834 23H8.7539C9.6295 22.0259 10.1666 20.7423 10.1666 19.3334Z" fill="#0171A1"/>
</svg>
