<svg width="24" height="24" viewBox="0 0 24 24" fill="none" xmlns="http://www.w3.org/2000/svg">
<path d="M1.1141 18.7829H2.49933C2.68229 19.4216 3.06223 19.9826 3.58244 20.3822C4.10264 20.7818 4.73519 20.9985 5.38564 20.9999C6.03791 21.0048 6.67374 20.7906 7.19556 20.3901C7.71739 19.9896 8.09639 19.425 8.27442 18.7829H15.5013C15.685 19.4241 16.0671 19.9869 16.5903 20.3868C17.1135 20.7866 17.7494 21.0018 18.4024 20.9999C19.0546 21.0048 19.6905 20.7906 20.2123 20.3901C20.7341 19.9896 21.1131 19.425 21.2912 18.7829H22.8859C23.0323 18.7832 23.1773 18.7539 23.3126 18.6968C23.4479 18.6396 23.5709 18.5556 23.6744 18.4497C23.7779 18.3438 23.86 18.218 23.9159 18.0795C23.9717 17.941 24.0003 17.7926 24 17.6428V5.1451C24 4.8414 23.8821 4.55014 23.6722 4.33539C23.4624 4.12064 23.1778 4 22.881 4H12.4868C12.19 4 11.9054 4.12064 11.6955 4.33539C11.4857 4.55014 11.3678 4.8414 11.3678 5.1451V14.0789C11.3678 14.22 11.313 14.3554 11.2154 14.4552C11.1179 14.555 10.9856 14.6111 10.8477 14.6111C10.7098 14.6111 10.5775 14.555 10.4799 14.4552C10.3824 14.3554 10.3276 14.22 10.3276 14.0789V6.41883C10.3276 6.20812 10.2458 6.00603 10.1002 5.85703C9.9546 5.70803 9.75712 5.62432 9.5512 5.62432H4.59937C4.39602 5.62311 4.1957 5.67478 4.01721 5.77449C3.83872 5.87419 3.68791 6.01867 3.57893 6.19435L0.305641 11.4633C0.106355 11.7856 0.000381779 12.159 2.73895e-06 12.5403V17.6428C-0.000322228 17.7926 0.028273 17.941 0.0841467 18.0795C0.14002 18.218 0.222072 18.3438 0.325591 18.4497C0.429109 18.5556 0.552056 18.6396 0.687371 18.6968C0.822687 18.7539 0.967707 18.7832 1.1141 18.7829ZM18.4024 16.3792C18.7996 16.3857 19.1787 16.5502 19.4594 16.8379C19.74 17.1256 19.9002 17.5138 19.9059 17.9203C19.9054 18.2245 19.8168 18.5217 19.6513 18.7744C19.4858 19.027 19.2508 19.2238 18.9761 19.3399C18.7013 19.456 18.399 19.4861 18.1075 19.4264C17.8161 19.3668 17.5484 19.2201 17.3383 19.0048C17.1283 18.7895 16.9854 18.5154 16.9276 18.217C16.8697 17.9186 16.8997 17.6094 17.0135 17.3284C17.1274 17.0474 17.3201 16.8072 17.5673 16.6383C17.8145 16.4693 18.1051 16.3792 18.4024 16.3792ZM5.38564 19.4588C4.98886 19.4523 4.61011 19.2881 4.3295 19.001C4.0489 18.7139 3.88845 18.3263 3.8821 17.9203C3.88275 17.5122 4.04129 17.121 4.32305 16.8322C4.60481 16.5434 4.98685 16.3805 5.38564 16.3792C5.78285 16.3857 6.16196 16.5502 6.44263 16.8379C6.7233 17.1256 6.88347 17.5138 6.88919 17.9203C6.88789 18.3279 6.72906 18.7185 6.44737 19.0067C6.16569 19.295 5.78401 19.4575 5.38564 19.4588ZM2.42785 11.3448L4.74232 7.62194C4.76711 7.58196 4.80132 7.549 4.8418 7.52608C4.88229 7.50317 4.92775 7.49103 4.97402 7.49078H7.06419C7.13741 7.49078 7.20762 7.52055 7.25939 7.57352C7.31117 7.6265 7.34025 7.69835 7.34025 7.77328V11.4911C7.34091 11.5286 7.33425 11.5659 7.32067 11.6007C7.30709 11.6356 7.28686 11.6673 7.26116 11.6941C7.23546 11.7209 7.2048 11.7421 7.17098 11.7566C7.13717 11.7711 7.10086 11.7786 7.06419 11.7786H2.65462C2.6053 11.7783 2.55695 11.7646 2.5146 11.7387C2.47225 11.7129 2.43743 11.6759 2.41378 11.6316C2.39013 11.5873 2.37851 11.5373 2.38011 11.4869C2.38172 11.4365 2.3965 11.3874 2.42293 11.3448H2.42785Z" fill="#819FB2"/>
</svg>
