<svg width="24" height="24" viewBox="0 0 24 24" fill="none" xmlns="http://www.w3.org/2000/svg">
<path d="M22.8859 18.7829H21.5007C21.3177 19.4216 20.9378 19.9826 20.4176 20.3822C19.8974 20.7818 19.2648 20.9985 18.6144 20.9999C17.9621 21.0048 17.3263 20.7906 16.8044 20.3901C16.2826 19.9896 15.9036 19.425 15.7256 18.7829H8.49872C8.31505 19.4241 7.93288 19.9869 7.4097 20.3868C6.88651 20.7866 6.2506 21.0018 5.59762 20.9999C4.94535 21.0048 4.30953 20.7906 3.7877 20.3901C3.26587 19.9896 2.88687 19.425 2.70884 18.7829H1.1141C0.967704 18.7832 0.822686 18.7539 0.68737 18.6968C0.552054 18.6396 0.429108 18.5556 0.32559 18.4497C0.222071 18.3438 0.140019 18.218 0.0841451 18.0795C0.0282714 17.941 -0.000323368 17.7926 1.59859e-06 17.6428V5.1451C1.59859e-06 4.8414 0.117899 4.55014 0.327758 4.33539C0.537617 4.12064 0.822247 4 1.11903 4H11.5132C11.81 4 12.0946 4.12064 12.3045 4.33539C12.5143 4.55014 12.6322 4.8414 12.6322 5.1451V14.0789C12.6322 14.22 12.687 14.3554 12.7846 14.4552C12.8821 14.555 13.0144 14.6111 13.1523 14.6111C13.2902 14.6111 13.4225 14.555 13.5201 14.4552C13.6176 14.3554 13.6724 14.22 13.6724 14.0789V6.41883C13.6724 6.20812 13.7542 6.00603 13.8998 5.85703C14.0454 5.70803 14.2429 5.62432 14.4488 5.62432H19.4006C19.604 5.62311 19.8043 5.67478 19.9828 5.77449C20.1613 5.87419 20.3121 6.01867 20.4211 6.19435L23.6944 11.4633C23.8936 11.7856 23.9996 12.159 24 12.5403V17.6428C24.0003 17.7926 23.9717 17.941 23.9159 18.0795C23.86 18.218 23.7779 18.3438 23.6744 18.4497C23.5709 18.5556 23.4479 18.6396 23.3126 18.6968C23.1773 18.7539 23.0323 18.7832 22.8859 18.7829V18.7829ZM5.59762 16.3792C5.20041 16.3857 4.8213 16.5502 4.54063 16.8379C4.25996 17.1256 4.09979 17.5138 4.09408 17.9203C4.09456 18.2245 4.18316 18.5217 4.34866 18.7744C4.51417 19.027 4.74916 19.2238 5.02394 19.3399C5.29872 19.456 5.60096 19.4861 5.89245 19.4264C6.18395 19.3668 6.45162 19.2201 6.66165 19.0048C6.87168 18.7895 7.01463 18.5154 7.07245 18.217C7.13026 17.9186 7.10035 17.6094 6.98647 17.3284C6.8726 17.0474 6.67989 16.8072 6.43269 16.6383C6.18548 16.4693 5.89489 16.3792 5.59762 16.3792V16.3792ZM18.6144 19.4588C19.0111 19.4523 19.3899 19.2881 19.6705 19.001C19.9511 18.7139 20.1115 18.3263 20.1179 17.9203C20.1172 17.5122 19.9587 17.121 19.677 16.8322C19.3952 16.5434 19.0131 16.3805 18.6144 16.3792C18.2172 16.3857 17.838 16.5502 17.5574 16.8379C17.2767 17.1256 17.1165 17.5138 17.1108 17.9203C17.1121 18.3279 17.2709 18.7185 17.5526 19.0067C17.8343 19.295 18.216 19.4575 18.6144 19.4588V19.4588ZM21.5721 11.3448L19.2577 7.62194C19.2329 7.58196 19.1987 7.549 19.1582 7.52608C19.1177 7.50317 19.0722 7.49103 19.026 7.49078H16.9358C16.8626 7.49078 16.7924 7.52055 16.7406 7.57352C16.6888 7.6265 16.6597 7.69835 16.6597 7.77328V11.4911C16.6591 11.5286 16.6658 11.5659 16.6793 11.6007C16.6929 11.6356 16.7131 11.6673 16.7388 11.6941C16.7645 11.7209 16.7952 11.7421 16.829 11.7566C16.8628 11.7711 16.8991 11.7786 16.9358 11.7786H21.3454C21.3947 11.7783 21.443 11.7646 21.4854 11.7387C21.5278 11.7129 21.5626 11.6759 21.5862 11.6316C21.6099 11.5873 21.6215 11.5373 21.6199 11.4869C21.6183 11.4365 21.6035 11.3874 21.5771 11.3448H21.5721Z" fill="#819FB2"/>
</svg>
