<svg width="40" height="40" viewBox="0 0 40 40" fill="none" xmlns="http://www.w3.org/2000/svg">
<path d="M20 38C29.9411 38 38 29.9411 38 20C38 10.0589 29.9411 2 20 2C10.0589 2 2 10.0589 2 20C2 29.9411 10.0589 38 20 38ZM20 35.3004C11.5498 35.3004 4.69958 28.4502 4.69958 20C4.69958 11.5498 11.5498 4.69958 20 4.69958C28.4502 4.69958 35.3004 11.5498 35.3004 20C35.3004 28.4502 28.4502 35.3004 20 35.3004ZM19.9934 22.7013C20.6768 22.7018 21.2419 22.1943 21.3317 21.5356L21.3441 21.3524L21.3506 11.4511C21.3511 10.7056 20.7472 10.1009 20.0017 10.1004C19.3183 10.1 18.7533 10.6074 18.6635 11.2662L18.651 11.4493L18.6445 21.3506C18.644 22.0961 19.248 22.7008 19.9934 22.7013ZM20.0008 28.9963C20.9934 28.9963 21.7981 28.1916 21.7981 27.199C21.7981 26.2064 20.9934 25.4017 20.0008 25.4017C19.0082 25.4017 18.2035 26.2064 18.2035 27.199C18.2035 28.1916 19.0082 28.9963 20.0008 28.9963Z" fill="#EB9B26"/>
</svg>
