<svg width="16" height="16" viewBox="0 0 16 16" fill="none" xmlns="http://www.w3.org/2000/svg">
<path d="M8.00078 15.2C11.9772 15.2 15.2008 11.9764 15.2008 7.99999C15.2008 4.02354 11.9772 0.799988 8.00078 0.799988C4.02433 0.799988 0.800781 4.02354 0.800781 7.99999C0.800781 11.9764 4.02433 15.2 8.00078 15.2ZM8.00078 14.1202C4.62071 14.1202 1.88061 11.3801 1.88061 7.99999C1.88061 4.61991 4.62071 1.87982 8.00078 1.87982C11.3809 1.87982 14.1209 4.61991 14.1209 7.99999C14.1209 11.3801 11.3809 14.1202 8.00078 14.1202ZM7.99816 9.08052C8.2715 9.08069 8.49753 8.87772 8.53345 8.61421L8.53843 8.54095L8.54102 4.58042C8.54121 4.28223 8.29964 4.04034 8.00146 4.04015C7.72812 4.03997 7.50209 4.24294 7.46616 4.50645L7.46119 4.57971L7.45859 8.54025C7.4584 8.83843 7.69997 9.08032 7.99816 9.08052ZM8.0011 11.5985C8.39816 11.5985 8.72003 11.2766 8.72003 10.8796C8.72003 10.4825 8.39816 10.1607 8.0011 10.1607C7.60405 10.1607 7.28218 10.4825 7.28218 10.8796C7.28218 11.2766 7.60405 11.5985 8.0011 11.5985Z" fill="white"/>
</svg>
