<svg width="16" height="16" viewBox="0 0 16 16" fill="none" xmlns="http://www.w3.org/2000/svg">
<path d="M7.99999 0.800049C11.9764 0.800049 15.2 4.0236 15.2 8.00005C15.2 11.9765 11.9764 15.2 7.99999 15.2C4.02354 15.2 0.799988 11.9765 0.799988 8.00005C0.799988 4.0236 4.02354 0.800049 7.99999 0.800049ZM7.99999 1.87988C4.61991 1.87988 1.87982 4.61997 1.87982 8.00005C1.87982 11.3801 4.61991 14.1202 7.99999 14.1202C11.3801 14.1202 14.1202 11.3801 14.1202 8.00005C14.1202 4.61997 11.3801 1.87988 7.99999 1.87988ZM7.99736 6.91952C8.2707 6.91934 8.49673 7.12231 8.53266 7.38582L8.53763 7.45908L8.54023 11.4196C8.54042 11.7178 8.29885 11.9597 8.00066 11.9599C7.72732 11.9601 7.50129 11.7571 7.46537 11.4936L7.46039 11.4203L7.4578 7.45979C7.45761 7.1616 7.69918 6.91971 7.99736 6.91952ZM8.00031 4.40152C8.39736 4.40152 8.71924 4.72339 8.71924 5.12045C8.71924 5.5175 8.39736 5.83937 8.00031 5.83937C7.60326 5.83937 7.28138 5.5175 7.28138 5.12045C7.28138 4.72339 7.60326 4.40152 8.00031 4.40152Z" fill="#819FB2"/>
</svg>
