<svg width="16" height="16" viewBox="0 0 16 16" fill="none" xmlns="http://www.w3.org/2000/svg">
<path d="M4.19039 6.61755L2.28563 5.65817V10.4983C2.28563 10.8512 2.478 11.1757 2.78649 11.343L7.52373 13.9126V8.29647L5.14278 7.09724V10.1586C5.14278 10.4235 4.92958 10.6383 4.66659 10.6383C4.40359 10.6383 4.19039 10.4235 4.19039 10.1586V6.61755ZM4.88995 5.89727L8.01393 4.21891C8.24598 4.09424 8.53442 4.18267 8.65818 4.41643C8.78194 4.65019 8.69416 4.94075 8.4621 5.06542L5.9345 6.42339L7.99992 7.46369L13.3666 4.7606C13.3195 4.72157 13.2683 4.6868 13.2133 4.65701L8.45144 2.07406C8.16956 1.92116 7.83028 1.92116 7.5484 2.07406L2.78649 4.65701C2.73156 4.6868 2.68032 4.72157 2.63319 4.7606L4.88995 5.89727ZM8.47611 13.9126L13.2133 11.343C13.5218 11.1757 13.7142 10.8512 13.7142 10.4983V5.65817L8.47611 8.29647V13.9126ZM2.33497 3.8123L7.09687 1.22935C7.66064 0.923551 8.3392 0.923551 8.90297 1.22935L13.6649 3.8123C14.2818 4.14696 14.6666 4.79583 14.6666 5.50171V10.4983C14.6666 11.2042 14.2818 11.853 13.6649 12.1877L8.90297 14.7707C8.3392 15.0764 7.66064 15.0764 7.09687 14.7707L2.33497 12.1877C1.718 11.853 1.33325 11.2042 1.33325 10.4983V5.50171C1.33325 4.79583 1.718 4.14696 2.33497 3.8123ZM10.1244 12.0712C9.89104 12.1935 9.60353 12.102 9.4822 11.867C9.36086 11.6319 9.45166 11.3423 9.68499 11.2201L12.0659 9.97286C12.2993 9.85064 12.5868 9.9421 12.7081 10.1771C12.8295 10.4122 12.7387 10.7018 12.5053 10.824L10.1244 12.0712Z" fill="#4A4A4A"/>
</svg>
