<svg width="16" height="16" viewBox="0 0 16 16" fill="none" xmlns="http://www.w3.org/2000/svg">
<path d="M8 6.5C8.82361 6.5 9.49127 7.17157 9.49127 8C9.49127 8.82843 8.82361 9.5 8 9.5C7.17639 9.5 6.50873 8.82843 6.50873 8C6.50873 7.17157 7.17639 6.5 8 6.5ZM13.5087 6.5C14.3323 6.5 15 7.17157 15 8C15 8.82843 14.3323 9.5 13.5087 9.5C12.6851 9.5 12.0175 8.82843 12.0175 8C12.0175 7.17157 12.6851 6.5 13.5087 6.5ZM2.49127 6.5C3.31488 6.5 3.98254 7.17157 3.98254 8C3.98254 8.82843 3.31488 9.5 2.49127 9.5C1.66766 9.5 1 8.82843 1 8C1 7.17157 1.66766 6.5 2.49127 6.5Z" fill="#4A4A4A"/>
</svg>
