<svg width="66" height="53" viewBox="0 0 66 53" fill="none" xmlns="http://www.w3.org/2000/svg">
<path fill-rule="evenodd" clip-rule="evenodd" d="M20.0782 26.1786H7.4072C7.13105 26.1786 6.9072 26.4025 6.9072 26.6786V30.2874C6.9072 30.5635 7.13105 30.7874 7.40719 30.7874H20.0782C20.3544 30.7874 20.5782 30.5635 20.5782 30.2874V26.6786C20.5782 26.4025 20.3544 26.1786 20.0782 26.1786ZM23.5348 34.3599C23.5348 34.0838 23.311 33.8599 23.0348 33.8599H4.36933C4.09319 33.8599 3.86933 34.0838 3.86933 34.3599V37.9686C3.86933 38.2448 4.09319 38.4686 4.36933 38.4686H23.0348C23.311 38.4686 23.5348 38.2448 23.5348 37.9686V34.3599ZM31.8172 35.8218L27.4121 41.4671H1.47585C1.14871 41.4671 0.909702 41.7761 0.991881 42.0927L3.54251 51.9206C3.59973 52.1411 3.79871 52.295 4.02648 52.295H37.086C37.2969 52.295 37.4851 52.1627 37.5565 51.9642L43.121 36.491C43.2381 36.1652 42.9967 35.8218 42.6505 35.8218H31.8172ZM9.9452 46.1502C9.9452 46.9986 9.26512 47.6864 8.4262 47.6864C7.58728 47.6864 6.9072 46.9986 6.9072 46.1502C6.9072 45.3017 7.58728 44.6139 8.4262 44.6139C9.26512 44.6139 9.9452 45.3017 9.9452 46.1502ZM17.5411 47.6864C18.38 47.6864 19.0601 46.9986 19.0601 46.1502C19.0601 45.3017 18.38 44.6139 17.5411 44.6139C16.7022 44.6139 16.0221 45.3017 16.0221 46.1502C16.0221 46.9986 16.7022 47.6864 17.5411 47.6864ZM28.1737 46.1502C28.1737 46.9986 27.4936 47.6864 26.6547 47.6864C25.8158 47.6864 25.1357 46.9986 25.1357 46.1502C25.1357 45.3017 25.8158 44.6139 26.6547 44.6139C27.4936 44.6139 28.1737 45.3017 28.1737 46.1502Z" fill="#0171A1"/>
<path d="M30.0444 16.09L27.0837 9.25739C26.9747 9.00587 26.9938 8.71722 27.1349 8.4822C27.2552 8.28178 27.4528 8.13978 27.6811 8.08963L28.1335 7.99025C28.947 7.81155 29.7966 8.03882 30.4123 8.59979L35.347 13.0962L56.8216 8.69027C58.0396 8.44037 59.291 8.54753 60.5285 8.66822C60.677 8.6827 60.8157 8.69031 60.937 8.68837C61.7414 8.67556 64.344 9.06847 64.6349 10.4023C64.8677 11.4694 63.7667 12.644 63.0222 12.8625C62.2778 13.0809 51.4987 15.4452 51.4987 15.4452L42.4456 21.0493L39.3886 21.6097C39.2394 21.637 39.0854 21.6075 38.9568 21.527C38.6252 21.3192 38.5739 20.8566 38.852 20.5812L42.1491 17.3164L29.3275 18.0776C28.8369 18.1068 28.42 17.7231 28.4085 17.2318C28.3992 16.8366 28.6581 16.4851 29.0382 16.3768L30.0444 16.09Z" fill="#0171A1"/>
<rect x="47.136" y="38.0534" width="15.8331" height="1.31942" rx="0.659711" fill="#819FB2"/>
<rect width="15.8331" height="1.31942" rx="0.659711" transform="matrix(-1 -5.18986e-09 -5.18986e-09 1 21.8015 7.67181)" fill="#819FB2"/>
<rect x="45.8167" y="43.3311" width="13.1942" height="1.31942" rx="0.659711" fill="#819FB2"/>
<rect width="13.1942" height="1.31942" rx="0.659711" transform="matrix(-1 -5.18986e-09 -5.18986e-09 1 24.4407 12.9494)" fill="#819FB2"/>
<rect x="44.4973" y="48.6088" width="7.91653" height="1.31942" rx="0.659711" fill="#819FB2"/>
<rect width="7.91653" height="1.31942" rx="0.659711" transform="matrix(-1 -5.18986e-09 -5.18986e-09 1 25.7607 18.2273)" fill="#819FB2"/>
</svg>
