<svg width="16" height="16" viewBox="0 0 16 16" fill="none" xmlns="http://www.w3.org/2000/svg">
<path fill-rule="evenodd" clip-rule="evenodd" d="M6.94517 3H2.71051C2.43437 3 2.21051 3.22386 2.21051 3.5V4.2647C2.21051 4.54084 2.43437 4.7647 2.71051 4.7647H6.94517C7.22131 4.7647 7.44517 4.54084 7.44517 4.2647V3.5C7.44517 3.22386 7.22131 3 6.94517 3ZM8.57712 6.44116C8.57712 6.16502 8.35326 5.94116 8.07712 5.94116H1.54717C1.27103 5.94116 1.04717 6.16502 1.04717 6.44116V7.20586C1.04717 7.48201 1.27103 7.70586 1.54717 7.70586H8.07712C8.35326 7.70586 8.57712 7.48201 8.57712 7.20586V6.44116ZM11.7483 6.69238L10.0616 8.85398H0.529437C0.202302 8.85398 -0.0367087 9.16294 0.0454697 9.47958L0.861954 12.6256C0.91917 12.8461 1.11815 13 1.34592 13H13.5488C13.7597 13 13.948 12.8677 14.0193 12.6692L15.9281 7.36158C16.0452 7.03578 15.8038 6.69238 15.4576 6.69238H11.7483ZM3.37376 10.6471C3.37376 10.972 3.11336 11.2354 2.79213 11.2354C2.47091 11.2354 2.21051 10.972 2.21051 10.6471C2.21051 10.3223 2.47091 10.0589 2.79213 10.0589C3.11336 10.0589 3.37376 10.3223 3.37376 10.6471ZM6.28207 11.2354C6.6033 11.2354 6.8637 10.972 6.8637 10.6471C6.8637 10.3223 6.6033 10.0589 6.28207 10.0589C5.96085 10.0589 5.70045 10.3223 5.70045 10.6471C5.70045 10.972 5.96085 11.2354 6.28207 11.2354ZM10.3534 10.6471C10.3534 10.972 10.0929 11.2354 9.77172 11.2354C9.4505 11.2354 9.1901 10.972 9.1901 10.6471C9.1901 10.3223 9.4505 10.0589 9.77172 10.0589C10.0929 10.0589 10.3534 10.3223 10.3534 10.6471Z" fill="#6D858F"/>
</svg>
