<svg width="16" height="16" viewBox="0 0 16 16" fill="none" xmlns="http://www.w3.org/2000/svg">
<path fill-rule="evenodd" clip-rule="evenodd" d="M0.872727 4.06489C0.872727 3.64971 1.201 3.30813 1.6 3.30813H14.4C14.799 3.30813 15.1273 3.64971 15.1273 4.06489V5.62165H0.872727V4.06489ZM0 6.07571V4.06489C0 3.14818 0.719003 2.40002 1.6 2.40002H14.4C15.281 2.40002 16 3.14818 16 4.06489V6.07571V11.9352C16 12.8519 15.281 13.6 14.4 13.6H1.6C0.719003 13.6 0 12.8519 0 11.9352V6.07571ZM15.1273 6.52976V11.9352C15.1273 12.3503 14.799 12.6919 14.4 12.6919H1.6C1.201 12.6919 0.872727 12.3503 0.872727 11.9352V6.52976H15.1273ZM2.32727 10.7243C2.32727 10.4736 2.52264 10.2703 2.76363 10.2703H3.92727C4.16827 10.2703 4.36363 10.4736 4.36363 10.7243C4.36363 10.9751 4.16827 11.1784 3.92727 11.1784H2.76363C2.52264 11.1784 2.32727 10.9751 2.32727 10.7243ZM2.76363 8.45409C2.52264 8.45409 2.32727 8.65738 2.32727 8.90814C2.32727 9.15891 2.52264 9.3622 2.76363 9.3622H5.67273C5.91372 9.3622 6.10909 9.15891 6.10909 8.90814C6.10909 8.65738 5.91372 8.45409 5.67273 8.45409H2.76363Z" fill="#0171A1"/>
</svg>
