<svg width="16" height="16" viewBox="0 0 16 16" fill="none" xmlns="http://www.w3.org/2000/svg">
<path fill-rule="evenodd" clip-rule="evenodd" d="M11.8338 9.95105L13.3059 11.2018C13.4451 11.3196 13.5285 11.4902 13.5359 11.6721C13.5434 11.854 13.4742 12.0308 13.3451 12.1595L12.6923 12.8109C11.9099 13.5928 10.7026 13.7617 9.7349 13.2246C6.81231 11.5995 4.40389 9.19053 2.78217 6.27033C2.23645 5.30228 2.40467 4.08988 3.19346 3.30622L3.8463 2.65476C3.97528 2.52596 4.1524 2.4569 4.33472 2.46432C4.51705 2.47175 4.68794 2.55498 4.80597 2.69385L6.06921 4.17591C6.50786 4.69266 6.47664 5.45859 5.9974 5.93809L5.43922 6.49508C5.21486 6.72796 5.19542 7.08974 5.39353 7.34523C6.35796 8.54772 7.45268 9.64011 8.65772 10.6025C8.90819 10.8064 9.27051 10.7967 9.50967 10.5797L10.0678 10.0227C10.5484 9.54448 11.3159 9.51334 11.8338 9.95105ZM9.05492 9.81322L9.45853 9.41047C10.2569 8.61594 11.5313 8.56435 12.3914 9.29136L12.3931 9.29279L13.864 10.5425C13.8642 10.5428 13.8645 10.543 13.8648 10.5433C14.1877 10.817 14.3817 11.2134 14.399 11.6368C14.4163 12.0606 14.2551 12.4719 13.955 12.7711L13.3028 13.4219C13.3027 13.4221 13.303 13.4218 13.3028 13.4219M13.3028 13.4219C12.2476 14.4761 10.6199 14.7037 9.31573 13.9799C6.25315 12.2769 3.72837 9.75227 2.02829 6.69197C1.29343 5.38576 1.52094 3.75091 2.58395 2.69417L3.23593 2.04356C3.23601 2.04349 3.23586 2.04364 3.23593 2.04356C3.5357 1.74434 3.94706 1.58404 4.36988 1.60126C4.79258 1.61848 5.18926 1.81136 5.46367 2.1339C5.46382 2.13408 5.46352 2.13372 5.46367 2.1339L6.72773 3.61693C7.45745 4.47659 7.40538 5.75124 6.60835 6.54871L6.60753 6.54952L6.19449 6.96169C7.04933 8.0058 8.00766 8.96116 9.05492 9.81322" fill="#6D858F"/>
</svg>
