<svg width="16" height="16" viewBox="0 0 16 16" fill="none" xmlns="http://www.w3.org/2000/svg">
<path d="M3.18191 5.28395H12.8175C13.0875 5.28389 13.3542 5.34702 13.5989 5.46891C13.8437 5.5908 14.0604 5.76848 14.234 5.98947C14.4076 6.21046 14.5337 6.46939 14.6036 6.74805C14.6735 7.02672 14.6854 7.31836 14.6385 7.60246L13.7409 13.0346C13.6654 13.4919 13.4415 13.9061 13.1086 14.2046C12.7757 14.503 12.355 14.6666 11.9204 14.6667H4.079C3.64433 14.6668 3.22352 14.5032 2.89049 14.2047C2.55747 13.9062 2.33353 13.4919 2.258 13.0346L1.36137 7.60246C1.31446 7.3184 1.32635 7.0268 1.3962 6.74817C1.46605 6.46954 1.59217 6.21064 1.76569 5.98966C1.9392 5.76868 2.15591 5.59098 2.40058 5.46906C2.64525 5.34714 2.91194 5.28396 3.18191 5.28395ZM3.18191 6.2716C3.04688 6.27156 2.91348 6.30313 2.7911 6.36409C2.66872 6.42505 2.56032 6.51392 2.47354 6.62444C2.38675 6.73496 2.32368 6.86446 2.28875 7.00383C2.25383 7.14319 2.24791 7.28903 2.27141 7.43111L3.1685 12.8632C3.20631 13.0918 3.3183 13.2989 3.48481 13.4481C3.65132 13.5973 3.8617 13.6791 4.079 13.679H11.9204C12.1377 13.6791 12.3481 13.5973 12.5146 13.4481C12.6811 13.2989 12.7931 13.0918 12.8309 12.8632L13.7275 7.43111C13.751 7.28912 13.7451 7.14336 13.7102 7.00406C13.6753 6.86477 13.6124 6.73533 13.5257 6.62482C13.439 6.51431 13.3307 6.42543 13.2084 6.36441C13.0862 6.30338 12.9529 6.27171 12.8179 6.2716H3.18191ZM6.33075 10.1195C6.28138 10.0808 6.2397 10.032 6.20813 9.97595C6.17655 9.9199 6.15572 9.8577 6.14684 9.79297C6.13796 9.72824 6.1412 9.66227 6.15638 9.59889C6.17156 9.53551 6.19838 9.47598 6.23528 9.42377C6.27217 9.37156 6.31841 9.3277 6.3713 9.29474C6.42419 9.26178 6.48269 9.24038 6.54339 9.23178C6.60409 9.22319 6.66578 9.22756 6.72488 9.24465C6.78399 9.26175 6.83932 9.29122 6.88768 9.33135C7.20566 9.58814 7.59204 9.72839 7.99969 9.72839C8.40918 9.72839 8.79695 9.58617 9.11586 9.3279C9.21349 9.24866 9.33658 9.21411 9.45806 9.23184C9.57954 9.24958 9.68944 9.31815 9.7636 9.42247C9.83776 9.52678 9.8701 9.65831 9.8535 9.7881C9.8369 9.91789 9.77273 10.0353 9.6751 10.1146C9.19334 10.5057 8.60473 10.717 7.99969 10.716C7.39754 10.7168 6.81166 10.5073 6.33121 10.1195H6.33075ZM3.37787 4.29629C3.37787 4.42726 3.32918 4.55287 3.2425 4.64548C3.15582 4.73809 3.03827 4.79012 2.91569 4.79012C2.79311 4.79012 2.67555 4.73809 2.58888 4.64548C2.5022 4.55287 2.45351 4.42726 2.45351 4.29629C2.45351 4.03435 2.55089 3.78314 2.72425 3.59791C2.8976 3.41269 3.13271 3.30864 3.37787 3.30864H12.3904C12.6356 3.30864 12.8707 3.41269 13.044 3.59791C13.2174 3.78314 13.3148 4.03435 13.3148 4.29629C13.3148 4.42726 13.2661 4.55287 13.1794 4.64548C13.0927 4.73809 12.9752 4.79012 12.8526 4.79012C12.73 4.79012 12.6125 4.73809 12.5258 4.64548C12.4391 4.55287 12.3904 4.42726 12.3904 4.29629H3.37787ZM4.30223 2.32098C4.30223 2.45195 4.25354 2.57756 4.16686 2.67017C4.08019 2.76278 3.96263 2.81481 3.84005 2.81481C3.71747 2.81481 3.59992 2.76278 3.51324 2.67017C3.42656 2.57756 3.37787 2.45195 3.37787 2.32098C3.37787 2.05904 3.47526 1.80783 3.64861 1.62261C3.82196 1.43738 4.05708 1.33333 4.30223 1.33333H11.466C11.7112 1.33333 11.9463 1.43738 12.1197 1.62261C12.293 1.80783 12.3904 2.05904 12.3904 2.32098C12.3904 2.45195 12.3417 2.57756 12.255 2.67017C12.1684 2.76278 12.0508 2.81481 11.9282 2.81481C11.8057 2.81481 11.6881 2.76278 11.6014 2.67017C11.5147 2.57756 11.466 2.45195 11.466 2.32098H4.30223Z" fill="#4A4A4A"/>
</svg>
