<svg width="24" height="24" viewBox="0 0 24 24" fill="none" xmlns="http://www.w3.org/2000/svg">
<path d="M17.5594 2.107L17.6868 2.36132L18.6477 4.91676C18.7232 5.118 18.882 5.27679 19.0832 5.35229L21.5505 6.27791C22.6332 6.68411 23.215 7.84105 22.9265 8.93567L22.8571 9.15353L21.7093 11.692C21.6203 11.8877 21.6203 12.1123 21.7093 12.308L22.7993 14.7071C23.2777 15.7599 22.871 16.9894 21.893 17.5594L21.6387 17.6868L19.0832 18.6477C18.882 18.7232 18.7232 18.882 18.6477 19.0832L17.7221 21.5505C17.3159 22.6332 16.159 23.215 15.0643 22.9265L14.8465 22.8571L12.308 21.7093C12.1123 21.6203 11.8877 21.6203 11.692 21.7093L9.29291 22.7993C8.2401 23.2777 7.01062 22.871 6.44061 21.893L6.31322 21.6387L5.35229 19.0832C5.27679 18.882 5.118 18.7232 4.91676 18.6477L2.44951 17.7221C1.36681 17.3159 0.784998 16.159 1.07351 15.0643L1.14292 14.8465L2.29075 12.308C2.37966 12.1123 2.37966 11.8877 2.29075 11.692L1.20066 9.29291C0.722295 8.2401 1.12897 7.01062 2.107 6.44061L2.36132 6.31322L4.91676 5.35229C5.118 5.27679 5.27679 5.118 5.35229 4.91676L6.27791 2.44951C6.68411 1.36681 7.84105 0.784998 8.93567 1.07351L9.15353 1.14292L11.692 2.29075C11.8877 2.37966 12.1123 2.37966 12.308 2.29075L14.7071 1.20066C15.7599 0.722295 16.9894 1.12897 17.5594 2.107ZM15.6072 8.17582L10.2968 14.2448L8.35899 12.3071C8.06826 12.0163 7.59688 12.0163 7.30615 12.3071C7.01541 12.5978 7.01541 13.0692 7.30615 13.3599L9.80661 15.8604C10.1111 16.1649 10.6097 16.1483 10.8933 15.8242L16.7277 9.15629C16.9985 8.84686 16.9671 8.37653 16.6577 8.10578C16.3482 7.83503 15.8779 7.86639 15.6072 8.17582Z" fill="#F93131"/>
</svg>
