<svg width="14" height="14" viewBox="0 0 14 14" fill="none" xmlns="http://www.w3.org/2000/svg">
<path d="M6.99995 13.3C10.4793 13.3 13.3 10.4793 13.3 6.99995C13.3 3.52056 10.4793 0.699951 6.99995 0.699951C3.52056 0.699951 0.699951 3.52056 0.699951 6.99995C0.699951 10.4793 3.52056 13.3 6.99995 13.3ZM6.99995 12.3551C4.04239 12.3551 1.6448 9.95752 1.6448 6.99995C1.6448 4.04238 4.04239 1.6448 6.99995 1.6448C9.95752 1.6448 12.3551 4.04238 12.3551 6.99995C12.3551 9.95752 9.95752 12.3551 6.99995 12.3551ZM6.99766 7.94541C7.23683 7.94557 7.4346 7.76797 7.46604 7.5374L7.47039 7.4733L7.47266 4.00783C7.47283 3.74692 7.26146 3.53526 7.00054 3.53509C6.76137 3.53494 6.5636 3.71254 6.53216 3.94311L6.52781 4.00721L6.52554 7.47268C6.52537 7.73359 6.73674 7.94524 6.99766 7.94541ZM7.00023 10.1487C7.34765 10.1487 7.62929 9.86702 7.62929 9.5196C7.62929 9.17218 7.34765 8.89054 7.00023 8.89054C6.65281 8.89054 6.37117 9.17218 6.37117 9.5196C6.37117 9.86702 6.65281 10.1487 7.00023 10.1487Z" fill="#F93131"/>
</svg>
