<svg width="13" height="12" viewBox="0 0 13 12" fill="none" xmlns="http://www.w3.org/2000/svg">
<path d="M3.13804 10.4606L9.86218 10.4626C10.0764 10.4626 10.25 10.6389 10.25 10.8564C10.25 11.0557 10.104 11.2204 9.9146 11.2464L9.86195 11.25L3.13782 11.248C2.92357 11.248 2.75 11.0716 2.75 10.8542C2.75 10.6549 2.89604 10.4902 3.0854 10.4642L3.13804 10.4606ZM3.63951 3.48831L6.2245 0.865289C6.36216 0.725602 6.57753 0.712843 6.72939 0.827055L6.7729 0.865128L9.36089 3.48815C9.51249 3.6418 9.51266 3.89109 9.36127 4.04495C9.22364 4.18483 9.00813 4.19769 8.85618 4.08343L8.81265 4.04533L6.88793 2.09495V9.27883C6.88793 9.47815 6.74199 9.64288 6.55264 9.66895L6.5 9.67255C6.3036 9.67255 6.1413 9.52443 6.11561 9.33225L6.11207 9.27883V2.09232L4.18807 4.04517C4.05033 4.18494 3.83482 4.19762 3.68296 4.08324L3.63946 4.04511C3.50175 3.90532 3.48925 3.68659 3.60195 3.53247L3.63951 3.48831L6.2245 0.865289L3.63951 3.48831Z" fill="#0171A1"/>
</svg>
