<svg width="16" height="16" viewBox="0 0 16 16" fill="none" xmlns="http://www.w3.org/2000/svg">
<path fill-rule="evenodd" clip-rule="evenodd" d="M7.99998 4.8C5.34607 4.8 2.98507 6.66151 2.41925 9.28168C2.37255 9.498 2.15328 9.63672 1.92948 9.5916C1.70569 9.5464 1.56212 9.33456 1.60882 9.11832C2.25229 6.13849 4.94225 4 7.99998 4C11.0577 4 13.7476 6.1385 14.3912 9.11832C14.4379 9.33456 14.2943 9.5464 14.0705 9.5916C13.8467 9.63672 13.6275 9.498 13.5807 9.28168C13.0148 6.6615 10.6539 4.8 7.99998 4.8ZM5.10236 9.2C5.10236 7.6536 6.39966 6.4 7.99997 6.4C9.60028 6.4 10.8976 7.6536 10.8976 9.2C10.8976 10.7464 9.60028 12 7.99997 12C6.39966 12 5.10236 10.7464 5.10236 9.2ZM7.99997 7.2C6.8569 7.2 5.93025 8.09544 5.93025 9.2C5.93025 10.3046 6.8569 11.2 7.99997 11.2C9.14304 11.2 10.0697 10.3046 10.0697 9.2C10.0697 8.09544 9.14304 7.2 7.99997 7.2Z" fill="#0171A1"/>
</svg>
