<svg width="16" height="16" viewBox="0 0 16 16" fill="none" xmlns="http://www.w3.org/2000/svg">
<path d="M8.0005 5.88072C9.63617 5.88072 10.9621 7.25057 10.9621 8.94036C10.9621 10.6301 9.63617 12 8.0005 12C6.36484 12 5.03887 10.6301 5.03887 8.94036C5.03887 7.25057 6.36484 5.88072 8.0005 5.88072ZM8.0005 7.02808C6.97821 7.02808 6.14948 7.88424 6.14948 8.94036C6.14948 9.99648 6.97821 10.8526 8.0005 10.8526C9.02279 10.8526 9.85153 9.99648 9.85153 8.94036C9.85153 7.88424 9.02279 7.02808 8.0005 7.02808ZM8.0005 3.2C11.4164 3.2 14.3651 5.60947 15.1833 8.98607C15.2578 9.29342 15.077 9.60495 14.7795 9.68189C14.4819 9.75883 14.1804 9.57204 14.1059 9.26469C13.4108 6.39576 10.9039 4.34736 8.0005 4.34736C5.09583 4.34736 2.58819 6.39752 1.89425 9.26814C1.81994 9.57554 1.51849 9.7625 1.22094 9.68573C0.923389 9.60896 0.742418 9.29753 0.816727 8.99014C1.63347 5.61154 4.58313 3.2 8.0005 3.2Z" fill="#0171A1"/>
</svg>
