<svg width="16" height="16" viewBox="0 0 16 16" fill="none" xmlns="http://www.w3.org/2000/svg">
<path d="M8.00026 5.88073C9.63593 5.88073 10.9619 7.25058 10.9619 8.94037C10.9619 10.6302 9.63593 12 8.00026 12C6.36459 12 5.03862 10.6302 5.03862 8.94037C5.03862 7.25058 6.36459 5.88073 8.00026 5.88073ZM8.00026 7.0281C6.97797 7.0281 6.14924 7.88425 6.14924 8.94037C6.14924 9.99649 6.97797 10.8526 8.00026 10.8526C9.02255 10.8526 9.85128 9.99649 9.85128 8.94037C9.85128 7.88425 9.02255 7.0281 8.00026 7.0281ZM8.00026 3.20001C11.4161 3.20001 14.3649 5.60948 15.1831 8.98608C15.2575 9.29344 15.0767 9.60497 14.7792 9.6819C14.4817 9.75884 14.1802 9.57205 14.1057 9.2647C13.4105 6.39577 10.9037 4.34738 8.00026 4.34738C5.09559 4.34738 2.58794 6.39754 1.894 9.26816C1.81969 9.57555 1.51824 9.76251 1.22069 9.68574C0.923145 9.60897 0.742174 9.29755 0.816483 8.99015C1.63322 5.61156 4.58289 3.20001 8.00026 3.20001Z" fill="#6D858F"/>
</svg>
